<svg width="240" height="240" viewBox="0 0 240 240" fill="none" xmlns="http://www.w3.org/2000/svg">
<path d="M206.08 125.689L210.78 125.959L219.42 134.019L223.74 140.929L222.87 153.309L219.99 168.279L219.13 178.929L221.96 184.129L214.52 193.329L197.25 210.599L195.29 212.589L175.29 203.549L145.62 202.259L144.07 184.969L151.94 181.749L162.28 176.599L172.59 167.039L180.07 154.139L187.94 135.429L197.23 134.399L201.23 132.199L206.08 125.689Z" fill="#EC6D65" fill-opacity="0.5"/>
<path d="M33.7102 114.17L34.7102 96.2295L38.4402 69.8995L44.3702 52.7795L56.8802 36.7795L66.7502 30.4195L82.3302 22.5195L102.74 18.5195L117.45 18.7395L133.45 20.7395L148.59 24.7395L160.44 33.5195L172.95 47.7895L176.24 55.6895L183.24 72.5795L188.89 92.4695L182.88 93.9995C182.88 93.9995 170.37 94.2195 164.67 91.3695L158.96 88.5095C158.96 88.5095 154.57 94.4395 139.87 90.7095L125.17 86.9995C125.17 86.9995 115.29 97.0895 101.68 92.2595C88.0702 87.4295 81.3002 79.3395 81.3002 79.3395L78.4402 73.8495L76.6802 71.5295C76.6802 71.5295 73.4002 83.5295 72.3002 85.6995C71.2002 87.8695 64.8402 103.48 62.2002 105.7C59.5602 107.92 53.8602 112.5 51.2002 112.5C48.5402 112.5 51.5502 116.67 51.5502 116.67L33.7102 114.17Z" fill="#EC6D65" fill-opacity="0.5"/>
<path d="M14.4602 175.291L22.7902 169.041L29.3902 151.691L30.3502 145.641L34.4302 153.811L39.4602 154.461L52.3002 153.071L55.5202 150.511L63.7602 168.701L81.2902 185.561L98.8302 189.181L113.72 190.451L112.02 211.751L67.2302 227.021L43.9702 211.751L23.8402 191.261L14.4602 175.291Z" fill="#EC6D65" fill-opacity="0.5"/>
<path d="M35.1 115.39C34.7602 115.388 34.4325 115.264 34.1771 115.04C33.9217 114.816 33.7558 114.507 33.71 114.17C32.8765 104.737 33.0173 95.2439 34.13 85.84C35.052 77.3254 37.0271 68.9582 40.01 60.9301C43.55 51.6501 48.43 43.9301 54.52 38.0701C63.1173 29.5104 73.8319 23.3853 85.57 20.3201C99.23 16.6701 115.44 16.3901 135.19 19.4701C145.978 21.1526 155.933 26.2774 163.57 34.0801C169.96 40.4501 175.43 48.7901 179.8 58.8301C184.383 69.5532 187.468 80.8558 188.97 92.4201C189.002 92.609 188.994 92.8023 188.948 92.9882C188.902 93.1741 188.818 93.3485 188.702 93.5007C188.585 93.6529 188.439 93.7796 188.272 93.873C188.105 93.9664 187.92 94.0245 187.729 94.0436C187.539 94.0628 187.346 94.0427 187.164 93.9846C186.981 93.9264 186.813 93.8314 186.669 93.7055C186.524 93.5795 186.407 93.4253 186.325 93.2524C186.243 93.0794 186.197 92.8915 186.19 92.7001C184.699 81.3915 181.671 70.3395 177.19 59.8501C172.95 50.1301 167.7 42.0901 161.56 35.9701C154.339 28.5971 144.928 23.7564 134.73 22.1701C115.37 19.1701 99.51 19.4001 86.29 22.9301C75.0127 25.8763 64.7213 31.7675 56.47 40.0001C50.3099 46.1704 45.5816 53.6195 42.62 61.8201C39.7379 69.6177 37.817 77.7376 36.9 86.0001C35.7991 95.2107 35.6617 104.511 36.49 113.75C36.5153 113.93 36.5044 114.114 36.458 114.289C36.4117 114.465 36.3307 114.63 36.22 114.775C36.1092 114.919 35.9708 115.04 35.8129 115.13C35.6549 115.22 35.4806 115.278 35.3 115.3C35.2949 115.32 35.2851 115.34 35.2716 115.356C35.258 115.372 35.241 115.385 35.2218 115.393C35.2025 115.402 35.1816 115.406 35.1605 115.406C35.1394 115.405 35.1188 115.4 35.1 115.39Z" fill="black"/>
<path d="M42.53 155.999C39.6835 156.043 36.8803 155.299 34.43 153.849C30.12 151.239 27.04 146.419 25.33 139.469C24.0844 134.138 23.6395 128.652 24.01 123.189C24.0407 121.814 24.402 120.466 25.0634 119.26C25.7248 118.054 26.6669 117.025 27.81 116.259C30.98 114.139 35.95 113.589 42.65 114.599C45.6681 115.068 48.6466 115.763 51.56 116.679C51.9079 116.796 52.1957 117.045 52.3606 117.373C52.5255 117.701 52.554 118.081 52.44 118.429C52.3192 118.777 52.0676 119.063 51.7389 119.227C51.4101 119.392 51.0302 119.421 50.68 119.309C47.9012 118.429 45.0598 117.76 42.18 117.309C36.3 116.429 31.86 116.849 29.33 118.559C28.5399 119.091 27.8925 119.809 27.4444 120.649C26.9963 121.49 26.7613 122.427 26.76 123.379C26.4228 128.553 26.8439 133.748 28.01 138.799C29.54 144.989 32.18 149.259 35.84 151.479C41.4 154.829 49.36 153.369 59.55 147.179C59.705 147.081 59.8781 147.015 60.0591 146.984C60.2401 146.954 60.4254 146.96 60.6041 147.002C60.7828 147.044 60.9514 147.121 61.0999 147.229C61.2484 147.336 61.3739 147.473 61.469 147.63C61.5642 147.787 61.627 147.961 61.6539 148.143C61.6808 148.324 61.6712 148.51 61.6256 148.687C61.5801 148.865 61.4995 149.032 61.3887 149.178C61.2778 149.325 61.1389 149.448 60.98 149.539C53.94 153.789 47.76 155.999 42.53 155.999Z" fill="black"/>
<path d="M54.3602 112.25C54.0098 112.238 53.677 112.093 53.4286 111.846C53.1801 111.599 53.0343 111.267 53.0204 110.916C53.0065 110.566 53.1255 110.223 53.3535 109.957C53.5816 109.691 53.9019 109.52 54.2502 109.48C58.0202 109.16 62.3302 104.1 66.4002 95.2201C68.4652 90.6082 70.2224 85.8644 71.6602 81.0201C71.7088 80.8442 71.7916 80.6795 71.9038 80.5355C72.016 80.3915 72.1555 80.2711 72.3143 80.181C72.4731 80.0909 72.6481 80.033 72.8292 80.0106C73.0104 79.9881 73.1942 80.0016 73.3702 80.0501C73.5462 80.0987 73.7109 80.1815 73.8548 80.2937C73.9988 80.406 74.1193 80.5455 74.2094 80.7043C74.2994 80.863 74.3573 81.038 74.3798 81.2192C74.4022 81.4004 74.3888 81.5842 74.3402 81.7601C72.8863 86.7498 71.0852 91.6317 68.9502 96.3701C64.3002 106.5 59.4502 111.84 54.5002 112.25H54.3602Z" fill="black"/>
<path d="M110.67 94.3597C105.639 94.4421 100.627 93.7093 95.83 92.1897C91.0387 90.6699 86.706 87.9706 83.23 84.3397C79.856 80.7887 77.5752 76.3417 76.66 71.5297C76.6217 71.3422 76.6225 71.1489 76.6623 70.9618C76.7022 70.7747 76.7802 70.5978 76.8916 70.4422C77.003 70.2867 77.1452 70.1558 77.3095 70.0577C77.4738 69.9597 77.6566 69.8966 77.8463 69.8725C78.0361 69.8483 78.2289 69.8636 78.4125 69.9173C78.5961 69.9711 78.7666 70.0622 78.9134 70.1849C79.0601 70.3076 79.18 70.4593 79.2655 70.6305C79.3509 70.8016 79.4001 70.9886 79.41 71.1797C80.2777 75.4785 82.36 79.4384 85.41 82.5897C88.5814 85.8386 92.5136 88.2447 96.85 89.5897C102.68 91.4997 109.75 92.0396 117.85 91.1796C118.215 91.1399 118.58 91.2466 118.866 91.4763C119.152 91.7061 119.335 92.04 119.375 92.4047C119.415 92.7693 119.308 93.1349 119.078 93.4209C118.849 93.7069 118.515 93.8899 118.15 93.9296C115.53 94.2197 113.03 94.3597 110.67 94.3597Z" fill="black"/>
<path d="M150.03 93.0909C141.51 93.0909 134.15 91.8709 128.1 89.4409C123.271 87.5954 118.964 84.6027 115.55 80.7209C112.311 77.0441 110.291 72.4533 109.77 67.5809C109.761 67.3988 109.788 67.2167 109.849 67.045C109.91 66.8733 110.005 66.7155 110.128 66.5807C110.251 66.4459 110.399 66.3367 110.564 66.2595C110.729 66.1823 110.908 66.1386 111.09 66.1309H111.15C111.506 66.1279 111.849 66.2625 112.108 66.5066C112.367 66.7507 112.522 67.0854 112.54 67.4409C113.075 71.7548 114.91 75.804 117.8 79.0509C120.931 82.5791 124.88 85.2849 129.3 86.9309C135.3 89.3009 142.73 90.4409 151.39 90.3009C151.737 90.3304 152.06 90.4891 152.296 90.7456C152.532 91.0021 152.662 91.3377 152.662 91.6859C152.662 92.0342 152.532 92.3697 152.296 92.6262C152.06 92.8827 151.737 93.0414 151.39 93.0709C150.93 93.0909 150.47 93.0909 150.03 93.0909Z" fill="black"/>
<path d="M173.3 94.2496H173.18C166.18 93.7096 156.75 91.2496 151.35 82.3096C149.386 79.0914 148.22 75.4501 147.95 71.6896C147.938 71.321 148.073 70.9627 148.325 70.6936C148.578 70.4245 148.927 70.2666 149.295 70.2546C149.664 70.2427 150.022 70.3777 150.291 70.6299C150.56 70.8822 150.718 71.231 150.73 71.5996C151.013 74.9265 152.067 78.1417 153.81 80.9896C157.65 87.2696 164.22 90.8096 173.39 91.4996C173.572 91.511 173.75 91.5585 173.913 91.6394C174.076 91.7203 174.222 91.833 174.341 91.9708C174.46 92.1086 174.551 92.2688 174.607 92.4421C174.664 92.6153 174.685 92.798 174.67 92.9796C174.65 93.3271 174.496 93.6532 174.24 93.8899C173.985 94.1265 173.648 94.2554 173.3 94.2496Z" fill="black"/>
<path d="M190.3 137.699C185.561 137.541 180.93 136.241 176.8 133.909C176.626 133.832 176.47 133.719 176.341 133.579C176.213 133.438 176.114 133.273 176.052 133.093C175.99 132.912 175.966 132.722 175.981 132.532C175.995 132.342 176.049 132.157 176.138 131.988C176.228 131.82 176.351 131.672 176.5 131.553C176.649 131.434 176.82 131.348 177.004 131.298C177.188 131.248 177.38 131.237 177.569 131.265C177.757 131.293 177.938 131.359 178.1 131.459C184.1 134.629 189.58 135.639 194.23 134.459C196.23 133.928 198.1 132.993 199.725 131.712C201.35 130.43 202.696 128.83 203.68 127.009C206.321 122.116 207.243 116.479 206.3 110.999C205.3 105.069 202.36 100.329 198.03 97.6294C192.5 94.1894 188.03 93.1994 184.93 94.7194C180.78 96.7194 180.04 102.479 180.02 102.529C179.974 102.895 179.784 103.228 179.492 103.454C179.2 103.68 178.831 103.781 178.465 103.734C178.099 103.688 177.766 103.498 177.54 103.206C177.314 102.915 177.214 102.545 177.26 102.179C177.26 101.879 178.21 94.8394 183.72 92.1794C187.77 90.2394 193.1 91.2794 199.49 95.2494C204.49 98.3594 207.89 103.789 209.03 110.509C210.104 116.634 209.068 122.941 206.09 128.399C204.929 130.547 203.339 132.434 201.42 133.942C199.5 135.451 197.291 136.549 194.93 137.169C193.412 137.52 191.858 137.698 190.3 137.699Z" fill="black"/>
<path d="M107.7 191.58C98.5421 191.735 89.4822 189.676 81.2901 185.58C74.92 182.254 69.3193 177.627 64.8501 172C60.1023 166.16 56.5821 159.422 54.5001 152.19C54.4125 151.83 54.4714 151.451 54.6636 151.135C54.8558 150.819 55.1657 150.592 55.5251 150.505C55.8844 150.417 56.2638 150.476 56.5798 150.668C56.8958 150.861 57.1225 151.17 57.2101 151.53C59.2475 158.391 62.6072 164.788 67.1001 170.36C71.3215 175.661 76.6133 180.012 82.6301 183.13C90.5595 187.079 99.3344 189.029 108.19 188.81C128.87 188.67 147.04 183.66 160.72 174.31C174.22 165.1 182.79 152.03 185.5 136.59C185.561 136.228 185.763 135.905 186.062 135.692C186.362 135.479 186.733 135.394 187.095 135.455C187.457 135.516 187.78 135.718 187.993 136.017C188.206 136.316 188.291 136.688 188.23 137.05C185.41 153.26 176.42 166.92 162.23 176.6C148.04 186.28 129.37 191.44 108.14 191.6L107.7 191.58Z" fill="black"/>
<path d="M112.64 201.901C112.281 201.899 111.936 201.758 111.677 201.509C111.418 201.259 111.265 200.92 111.25 200.561L110.95 190.561C110.939 190.194 111.074 189.837 111.325 189.57C111.576 189.302 111.923 189.144 112.29 189.131C112.648 189.133 112.992 189.274 113.249 189.524C113.506 189.773 113.657 190.113 113.67 190.471L113.98 200.471C113.985 200.653 113.955 200.835 113.89 201.006C113.825 201.177 113.727 201.333 113.601 201.466C113.476 201.598 113.326 201.705 113.159 201.78C112.992 201.855 112.813 201.896 112.63 201.901H112.64Z" fill="black"/>
<path d="M144.56 198.349C144.204 198.35 143.862 198.213 143.605 197.967C143.348 197.721 143.196 197.385 143.18 197.029L142.57 185.229C142.552 184.861 142.68 184.5 142.928 184.226C143.175 183.952 143.521 183.788 143.89 183.769C144.259 183.751 144.62 183.879 144.894 184.127C145.167 184.375 145.332 184.721 145.35 185.089L145.95 196.889C145.96 197.072 145.933 197.255 145.872 197.427C145.81 197.599 145.716 197.758 145.593 197.893C145.47 198.029 145.322 198.139 145.157 198.217C144.992 198.295 144.813 198.34 144.63 198.349H144.56Z" fill="black"/>
<path d="M236.3 203.66C235.948 203.661 235.608 203.529 235.35 203.29C234.96 202.92 225.72 194.29 219.77 185.67C215.77 179.95 218.1 169.72 220.32 159.81C221.69 153.72 222.99 147.95 222.78 143.68C222.25 133.15 206.29 125.76 206.13 125.68C205.796 125.529 205.535 125.251 205.406 124.908C205.277 124.565 205.289 124.184 205.44 123.85C205.591 123.516 205.869 123.255 206.212 123.126C206.555 122.997 206.936 123.009 207.27 123.16C210.374 124.668 213.314 126.494 216.04 128.61C221.97 133.25 225.26 138.42 225.51 143.53C225.74 148.19 224.42 154.12 223.01 160.43C220.93 169.75 218.75 179.38 222.01 184.12C227.78 192.45 237.11 201.2 237.2 201.29C237.338 201.416 237.449 201.568 237.527 201.737C237.605 201.906 237.649 202.089 237.656 202.275C237.662 202.462 237.631 202.647 237.565 202.822C237.499 202.996 237.399 203.155 237.27 203.29C237.142 203.415 236.99 203.512 236.824 203.576C236.657 203.64 236.479 203.668 236.3 203.66Z" fill="black"/>
<path d="M224.42 211.319C224.049 211.323 223.691 211.183 223.42 210.929C219.576 207.068 216.15 202.811 213.2 198.229C206.91 188.399 205.01 179.529 207.72 172.579C210.166 166.202 210.166 159.146 207.72 152.769C206.642 149.696 205.123 146.795 203.21 144.159C203.018 143.868 202.942 143.515 202.999 143.171C203.055 142.826 203.238 142.516 203.513 142.3C203.787 142.085 204.133 141.981 204.48 142.008C204.828 142.036 205.153 142.193 205.39 142.449C207.469 145.297 209.12 148.434 210.29 151.759C212.966 158.793 212.966 166.565 210.29 173.599C204.48 188.489 225.13 208.759 225.29 208.969C225.424 209.099 225.531 209.254 225.604 209.426C225.677 209.598 225.715 209.783 225.715 209.969C225.715 210.156 225.677 210.341 225.604 210.512C225.531 210.684 225.424 210.84 225.29 210.969C225.05 211.185 224.742 211.309 224.42 211.319Z" fill="black"/>
<path d="M211.41 211.001C211.236 211.006 211.062 210.975 210.9 210.911C210.32 210.681 196.61 205.231 192.68 195.911C191.978 194.309 191.615 192.58 191.615 190.831C191.615 189.082 191.978 187.352 192.68 185.751C197.93 173.171 190.36 151.881 190.29 151.651C190.165 151.303 190.184 150.921 190.341 150.587C190.499 150.253 190.783 149.995 191.13 149.871C191.477 149.746 191.86 149.765 192.194 149.922C192.528 150.08 192.785 150.363 192.91 150.711C193.23 151.631 200.91 173.241 195.25 186.791C194.695 188.051 194.409 189.414 194.409 190.791C194.409 192.168 194.695 193.53 195.25 194.791C198.75 203.011 211.81 208.211 211.95 208.251C212.251 208.371 212.502 208.593 212.658 208.877C212.814 209.162 212.866 209.492 212.806 209.811C212.746 210.13 212.577 210.418 212.328 210.626C212.078 210.834 211.765 210.949 211.44 210.951L211.41 211.001Z" fill="black"/>
<path d="M238.61 245.24C238.4 245.239 238.193 245.191 238.005 245.1C237.816 245.008 237.65 244.875 237.52 244.71L223.3 227C223.184 226.86 223.097 226.698 223.045 226.524C222.992 226.35 222.975 226.167 222.995 225.986C223.015 225.805 223.07 225.63 223.159 225.471C223.247 225.312 223.367 225.172 223.51 225.06C223.796 224.834 224.16 224.729 224.523 224.768C224.886 224.807 225.219 224.988 225.45 225.27L239.68 243C239.795 243.141 239.881 243.303 239.932 243.477C239.984 243.651 240.001 243.834 239.981 244.014C239.961 244.195 239.906 244.37 239.819 244.529C239.731 244.688 239.612 244.828 239.47 244.94C239.233 245.148 238.925 245.255 238.61 245.24Z" fill="black"/>
<path d="M59.1102 228.431C58.9088 228.428 58.7105 228.381 58.5302 228.291C58.3637 228.215 58.2141 228.106 58.09 227.971C57.9659 227.837 57.8699 227.679 57.8076 227.506C57.7452 227.334 57.7177 227.151 57.7268 226.968C57.7358 226.785 57.7812 226.606 57.8602 226.441C57.9502 226.261 66.8602 206.731 60.0802 197.441C57.7955 194.406 56.3846 190.804 56.0004 187.025C55.6161 183.246 56.2731 179.434 57.9002 176.001C58.078 175.68 58.373 175.441 58.7235 175.333C59.0739 175.225 59.4526 175.256 59.7802 175.421C60.1021 175.595 60.343 175.888 60.4514 176.238C60.5598 176.587 60.5271 176.965 60.3602 177.291C58.9677 180.278 58.4181 183.588 58.7706 186.865C59.1231 190.141 60.3643 193.259 62.3602 195.881C70.1402 206.451 60.8302 226.791 60.4302 227.651C60.305 227.891 60.115 228.092 59.8817 228.23C59.6484 228.368 59.3811 228.437 59.1102 228.431Z" fill="black"/>
<path d="M39.89 230.511C39.757 230.509 39.6251 230.486 39.5 230.441C39.3247 230.389 39.1614 230.303 39.0195 230.188C38.8776 230.073 38.76 229.931 38.6735 229.77C38.5869 229.609 38.5332 229.432 38.5155 229.251C38.4977 229.069 38.5163 228.885 38.57 228.711C39.4085 225.681 39.9148 222.57 40.08 219.431C40.33 214.741 39.84 208.091 36.14 203.101C32.71 198.511 32.14 192.481 34.38 185.721C35.4479 182.62 36.9279 179.677 38.78 176.971C38.9975 176.672 39.3246 176.472 39.6893 176.415C40.0541 176.358 40.4266 176.448 40.725 176.666C41.0234 176.883 41.2231 177.21 41.2803 177.575C41.3375 177.94 41.2475 178.312 41.03 178.611C40.91 178.771 31.39 192.091 38.36 201.441C41.7 205.921 43.25 212.221 42.85 219.631C42.6849 222.975 42.1415 226.289 41.23 229.511C41.1372 229.795 40.9586 230.044 40.7187 230.223C40.4787 230.402 40.1893 230.503 39.89 230.511Z" fill="black"/>
<path d="M23.9201 232.26C23.6833 232.268 23.4486 232.213 23.2401 232.1C23.0804 232.014 22.9393 231.898 22.8251 231.757C22.7108 231.616 22.6256 231.454 22.5745 231.28C22.5233 231.106 22.5072 230.924 22.527 230.744C22.5469 230.563 22.6023 230.389 22.6901 230.23C23.8621 227.858 24.6293 225.306 24.9601 222.68C25.3753 219.963 25.217 217.189 24.4954 214.537C23.7737 211.884 22.5047 209.412 20.7701 207.28C17.9353 203.701 15.9583 199.52 14.991 195.058C14.0237 190.596 14.0918 185.972 15.1901 181.54C15.2909 181.185 15.5287 180.884 15.8513 180.704C16.1738 180.524 16.5547 180.479 16.9101 180.58C17.2655 180.681 17.5663 180.919 17.7463 181.241C17.9264 181.564 17.9709 181.945 17.8701 182.3C17.8701 182.42 14.3801 194.75 22.9401 205.53C24.9037 207.976 26.3409 210.8 27.1617 213.827C27.9826 216.854 28.1692 220.018 27.7101 223.12C27.3209 226.052 26.4527 228.9 25.1401 231.55C25.0187 231.767 24.8415 231.947 24.6269 232.072C24.4124 232.196 24.1683 232.262 23.9201 232.26Z" fill="black"/>
<path d="M20.3701 172.4C20.1618 172.399 19.9564 172.351 19.7694 172.259C19.5823 172.167 19.4185 172.034 19.2902 171.87C19.1751 171.729 19.0896 171.566 19.0388 171.391C18.988 171.216 18.9729 171.032 18.9943 170.851C19.0158 170.67 19.0734 170.496 19.1637 170.337C19.254 170.179 19.3753 170.04 19.5202 169.93C21.1686 168.367 22.5233 166.521 23.5202 164.48C25.3702 160.97 27.5202 154.85 27.5202 145.64C27.5202 145.271 27.6666 144.918 27.9273 144.657C28.1879 144.396 28.5415 144.25 28.9101 144.25C29.2788 144.25 29.6324 144.396 29.893 144.657C30.1537 144.918 30.3001 145.271 30.3001 145.64C30.3001 164.64 21.5702 171.8 21.2002 172.1C20.9604 172.282 20.6709 172.387 20.3701 172.4Z" fill="black"/>
<path d="M116.92 133.45C116.005 133.512 115.09 133.341 114.259 132.953C113.428 132.565 112.709 131.972 112.17 131.23C110.67 129.08 110.58 125.46 111.87 120.5C112.477 118.271 113.235 116.086 114.14 113.96C114.215 113.795 114.321 113.645 114.454 113.521C114.586 113.396 114.742 113.299 114.912 113.235C115.082 113.171 115.263 113.141 115.444 113.147C115.626 113.153 115.805 113.195 115.97 113.27C116.136 113.343 116.287 113.448 116.412 113.579C116.537 113.71 116.635 113.865 116.701 114.034C116.766 114.203 116.796 114.384 116.791 114.565C116.786 114.747 116.745 114.925 116.67 115.09C114.79 119.3 112.54 126.96 114.42 129.66C114.63 129.94 115.23 130.82 117.34 130.66C117.528 130.638 117.718 130.654 117.899 130.707C118.08 130.761 118.249 130.85 118.394 130.971C118.539 131.092 118.659 131.241 118.744 131.409C118.83 131.578 118.881 131.762 118.893 131.95C118.905 132.139 118.879 132.328 118.816 132.506C118.752 132.684 118.654 132.847 118.525 132.986C118.397 133.124 118.241 133.235 118.068 133.312C117.896 133.388 117.709 133.428 117.52 133.43L116.92 133.45Z" fill="black"/>
<path d="M116.3 148.871C114.614 148.87 112.935 148.662 111.3 148.251C107.464 147.31 103.912 145.454 100.95 142.841C100.814 142.715 100.705 142.564 100.628 142.395C100.552 142.227 100.51 142.045 100.504 141.86C100.499 141.675 100.531 141.491 100.598 141.318C100.665 141.146 100.765 140.988 100.894 140.855C101.022 140.722 101.176 140.616 101.346 140.543C101.516 140.47 101.699 140.432 101.884 140.43C102.069 140.429 102.252 140.464 102.423 140.535C102.595 140.605 102.75 140.709 102.88 140.841C105.535 143.121 108.691 144.741 112.09 145.571C119.38 147.301 126.45 144.691 133.09 137.831C133.351 137.596 133.691 137.469 134.042 137.475C134.393 137.481 134.729 137.619 134.982 137.862C135.235 138.105 135.387 138.435 135.407 138.785C135.427 139.135 135.314 139.48 135.09 139.751C130.81 144.141 124.37 148.871 116.3 148.871Z" fill="black"/>
<path d="M103.75 116.869C104.517 116.867 105.266 116.638 105.903 116.211C106.54 115.783 107.035 115.176 107.328 114.467C107.62 113.758 107.695 112.978 107.544 112.226C107.393 111.474 107.023 110.784 106.48 110.242C105.937 109.701 105.246 109.332 104.493 109.183C103.741 109.034 102.961 109.112 102.253 109.406C101.545 109.7 100.939 110.197 100.513 110.835C100.087 111.473 99.8601 112.222 99.8601 112.989C99.8628 114.019 100.274 115.006 101.003 115.734C101.732 116.461 102.72 116.869 103.75 116.869Z" fill="black"/>
<path d="M129.01 114.24C129.777 114.238 130.526 114.009 131.163 113.582C131.8 113.154 132.295 112.547 132.588 111.838C132.88 111.129 132.955 110.349 132.804 109.597C132.653 108.845 132.283 108.155 131.74 107.613C131.197 107.072 130.506 106.703 129.753 106.554C129.001 106.405 128.221 106.483 127.513 106.777C126.805 107.071 126.199 107.568 125.773 108.206C125.347 108.844 125.12 109.593 125.12 110.36C125.123 111.39 125.534 112.377 126.263 113.105C126.992 113.832 127.98 114.24 129.01 114.24Z" fill="black"/>
<path d="M33.9901 243.09C33.7346 243.093 33.484 243.02 33.2701 242.88C32.956 242.687 32.7311 242.378 32.6448 242.02C32.5586 241.662 32.618 241.284 32.8101 240.97L36.8101 234.48C37.0126 234.185 37.3202 233.979 37.6697 233.904C38.0193 233.829 38.3843 233.891 38.6899 234.076C38.9956 234.262 39.2187 234.557 39.3136 234.902C39.4084 235.246 39.3678 235.614 39.2001 235.93L35.2001 242.42C35.0708 242.624 34.8923 242.793 34.6808 242.91C34.4693 243.027 34.2318 243.089 33.9901 243.09Z" fill="black"/>
<path d="M61.4902 240.69C61.4902 240.69 68.4902 207.79 111.49 207.79C111.49 207.79 124.87 223.88 147.75 200.72C147.75 200.72 217.5 192.5 211.194 256.779L62.3738 259.499L61.4902 240.69Z" fill="black"/>
</svg>
