<svg width="266" height="108" viewBox="0 0 266 108" fill="none" xmlns="http://www.w3.org/2000/svg">
<mask id="path-1-outside-1_644_2067" maskUnits="userSpaceOnUse" x="2.76831" y="12.9004" width="261" height="53" fill="black">
<rect fill="white" x="2.76831" y="12.9004" width="261" height="53"/>
<path d="M5.12627 62.9004V16.3549H23.4899C27.0202 16.3549 30.0278 17.0292 32.5126 18.3777C34.9975 19.711 36.8914 21.5671 38.1944 23.9458C39.5126 26.3095 40.1717 29.0368 40.1717 32.1277C40.1717 35.2186 39.5051 37.9458 38.1717 40.3095C36.8384 42.6731 34.9066 44.514 32.3763 45.8322C29.8611 47.1504 26.8157 47.8095 23.2399 47.8095H11.5354V39.9231H21.649C23.5429 39.9231 25.1035 39.5974 26.3308 38.9458C27.5732 38.2792 28.4975 37.3625 29.1035 36.1958C29.7248 35.014 30.0354 33.658 30.0354 32.1277C30.0354 30.5822 29.7248 29.2337 29.1035 28.0822C28.4975 26.9155 27.5732 26.014 26.3308 25.3777C25.0884 24.7261 23.5126 24.4004 21.6035 24.4004H14.9672V62.9004H5.12627ZM46.5638 62.9004V16.3549H64.9274C68.4426 16.3549 71.4426 16.9837 73.9274 18.2413C76.4274 19.4837 78.3289 21.2489 79.6319 23.5368C80.9501 25.8095 81.6092 28.4837 81.6092 31.5595C81.6092 34.6504 80.9426 37.3095 79.6092 39.5368C78.2759 41.7489 76.3441 43.4458 73.8138 44.6277C71.2986 45.8095 68.2532 46.4004 64.6774 46.4004H52.3819V38.4913H63.0865C64.9653 38.4913 66.5259 38.2337 67.7683 37.7186C69.0107 37.2034 69.935 36.4307 70.541 35.4004C71.1623 34.3701 71.4729 33.0898 71.4729 31.5595C71.4729 30.014 71.1623 28.711 70.541 27.6504C69.935 26.5898 69.0032 25.7868 67.7456 25.2413C66.5032 24.6807 64.935 24.4004 63.041 24.4004H56.4047V62.9004H46.5638ZM71.7001 41.7186L83.2683 62.9004H72.4047L61.0865 41.7186H71.7001ZM131.336 39.6277C131.336 44.7034 130.374 49.0216 128.45 52.5822C126.541 56.1428 123.935 58.8625 120.632 60.7413C117.344 62.6049 113.647 63.5368 109.541 63.5368C105.405 63.5368 101.693 62.5974 98.4047 60.7186C95.1168 58.8398 92.5183 56.1201 90.6092 52.5595C88.7001 48.9989 87.7456 44.6883 87.7456 39.6277C87.7456 34.5519 88.7001 30.2337 90.6092 26.6731C92.5183 23.1125 95.1168 20.4004 98.4047 18.5368C101.693 16.658 105.405 15.7186 109.541 15.7186C113.647 15.7186 117.344 16.658 120.632 18.5368C123.935 20.4004 126.541 23.1125 128.45 26.6731C130.374 30.2337 131.336 34.5519 131.336 39.6277ZM121.359 39.6277C121.359 36.3398 120.867 33.5671 119.882 31.3095C118.912 29.0519 117.541 27.3398 115.768 26.1731C113.996 25.0065 111.92 24.4231 109.541 24.4231C107.162 24.4231 105.086 25.0065 103.314 26.1731C101.541 27.3398 100.162 29.0519 99.1774 31.3095C98.2077 33.5671 97.7229 36.3398 97.7229 39.6277C97.7229 42.9155 98.2077 45.6883 99.1774 47.9458C100.162 50.2034 101.541 51.9155 103.314 53.0822C105.086 54.2489 107.162 54.8322 109.541 54.8322C111.92 54.8322 113.996 54.2489 115.768 53.0822C117.541 51.9155 118.912 50.2034 119.882 47.9458C120.867 45.6883 121.359 42.9155 121.359 39.6277ZM138.626 62.9004V16.3549H169.444V24.4686H148.467V35.5595H167.399V43.6731H148.467V62.9004H138.626ZM185.905 16.3549V62.9004H176.064V16.3549H185.905ZM194.001 62.9004V16.3549H203.842V54.7868H223.797V62.9004H194.001ZM230.314 62.9004V16.3549H261.677V24.4686H240.155V35.5595H260.064V43.6731H240.155V54.7868H261.768V62.9004H230.314Z"/>
</mask>
<path d="M5.12627 62.9004H3.12627V64.9004H5.12627V62.9004ZM5.12627 16.3549V14.3549H3.12627V16.3549H5.12627ZM32.5126 18.3777L31.5587 20.1355L31.567 20.14L32.5126 18.3777ZM38.1944 23.9458L36.4404 24.9067L36.444 24.9133L36.4477 24.92L38.1944 23.9458ZM32.3763 45.8322L31.4522 44.0585L31.4479 44.0608L32.3763 45.8322ZM11.5354 47.8095H9.53536V49.8095H11.5354V47.8095ZM11.5354 39.9231V37.9231H9.53536V39.9231H11.5354ZM26.3308 38.9458L27.2686 40.7124L27.2764 40.7082L26.3308 38.9458ZM29.1035 36.1958L27.3332 35.2653L27.3287 35.2739L29.1035 36.1958ZM29.1035 28.0822L27.3287 29.0042L27.3359 29.018L27.3433 29.0318L29.1035 28.0822ZM26.3308 25.3777L25.402 27.1489L25.4105 27.1534L25.4191 27.1578L26.3308 25.3777ZM14.9672 24.4004V22.4004H12.9672V24.4004H14.9672ZM14.9672 62.9004V64.9004H16.9672V62.9004H14.9672ZM5.12627 62.9004H7.12627V16.3549H5.12627H3.12627V62.9004H5.12627ZM5.12627 16.3549V18.3549H23.4899V16.3549V14.3549H5.12627V16.3549ZM23.4899 16.3549V18.3549C26.7685 18.3549 29.4308 18.9807 31.5587 20.1355L32.5126 18.3777L33.4666 16.6198C30.6248 15.0776 27.2719 14.3549 23.4899 14.3549V16.3549ZM32.5126 18.3777L31.567 20.14C33.7247 21.2978 35.3311 22.8817 36.4404 24.9067L38.1944 23.9458L39.9485 22.985C38.4517 20.2524 36.2702 18.1242 33.4583 16.6153L32.5126 18.3777ZM38.1944 23.9458L36.4477 24.92C37.5774 26.9457 38.1717 29.3287 38.1717 32.1277H40.1717H42.1717C42.1717 28.7448 41.4478 25.6733 39.9412 22.9717L38.1944 23.9458ZM40.1717 32.1277H38.1717C38.1717 34.9228 37.5716 37.3027 36.4298 39.3268L38.1717 40.3095L39.9137 41.2921C41.4385 38.589 42.1717 35.5143 42.1717 32.1277H40.1717ZM38.1717 40.3095L36.4298 39.3268C35.2967 41.3354 33.6576 42.9096 31.4522 44.0585L32.3763 45.8322L33.3003 47.6059C36.1556 46.1185 38.38 44.0109 39.9137 41.2921L38.1717 40.3095ZM32.3763 45.8322L31.4479 44.0608C29.2839 45.1949 26.5742 45.8095 23.2399 45.8095V47.8095V49.8095C27.0571 49.8095 30.4383 49.1059 33.3047 47.6037L32.3763 45.8322ZM23.2399 47.8095V45.8095H11.5354V47.8095V49.8095H23.2399V47.8095ZM11.5354 47.8095H13.5354V39.9231H11.5354H9.53536V47.8095H11.5354ZM11.5354 39.9231V41.9231H21.649V39.9231V37.9231H11.5354V39.9231ZM21.649 39.9231V41.9231C23.7568 41.9231 25.6669 41.5627 27.2686 40.7124L26.3308 38.9458L25.393 37.1793C24.5402 37.6321 23.3291 37.9231 21.649 37.9231V39.9231ZM26.3308 38.9458L27.2764 40.7082C28.8465 39.8657 30.0731 38.6679 30.8783 37.1178L29.1035 36.1958L27.3287 35.2739C26.9219 36.0571 26.3 36.6927 25.3852 37.1835L26.3308 38.9458ZM29.1035 36.1958L30.8739 37.1264C31.6667 35.6181 32.0354 33.9344 32.0354 32.1277H30.0354H28.0354C28.0354 33.3815 27.7828 34.4099 27.3332 35.2653L29.1035 36.1958ZM30.0354 32.1277H32.0354C32.0354 30.3108 31.6686 28.6246 30.8637 27.1326L29.1035 28.0822L27.3433 29.0318C27.7809 29.8429 28.0354 30.8536 28.0354 32.1277H30.0354ZM29.1035 28.0822L30.8783 27.1602C30.0686 25.6014 28.8306 24.411 27.2426 23.5976L26.3308 25.3777L25.4191 27.1578C26.3158 27.6171 26.9264 28.2297 27.3287 29.0042L29.1035 28.0822ZM26.3308 25.3777L27.2596 23.6064C25.6462 22.7603 23.725 22.4004 21.6035 22.4004V24.4004V26.4004C23.3003 26.4004 24.5306 26.692 25.402 27.1489L26.3308 25.3777ZM21.6035 24.4004V22.4004H14.9672V24.4004V26.4004H21.6035V24.4004ZM14.9672 24.4004H12.9672V62.9004H14.9672H16.9672V24.4004H14.9672ZM14.9672 62.9004V60.9004H5.12627V62.9004V64.9004H14.9672V62.9004ZM46.5638 62.9004H44.5638V64.9004H46.5638V62.9004ZM46.5638 16.3549V14.3549H44.5638V16.3549H46.5638ZM73.9274 18.2413L73.0243 20.0258L73.0308 20.0291L73.0373 20.0323L73.9274 18.2413ZM79.6319 23.5368L77.894 24.5266L77.8979 24.5334L77.9019 24.5402L79.6319 23.5368ZM79.6092 39.5368L81.3221 40.5692L81.3252 40.564L79.6092 39.5368ZM73.8138 44.6277L72.9674 42.8156L72.9632 42.8175L73.8138 44.6277ZM52.3819 46.4004H50.3819V48.4004H52.3819V46.4004ZM52.3819 38.4913V36.4913H50.3819V38.4913H52.3819ZM67.7683 37.7186L68.5343 39.5661L68.5343 39.5661L67.7683 37.7186ZM70.541 35.4004L68.8283 34.3677L68.8227 34.377L68.8172 34.3864L70.541 35.4004ZM70.541 27.6504L68.8046 28.6427L68.8099 28.652L68.8153 28.6612L70.541 27.6504ZM67.7456 25.2413L66.923 27.0643L66.9363 27.0703L66.9498 27.0761L67.7456 25.2413ZM56.4047 24.4004V22.4004H54.4047V24.4004H56.4047ZM56.4047 62.9004V64.9004H58.4047V62.9004H56.4047ZM71.7001 41.7186L73.4554 40.7599L72.8867 39.7186H71.7001V41.7186ZM83.2683 62.9004V64.9004H86.6394L85.0236 61.9418L83.2683 62.9004ZM72.4047 62.9004L70.6407 63.8429L71.2057 64.9004H72.4047V62.9004ZM61.0865 41.7186V39.7186H57.7502L59.3225 42.6611L61.0865 41.7186ZM46.5638 62.9004H48.5638V16.3549H46.5638H44.5638V62.9004H46.5638ZM46.5638 16.3549V18.3549H64.9274V16.3549V14.3549H46.5638V16.3549ZM64.9274 16.3549V18.3549C68.209 18.3549 70.8831 18.9421 73.0243 20.0258L73.9274 18.2413L74.8305 16.4568C72.002 15.0253 68.6761 14.3549 64.9274 14.3549V16.3549ZM73.9274 18.2413L73.0373 20.0323C75.204 21.1091 76.7999 22.6054 77.894 24.5266L79.6319 23.5368L81.3698 22.547C79.858 19.8924 77.6508 17.8584 74.8175 16.4503L73.9274 18.2413ZM79.6319 23.5368L77.9019 24.5402C79.0151 26.4595 79.6092 28.7754 79.6092 31.5595H81.6092H83.6092C83.6092 28.192 82.8852 25.1594 81.362 22.5333L79.6319 23.5368ZM81.6092 31.5595H79.6092C79.6092 34.358 79.008 36.6473 77.8932 38.5095L79.6092 39.5368L81.3252 40.564C82.8771 37.9717 83.6092 34.9427 83.6092 31.5595H81.6092ZM79.6092 39.5368L77.8963 38.5043C76.7848 40.3484 75.1685 41.7875 72.9674 42.8156L73.8138 44.6277L74.6601 46.4398C77.5197 45.1042 79.767 43.1493 81.3221 40.5692L79.6092 39.5368ZM73.8138 44.6277L72.9632 42.8175C70.779 43.8438 68.0404 44.4004 64.6774 44.4004V46.4004V48.4004C68.4659 48.4004 71.8182 47.7751 74.6643 46.4378L73.8138 44.6277ZM64.6774 46.4004V44.4004H52.3819V46.4004V48.4004H64.6774V46.4004ZM52.3819 46.4004H54.3819V38.4913H52.3819H50.3819V46.4004H52.3819ZM52.3819 38.4913V40.4913H63.0865V38.4913V36.4913H52.3819V38.4913ZM63.0865 38.4913V40.4913C65.1312 40.4913 66.9732 40.2134 68.5343 39.5661L67.7683 37.7186L67.0023 35.8711C66.0786 36.2541 64.7994 36.4913 63.0865 36.4913V38.4913ZM67.7683 37.7186L68.5343 39.5661C70.1254 38.9064 71.4113 37.8656 72.2649 36.4144L70.541 35.4004L68.8172 34.3864C68.4587 34.9958 67.8961 35.5005 67.0023 35.8711L67.7683 37.7186ZM70.541 35.4004L72.2538 36.4331C73.1077 35.0169 73.4729 33.3561 73.4729 31.5595H71.4729H69.4729C69.4729 32.8235 69.2168 33.7232 68.8283 34.3677L70.541 35.4004ZM71.4729 31.5595H73.4729C73.4729 29.749 73.1083 28.0763 72.2668 26.6396L70.541 27.6504L68.8153 28.6612C69.2162 29.3457 69.4729 30.2791 69.4729 31.5595H71.4729ZM70.541 27.6504L72.2775 26.6581C71.4312 25.1771 70.1445 24.1018 68.5414 23.4065L67.7456 25.2413L66.9498 27.0761C67.8618 27.4717 68.4387 28.0025 68.8046 28.6427L70.541 27.6504ZM67.7456 25.2413L68.5682 23.4183C66.9872 22.7049 65.1152 22.4004 63.041 22.4004V24.4004V26.4004C64.7547 26.4004 66.0192 26.6565 66.923 27.0643L67.7456 25.2413ZM63.041 24.4004V22.4004H56.4047V24.4004V26.4004H63.041V24.4004ZM56.4047 24.4004H54.4047V62.9004H56.4047H58.4047V24.4004H56.4047ZM56.4047 62.9004V60.9004H46.5638V62.9004V64.9004H56.4047V62.9004ZM71.7001 41.7186L69.9448 42.6772L81.513 63.859L83.2683 62.9004L85.0236 61.9418L73.4554 40.7599L71.7001 41.7186ZM83.2683 62.9004V60.9004H72.4047V62.9004V64.9004H83.2683V62.9004ZM72.4047 62.9004L74.1686 61.9578L62.8505 40.776L61.0865 41.7186L59.3225 42.6611L70.6407 63.8429L72.4047 62.9004ZM61.0865 41.7186V43.7186H71.7001V41.7186V39.7186H61.0865V41.7186ZM128.45 52.5822L126.691 51.6313L126.688 51.6371L128.45 52.5822ZM120.632 60.7413L121.618 62.4812L121.621 62.4797L120.632 60.7413ZM98.4047 60.7186L99.397 58.9821L98.4047 60.7186ZM90.6092 52.5595L88.8466 53.5045L88.8466 53.5045L90.6092 52.5595ZM90.6092 26.6731L92.3718 27.6182L92.3718 27.6182L90.6092 26.6731ZM98.4047 18.5368L99.3909 20.2767L99.397 20.2732L98.4047 18.5368ZM120.632 18.5368L119.64 20.2733L119.649 20.2786L120.632 18.5368ZM128.45 26.6731L126.687 27.6182L126.691 27.624L128.45 26.6731ZM119.882 31.3095L118.044 32.0988L118.049 32.1092L119.882 31.3095ZM115.768 26.1731L114.669 27.8438L114.669 27.8438L115.768 26.1731ZM103.314 26.1731L104.413 27.8438L104.413 27.8438L103.314 26.1731ZM99.1774 31.3095L97.3442 30.5098L97.3397 30.5202L99.1774 31.3095ZM99.1774 47.9458L97.3397 48.7352L97.3442 48.7455L99.1774 47.9458ZM103.314 53.0822L104.413 51.4115L104.413 51.4115L103.314 53.0822ZM115.768 53.0822L114.669 51.4115L114.669 51.4115L115.768 53.0822ZM119.882 47.9458L118.049 47.1461L118.044 47.1565L119.882 47.9458ZM131.336 39.6277H129.336C129.336 44.4542 128.422 48.4279 126.691 51.6313L128.45 52.5822L130.21 53.5331C132.327 49.6153 133.336 44.9526 133.336 39.6277H131.336ZM128.45 52.5822L126.688 51.6371C124.945 54.8876 122.598 57.3223 119.643 59.0029L120.632 60.7413L121.621 62.4797C125.272 60.4027 128.137 57.398 130.213 53.5273L128.45 52.5822ZM120.632 60.7413L119.646 59.0014C116.684 60.68 113.332 61.5368 109.541 61.5368V63.5368V65.5368C113.962 65.5368 118.004 64.5299 121.618 62.4812L120.632 60.7413ZM109.541 63.5368V61.5368C105.72 61.5368 102.355 60.6725 99.397 58.9821L98.4047 60.7186L97.4124 62.4551C101.03 64.5222 105.09 65.5368 109.541 65.5368V63.5368ZM98.4047 60.7186L99.397 58.9821C96.4571 57.3022 94.1159 54.8672 92.3718 51.6144L90.6092 52.5595L88.8466 53.5045C90.9207 57.3729 93.7765 60.3774 97.4124 62.4551L98.4047 60.7186ZM90.6092 52.5595L92.3718 51.6144C90.6531 48.4088 89.7456 44.4402 89.7456 39.6277H87.7456H85.7456C85.7456 44.9363 86.7471 49.5889 88.8466 53.5045L90.6092 52.5595ZM87.7456 39.6277H89.7456C89.7456 34.7988 90.6535 30.823 92.3718 27.6182L90.6092 26.6731L88.8466 25.7281C86.7467 29.6445 85.7456 34.305 85.7456 39.6277H87.7456ZM90.6092 26.6731L92.3718 27.6182C94.1153 24.3666 96.4546 21.941 99.3909 20.2767L98.4047 18.5368L97.4184 16.7968C93.779 18.8597 90.9214 21.8585 88.8466 25.7281L90.6092 26.6731ZM98.4047 18.5368L99.397 20.2732C102.355 18.5828 105.72 17.7186 109.541 17.7186V15.7186V13.7186C105.09 13.7186 101.03 14.7331 97.4124 16.8003L98.4047 18.5368ZM109.541 15.7186V17.7186C113.329 17.7186 116.679 18.5815 119.64 20.2732L120.632 18.5368L121.624 16.8003C118.009 14.7344 113.965 13.7186 109.541 13.7186V15.7186ZM120.632 18.5368L119.649 20.2786C122.6 21.9436 124.945 24.3689 126.688 27.6182L128.45 26.6731L130.213 25.7281C128.137 21.8561 125.27 18.8572 121.615 16.7949L120.632 18.5368ZM128.45 26.6731L126.691 27.624C128.422 30.8274 129.336 34.8011 129.336 39.6277H131.336H133.336C133.336 34.3027 132.327 29.64 130.21 25.7222L128.45 26.6731ZM121.359 39.6277H123.359C123.359 36.1519 122.84 33.0889 121.715 30.5098L119.882 31.3095L118.049 32.1092C118.893 34.0452 119.359 36.5277 119.359 39.6277H121.359ZM119.882 31.3095L121.72 30.5202C120.62 27.9611 119.017 25.9167 116.868 24.5025L115.768 26.1731L114.669 27.8438C116.065 28.7629 117.204 30.1428 118.044 32.0988L119.882 31.3095ZM115.768 26.1731L116.868 24.5025C114.73 23.0956 112.262 22.4231 109.541 22.4231V24.4231V26.4231C111.578 26.4231 113.261 26.9173 114.669 27.8438L115.768 26.1731ZM109.541 24.4231V22.4231C106.82 22.4231 104.352 23.0956 102.214 24.5025L103.314 26.1731L104.413 27.8438C105.821 26.9173 107.504 26.4231 109.541 26.4231V24.4231ZM103.314 26.1731L102.214 24.5025C100.068 25.9147 98.4586 27.9553 97.3442 30.5098L99.1774 31.3095L101.011 32.1092C101.866 30.1485 103.014 28.7649 104.413 27.8438L103.314 26.1731ZM99.1774 31.3095L97.3397 30.5202C96.2333 33.0961 95.7229 36.1552 95.7229 39.6277H97.7229H99.7229C99.7229 36.5244 100.182 34.038 101.015 32.0988L99.1774 31.3095ZM97.7229 39.6277H95.7229C95.7229 43.1001 96.2333 46.1592 97.3397 48.7352L99.1774 47.9458L101.015 47.1565C100.182 45.2173 99.7229 42.7309 99.7229 39.6277H97.7229ZM99.1774 47.9458L97.3442 48.7455C98.4586 51.3 100.068 53.3406 102.214 54.7529L103.314 53.0822L104.413 51.4115C103.014 50.4905 101.866 49.1068 101.011 47.1461L99.1774 47.9458ZM103.314 53.0822L102.214 54.7529C104.352 56.1598 106.82 56.8322 109.541 56.8322V54.8322V52.8322C107.504 52.8322 105.821 52.338 104.413 51.4115L103.314 53.0822ZM109.541 54.8322V56.8322C112.262 56.8322 114.73 56.1598 116.868 54.7529L115.768 53.0822L114.669 51.4115C113.261 52.338 111.578 52.8322 109.541 52.8322V54.8322ZM115.768 53.0822L116.868 54.7529C119.017 53.3386 120.62 51.2943 121.72 48.7352L119.882 47.9458L118.044 47.1565C117.204 49.1126 116.065 50.4924 114.669 51.4115L115.768 53.0822ZM119.882 47.9458L121.715 48.7455C122.84 46.1664 123.359 43.1034 123.359 39.6277H121.359H119.359C119.359 42.7277 118.893 45.2101 118.049 47.1461L119.882 47.9458ZM138.626 62.9004H136.626V64.9004H138.626V62.9004ZM138.626 16.3549V14.3549H136.626V16.3549H138.626ZM169.444 16.3549H171.444V14.3549H169.444V16.3549ZM169.444 24.4686V26.4686H171.444V24.4686H169.444ZM148.467 24.4686V22.4686H146.467V24.4686H148.467ZM148.467 35.5595H146.467V37.5595H148.467V35.5595ZM167.399 35.5595H169.399V33.5595H167.399V35.5595ZM167.399 43.6731V45.6731H169.399V43.6731H167.399ZM148.467 43.6731V41.6731H146.467V43.6731H148.467ZM148.467 62.9004V64.9004H150.467V62.9004H148.467ZM138.626 62.9004H140.626V16.3549H138.626H136.626V62.9004H138.626ZM138.626 16.3549V18.3549H169.444V16.3549V14.3549H138.626V16.3549ZM169.444 16.3549H167.444V24.4686H169.444H171.444V16.3549H169.444ZM169.444 24.4686V22.4686H148.467V24.4686V26.4686H169.444V24.4686ZM148.467 24.4686H146.467V35.5595H148.467H150.467V24.4686H148.467ZM148.467 35.5595V37.5595H167.399V35.5595V33.5595H148.467V35.5595ZM167.399 35.5595H165.399V43.6731H167.399H169.399V35.5595H167.399ZM167.399 43.6731V41.6731H148.467V43.6731V45.6731H167.399V43.6731ZM148.467 43.6731H146.467V62.9004H148.467H150.467V43.6731H148.467ZM148.467 62.9004V60.9004H138.626V62.9004V64.9004H148.467V62.9004ZM185.905 16.3549H187.905V14.3549H185.905V16.3549ZM185.905 62.9004V64.9004H187.905V62.9004H185.905ZM176.064 62.9004H174.064V64.9004H176.064V62.9004ZM176.064 16.3549V14.3549H174.064V16.3549H176.064ZM185.905 16.3549H183.905V62.9004H185.905H187.905V16.3549H185.905ZM185.905 62.9004V60.9004H176.064V62.9004V64.9004H185.905V62.9004ZM176.064 62.9004H178.064V16.3549H176.064H174.064V62.9004H176.064ZM176.064 16.3549V18.3549H185.905V16.3549V14.3549H176.064V16.3549ZM194.001 62.9004H192.001V64.9004H194.001V62.9004ZM194.001 16.3549V14.3549H192.001V16.3549H194.001ZM203.842 16.3549H205.842V14.3549H203.842V16.3549ZM203.842 54.7868H201.842V56.7868H203.842V54.7868ZM223.797 54.7868H225.797V52.7868H223.797V54.7868ZM223.797 62.9004V64.9004H225.797V62.9004H223.797ZM194.001 62.9004H196.001V16.3549H194.001H192.001V62.9004H194.001ZM194.001 16.3549V18.3549H203.842V16.3549V14.3549H194.001V16.3549ZM203.842 16.3549H201.842V54.7868H203.842H205.842V16.3549H203.842ZM203.842 54.7868V56.7868H223.797V54.7868V52.7868H203.842V54.7868ZM223.797 54.7868H221.797V62.9004H223.797H225.797V54.7868H223.797ZM223.797 62.9004V60.9004H194.001V62.9004V64.9004H223.797V62.9004ZM230.314 62.9004H228.314V64.9004H230.314V62.9004ZM230.314 16.3549V14.3549H228.314V16.3549H230.314ZM261.677 16.3549H263.677V14.3549H261.677V16.3549ZM261.677 24.4686V26.4686H263.677V24.4686H261.677ZM240.155 24.4686V22.4686H238.155V24.4686H240.155ZM240.155 35.5595H238.155V37.5595H240.155V35.5595ZM260.064 35.5595H262.064V33.5595H260.064V35.5595ZM260.064 43.6731V45.6731H262.064V43.6731H260.064ZM240.155 43.6731V41.6731H238.155V43.6731H240.155ZM240.155 54.7868H238.155V56.7868H240.155V54.7868ZM261.768 54.7868H263.768V52.7868H261.768V54.7868ZM261.768 62.9004V64.9004H263.768V62.9004H261.768ZM230.314 62.9004H232.314V16.3549H230.314H228.314V62.9004H230.314ZM230.314 16.3549V18.3549H261.677V16.3549V14.3549H230.314V16.3549ZM261.677 16.3549H259.677V24.4686H261.677H263.677V16.3549H261.677ZM261.677 24.4686V22.4686H240.155V24.4686V26.4686H261.677V24.4686ZM240.155 24.4686H238.155V35.5595H240.155H242.155V24.4686H240.155ZM240.155 35.5595V37.5595H260.064V35.5595V33.5595H240.155V35.5595ZM260.064 35.5595H258.064V43.6731H260.064H262.064V35.5595H260.064ZM260.064 43.6731V41.6731H240.155V43.6731V45.6731H260.064V43.6731ZM240.155 43.6731H238.155V54.7868H240.155H242.155V43.6731H240.155ZM240.155 54.7868V56.7868H261.768V54.7868V52.7868H240.155V54.7868ZM261.768 54.7868H259.768V62.9004H261.768H263.768V54.7868H261.768ZM261.768 62.9004V60.9004H230.314V62.9004V64.9004H261.768V62.9004Z" fill="white" mask="url(#path-1-outside-1_644_2067)"/>
<path d="M77.5483 86.9404H89.5683V104.5H87.2883V89.0204H79.7483V104.68H77.5483V86.9404ZM80.2683 91.4604H86.8483V93.2004H80.2683V91.4604ZM78.6883 101.42H88.3883V103.5H78.6883V101.42ZM82.5483 89.4204H84.4083V95.8604H82.5483V89.4204ZM82.5083 96.6004V98.7004H84.5283V96.6004H82.5083ZM80.7683 94.9404H86.3483V100.34H80.7683V94.9404ZM75.0883 85.9604L77.2683 86.6404C76.895 87.7871 76.435 88.9471 75.8883 90.1204C75.355 91.2804 74.7683 92.3804 74.1283 93.4204C73.4883 94.4471 72.815 95.3604 72.1083 96.1604C72.055 95.9604 71.9616 95.6937 71.8283 95.3604C71.695 95.0271 71.5483 94.6937 71.3883 94.3604C71.2283 94.0271 71.0883 93.7537 70.9683 93.5404C71.5283 92.9271 72.0616 92.2137 72.5683 91.4004C73.0883 90.5871 73.5616 89.7204 73.9883 88.8004C74.415 87.8671 74.7816 86.9204 75.0883 85.9604ZM73.4483 91.4604L75.7083 89.2004L75.7283 89.2204V104.72H73.4483V91.4604ZM114.088 86.3804H116.848C116.822 86.9404 116.775 87.6604 116.708 88.5404C116.642 89.4204 116.515 90.4004 116.328 91.4804C116.155 92.5471 115.888 93.6671 115.528 94.8404C115.168 96.0137 114.675 97.1871 114.048 98.3604C113.435 99.5204 112.648 100.634 111.688 101.7C110.742 102.754 109.588 103.694 108.228 104.52C108.015 104.214 107.722 103.887 107.348 103.54C106.988 103.194 106.608 102.88 106.208 102.6C107.542 101.854 108.662 101 109.568 100.04C110.475 99.0804 111.215 98.0737 111.788 97.0204C112.362 95.9537 112.802 94.8871 113.108 93.8204C113.415 92.7404 113.635 91.7204 113.768 90.7604C113.902 89.8004 113.982 88.9404 114.008 88.1804C114.035 87.4204 114.062 86.8204 114.088 86.3804ZM116.748 86.9204C116.762 87.1737 116.788 87.5737 116.828 88.1204C116.868 88.6671 116.948 89.3204 117.068 90.0804C117.188 90.8404 117.368 91.6671 117.608 92.5604C117.862 93.4404 118.195 94.3471 118.608 95.2804C119.022 96.2137 119.535 97.1271 120.148 98.0204C120.762 98.9137 121.502 99.7404 122.368 100.5C123.248 101.26 124.275 101.92 125.448 102.48C125.062 102.76 124.702 103.087 124.368 103.46C124.048 103.834 123.788 104.187 123.588 104.52C122.362 103.907 121.288 103.18 120.368 102.34C119.462 101.487 118.682 100.567 118.028 99.5804C117.388 98.5804 116.855 97.5671 116.428 96.5404C116.002 95.5137 115.655 94.5071 115.388 93.5204C115.135 92.5204 114.942 91.5937 114.808 90.7404C114.675 89.8871 114.582 89.1471 114.528 88.5204C114.488 87.8937 114.455 87.4404 114.428 87.1604L116.748 86.9204ZM142.768 91.1404H144.928V104.68H142.768V91.1404ZM146.968 97.3004H149.128V103.62H146.968V97.3004ZM147.928 97.3004H154.568V102.94H147.928V101.6H152.448V98.6204H147.928V97.3004ZM143.928 91.1404H150.268V96.5404H143.928V95.1604H148.108V92.5204H143.928V91.1404ZM143.948 93.1804H148.708V94.4804H143.948V93.1804ZM147.948 99.4604H153.428V100.76H147.948V99.4604ZM152.748 93.1804H157.648V94.4804H152.748V93.1804ZM157.388 91.1404V92.5204H153.588V95.1604H157.388V96.5404H151.428V91.1404H157.388ZM156.848 91.1404H159.088V102.28C159.088 102.827 159.015 103.26 158.868 103.58C158.735 103.9 158.495 104.14 158.148 104.3C157.775 104.487 157.322 104.6 156.788 104.64C156.268 104.68 155.628 104.694 154.868 104.68C154.842 104.374 154.762 104.014 154.628 103.6C154.495 103.2 154.355 102.86 154.208 102.58C154.662 102.607 155.108 102.62 155.548 102.62C156.002 102.62 156.302 102.62 156.448 102.62C156.715 102.62 156.848 102.5 156.848 102.26V91.1404ZM144.168 87.3204H150.488V89.1404H144.168V87.3204ZM152.228 87.3204H159.908V89.1404H152.228V87.3204ZM144.268 85.7404L146.488 86.3604C146.102 87.2404 145.608 88.1004 145.008 88.9404C144.422 89.7804 143.835 90.4871 143.248 91.0604C143.102 90.9271 142.908 90.7804 142.668 90.6204C142.428 90.4604 142.188 90.3004 141.948 90.1404C141.708 89.9804 141.488 89.8537 141.288 89.7604C141.915 89.2671 142.488 88.6671 143.008 87.9604C143.542 87.2404 143.962 86.5004 144.268 85.7404ZM152.428 85.7404L154.708 86.3004C154.335 87.1937 153.855 88.0471 153.268 88.8604C152.682 89.6604 152.088 90.3271 151.488 90.8604C151.328 90.7404 151.115 90.6137 150.848 90.4804C150.595 90.3337 150.335 90.1937 150.068 90.0604C149.802 89.9137 149.568 89.8004 149.368 89.7204C150.022 89.2537 150.615 88.6671 151.148 87.9604C151.695 87.2404 152.122 86.5004 152.428 85.7404ZM144.928 88.8404L146.908 88.3004C147.135 88.6204 147.362 88.9804 147.588 89.3804C147.815 89.7804 147.988 90.1337 148.108 90.4404L146.008 91.0204C145.915 90.7271 145.768 90.3737 145.568 89.9604C145.368 89.5471 145.155 89.1737 144.928 88.8404ZM153.868 88.8204L155.908 88.2804C156.188 88.6004 156.475 88.9671 156.768 89.3804C157.062 89.7804 157.282 90.1404 157.428 90.4604L155.288 91.0404C155.168 90.7471 154.975 90.3937 154.708 89.9804C154.442 89.5537 154.162 89.1671 153.868 88.8204ZM185.688 88.3204C185.182 89.1604 184.515 90.0137 183.688 90.8804C182.862 91.7471 181.935 92.5737 180.908 93.3604C179.895 94.1337 178.828 94.8137 177.708 95.4004C177.615 95.2004 177.482 94.9804 177.308 94.7404C177.135 94.5004 176.955 94.2604 176.768 94.0204C176.582 93.7804 176.402 93.5804 176.228 93.4204C177.415 92.8471 178.528 92.1404 179.568 91.3004C180.622 90.4604 181.555 89.5671 182.368 88.6204C183.182 87.6604 183.822 86.7404 184.288 85.8604H186.868C187.388 86.7004 187.968 87.4937 188.608 88.2404C189.262 88.9871 189.948 89.6737 190.668 90.3004C191.402 90.9137 192.168 91.4604 192.968 91.9404C193.768 92.4204 194.575 92.8204 195.388 93.1404C195.082 93.4471 194.795 93.8004 194.528 94.2004C194.262 94.5871 194.022 94.9671 193.808 95.3404C192.742 94.7937 191.688 94.1404 190.648 93.3804C189.608 92.6204 188.655 91.8071 187.788 90.9404C186.935 90.0604 186.235 89.1871 185.688 88.3204ZM187.908 93.2404H190.408V104.68H187.908V93.2404ZM181.008 93.3404H183.488V95.8204C183.488 96.5271 183.442 97.2737 183.348 98.0604C183.268 98.8337 183.082 99.6137 182.788 100.4C182.508 101.187 182.075 101.947 181.488 102.68C180.915 103.414 180.135 104.087 179.148 104.7C179.002 104.527 178.808 104.327 178.568 104.1C178.342 103.887 178.102 103.674 177.848 103.46C177.595 103.26 177.362 103.1 177.148 102.98C178.015 102.46 178.708 101.9 179.228 101.3C179.748 100.7 180.135 100.087 180.388 99.4604C180.642 98.8204 180.808 98.1871 180.888 97.5604C180.968 96.9337 181.008 96.3337 181.008 95.7604V93.3404Z" fill="white"/>
</svg>
