<svg width="265" height="107" viewBox="0 0 265 107" fill="none" xmlns="http://www.w3.org/2000/svg">
<mask id="path-1-outside-1_132_3874" maskUnits="userSpaceOnUse" x="2" y="12" width="261" height="53" fill="black">
<rect fill="white" x="2" y="12" width="261" height="53"/>
<path d="M4.35795 62V15.4545H22.7216C26.2519 15.4545 29.2595 16.1288 31.7443 17.4773C34.2292 18.8106 36.1231 20.6667 37.4261 23.0455C38.7443 25.4091 39.4034 28.1364 39.4034 31.2273C39.4034 34.3182 38.7367 37.0455 37.4034 39.4091C36.0701 41.7727 34.1383 43.6136 31.608 44.9318C29.0928 46.25 26.0473 46.9091 22.4716 46.9091H10.767V39.0227H20.8807C22.7746 39.0227 24.3352 38.697 25.5625 38.0455C26.8049 37.3788 27.7292 36.4621 28.3352 35.2955C28.9564 34.1136 29.267 32.7576 29.267 31.2273C29.267 29.6818 28.9564 28.3333 28.3352 27.1818C27.7292 26.0151 26.8049 25.1136 25.5625 24.4773C24.3201 23.8258 22.7443 23.5 20.8352 23.5H14.1989V62H4.35795ZM45.7955 62V15.4545H64.1591C67.6742 15.4545 70.6742 16.0833 73.1591 17.3409C75.6591 18.5833 77.5606 20.3485 78.8636 22.6364C80.1818 24.9091 80.8409 27.5833 80.8409 30.6591C80.8409 33.75 80.1742 36.4091 78.8409 38.6364C77.5076 40.8485 75.5758 42.5455 73.0455 43.7273C70.5303 44.9091 67.4848 45.5 63.9091 45.5H51.6136V37.5909H62.3182C64.197 37.5909 65.7576 37.3333 67 36.8182C68.2424 36.303 69.1667 35.5303 69.7727 34.5C70.3939 33.4697 70.7045 32.1894 70.7045 30.6591C70.7045 29.1136 70.3939 27.8106 69.7727 26.75C69.1667 25.6894 68.2348 24.8864 66.9773 24.3409C65.7348 23.7803 64.1667 23.5 62.2727 23.5H55.6364V62H45.7955ZM70.9318 40.8182L82.5 62H71.6364L60.3182 40.8182H70.9318ZM130.568 38.7273C130.568 43.803 129.606 48.1212 127.682 51.6818C125.773 55.2424 123.167 57.9621 119.864 59.8409C116.576 61.7045 112.879 62.6364 108.773 62.6364C104.636 62.6364 100.924 61.697 97.6364 59.8182C94.3485 57.9394 91.75 55.2197 89.8409 51.6591C87.9318 48.0985 86.9773 43.7879 86.9773 38.7273C86.9773 33.6515 87.9318 29.3333 89.8409 25.7727C91.75 22.2121 94.3485 19.5 97.6364 17.6364C100.924 15.7576 104.636 14.8182 108.773 14.8182C112.879 14.8182 116.576 15.7576 119.864 17.6364C123.167 19.5 125.773 22.2121 127.682 25.7727C129.606 29.3333 130.568 33.6515 130.568 38.7273ZM120.591 38.7273C120.591 35.4394 120.098 32.6667 119.114 30.4091C118.144 28.1515 116.773 26.4394 115 25.2727C113.227 24.1061 111.152 23.5227 108.773 23.5227C106.394 23.5227 104.318 24.1061 102.545 25.2727C100.773 26.4394 99.3939 28.1515 98.4091 30.4091C97.4394 32.6667 96.9545 35.4394 96.9545 38.7273C96.9545 42.0152 97.4394 44.7879 98.4091 47.0455C99.3939 49.303 100.773 51.0152 102.545 52.1818C104.318 53.3485 106.394 53.9318 108.773 53.9318C111.152 53.9318 113.227 53.3485 115 52.1818C116.773 51.0152 118.144 49.303 119.114 47.0455C120.098 44.7879 120.591 42.0152 120.591 38.7273ZM137.858 62V15.4545H168.676V23.5682H147.699V34.6591H166.631V42.7727H147.699V62H137.858ZM185.136 15.4545V62H175.295V15.4545H185.136ZM193.233 62V15.4545H203.074V53.8864H223.028V62H193.233ZM229.545 62V15.4545H260.909V23.5682H239.386V34.6591H259.295V42.7727H239.386V53.8864H261V62H229.545Z"/>
</mask>
<path d="M4.35795 62H2.35795V64H4.35795V62ZM4.35795 15.4545V13.4545H2.35795V15.4545H4.35795ZM31.7443 17.4773L30.7904 19.2351L30.7987 19.2396L31.7443 17.4773ZM37.4261 23.0455L35.6721 24.0063L35.6757 24.013L35.6794 24.0196L37.4261 23.0455ZM31.608 44.9318L30.6839 43.1581L30.6795 43.1604L31.608 44.9318ZM10.767 46.9091H8.76705V48.9091H10.767V46.9091ZM10.767 39.0227V37.0227H8.76705V39.0227H10.767ZM25.5625 38.0455L26.5003 39.812L26.5081 39.8078L25.5625 38.0455ZM28.3352 35.2955L26.5649 34.3649L26.5604 34.3735L28.3352 35.2955ZM28.3352 27.1818L26.5604 28.1038L26.5676 28.1177L26.575 28.1314L28.3352 27.1818ZM25.5625 24.4773L24.6337 26.2485L24.6422 26.253L24.6507 26.2574L25.5625 24.4773ZM14.1989 23.5V21.5H12.1989V23.5H14.1989ZM14.1989 62V64H16.1989V62H14.1989ZM4.35795 62H6.35795V15.4545H4.35795H2.35795V62H4.35795ZM4.35795 15.4545V17.4545H22.7216V15.4545V13.4545H4.35795V15.4545ZM22.7216 15.4545V17.4545C26.0002 17.4545 28.6625 18.0803 30.7904 19.2351L31.7443 17.4773L32.6983 15.7194C29.8565 14.1772 26.5036 13.4545 22.7216 13.4545V15.4545ZM31.7443 17.4773L30.7987 19.2396C32.9564 20.3974 34.5628 21.9813 35.6721 24.0063L37.4261 23.0455L39.1802 22.0846C37.6834 19.352 35.5019 17.2238 32.69 15.715L31.7443 17.4773ZM37.4261 23.0455L35.6794 24.0196C36.8091 26.0453 37.4034 28.4283 37.4034 31.2273H39.4034H41.4034C41.4034 27.8445 40.6795 24.7729 39.1729 22.0713L37.4261 23.0455ZM39.4034 31.2273H37.4034C37.4034 34.0224 36.8033 36.4023 35.6615 38.4264L37.4034 39.4091L39.1454 40.3917C40.6702 37.6886 41.4034 34.6139 41.4034 31.2273H39.4034ZM37.4034 39.4091L35.6615 38.4264C34.5284 40.435 32.8893 42.0092 30.6839 43.1581L31.608 44.9318L32.532 46.7056C35.3872 45.2181 37.6117 43.1105 39.1454 40.3917L37.4034 39.4091ZM31.608 44.9318L30.6795 43.1604C28.5156 44.2945 25.8059 44.9091 22.4716 44.9091V46.9091V48.9091C26.2888 48.9091 29.67 48.2055 32.5364 46.7033L31.608 44.9318ZM22.4716 46.9091V44.9091H10.767V46.9091V48.9091H22.4716V46.9091ZM10.767 46.9091H12.767V39.0227H10.767H8.76705V46.9091H10.767ZM10.767 39.0227V41.0227H20.8807V39.0227V37.0227H10.767V39.0227ZM20.8807 39.0227V41.0227C22.9885 41.0227 24.8985 40.6623 26.5003 39.812L25.5625 38.0455L24.6247 36.2789C23.7719 36.7317 22.5608 37.0227 20.8807 37.0227V39.0227ZM25.5625 38.0455L26.5081 39.8078C28.0782 38.9653 29.3048 37.7676 30.11 36.2174L28.3352 35.2955L26.5604 34.3735C26.1536 35.1567 25.5317 35.7923 24.6169 36.2831L25.5625 38.0455ZM28.3352 35.2955L30.1056 36.226C30.8984 34.7177 31.267 33.0341 31.267 31.2273H29.267H27.267C27.267 32.4811 27.0145 33.5095 26.5649 34.3649L28.3352 35.2955ZM29.267 31.2273H31.267C31.267 29.4104 30.9003 27.7242 30.0954 26.2322L28.3352 27.1818L26.575 28.1314C27.0126 28.9425 27.267 29.9532 27.267 31.2273H29.267ZM28.3352 27.1818L30.11 26.2598C29.3003 24.701 28.0623 23.5106 26.4743 22.6972L25.5625 24.4773L24.6507 26.2574C25.5475 26.7167 26.1581 27.3293 26.5604 28.1038L28.3352 27.1818ZM25.5625 24.4773L26.4913 22.706C24.8778 21.8599 22.9567 21.5 20.8352 21.5V23.5V25.5C22.532 25.5 23.7623 25.7916 24.6337 26.2485L25.5625 24.4773ZM20.8352 23.5V21.5H14.1989V23.5V25.5H20.8352V23.5ZM14.1989 23.5H12.1989V62H14.1989H16.1989V23.5H14.1989ZM14.1989 62V60H4.35795V62V64H14.1989V62ZM45.7955 62H43.7955V64H45.7955V62ZM45.7955 15.4545V13.4545H43.7955V15.4545H45.7955ZM73.1591 17.3409L72.256 19.1254L72.2625 19.1287L72.269 19.1319L73.1591 17.3409ZM78.8636 22.6364L77.1257 23.6262L77.1296 23.633L77.1336 23.6398L78.8636 22.6364ZM78.8409 38.6364L80.5538 39.6688L80.5569 39.6636L78.8409 38.6364ZM73.0455 43.7273L72.1991 41.9152L72.1949 41.9171L73.0455 43.7273ZM51.6136 45.5H49.6136V47.5H51.6136V45.5ZM51.6136 37.5909V35.5909H49.6136V37.5909H51.6136ZM67 36.8182L67.766 38.6657V38.6657L67 36.8182ZM69.7727 34.5L68.06 33.4673L68.0544 33.4766L68.0489 33.486L69.7727 34.5ZM69.7727 26.75L68.0362 27.7423L68.0415 27.7516L68.047 27.7608L69.7727 26.75ZM66.9773 24.3409L66.1547 26.1639L66.168 26.1699L66.1814 26.1758L66.9773 24.3409ZM55.6364 23.5V21.5H53.6364V23.5H55.6364ZM55.6364 62V64H57.6364V62H55.6364ZM70.9318 40.8182L72.6871 39.8596L72.1184 38.8182H70.9318V40.8182ZM82.5 62V64H85.8711L84.2553 61.0414L82.5 62ZM71.6364 62L69.8724 62.9426L70.4374 64H71.6364V62ZM60.3182 40.8182V38.8182H56.9819L58.5542 41.7607L60.3182 40.8182ZM45.7955 62H47.7955V15.4545H45.7955H43.7955V62H45.7955ZM45.7955 15.4545V17.4545H64.1591V15.4545V13.4545H45.7955V15.4545ZM64.1591 15.4545V17.4545C67.4407 17.4545 70.1148 18.0417 72.256 19.1254L73.1591 17.3409L74.0622 15.5564C71.2337 14.1249 67.9078 13.4545 64.1591 13.4545V15.4545ZM73.1591 17.3409L72.269 19.1319C74.4357 20.2087 76.0315 21.705 77.1257 23.6262L78.8636 22.6364L80.6015 21.6466C79.0897 18.992 76.8825 16.958 74.0492 15.5499L73.1591 17.3409ZM78.8636 22.6364L77.1336 23.6398C78.2468 25.5591 78.8409 27.8751 78.8409 30.6591H80.8409H82.8409C82.8409 27.2916 82.1168 24.259 80.5937 21.6329L78.8636 22.6364ZM80.8409 30.6591H78.8409C78.8409 33.4576 78.2397 35.7469 77.1249 37.6091L78.8409 38.6364L80.5569 39.6636C82.1088 37.0713 82.8409 34.0424 82.8409 30.6591H80.8409ZM78.8409 38.6364L77.128 37.6039C76.0165 39.4481 74.4002 40.8871 72.1991 41.9152L73.0455 43.7273L73.8918 45.5394C76.7514 44.2038 78.9987 42.2489 80.5538 39.6688L78.8409 38.6364ZM73.0455 43.7273L72.1949 41.9171C70.0107 42.9434 67.2721 43.5 63.9091 43.5V45.5V47.5C67.6976 47.5 71.0499 46.8747 73.896 45.5374L73.0455 43.7273ZM63.9091 45.5V43.5H51.6136V45.5V47.5H63.9091V45.5ZM51.6136 45.5H53.6136V37.5909H51.6136H49.6136V45.5H51.6136ZM51.6136 37.5909V39.5909H62.3182V37.5909V35.5909H51.6136V37.5909ZM62.3182 37.5909V39.5909C64.3629 39.5909 66.2049 39.313 67.766 38.6657L67 36.8182L66.234 34.9707C65.3103 35.3537 64.0311 35.5909 62.3182 35.5909V37.5909ZM67 36.8182L67.766 38.6657C69.3571 38.006 70.643 36.9652 71.4966 35.514L69.7727 34.5L68.0489 33.486C67.6904 34.0954 67.1278 34.6001 66.234 34.9707L67 36.8182ZM69.7727 34.5L71.4855 35.5327C72.3393 34.1165 72.7045 32.4557 72.7045 30.6591H70.7045H68.7045C68.7045 31.9231 68.4485 32.8228 68.06 33.4673L69.7727 34.5ZM70.7045 30.6591H72.7045C72.7045 28.8486 72.34 27.1759 71.4985 25.7392L69.7727 26.75L68.047 27.7608C68.4479 28.4453 68.7045 29.3787 68.7045 30.6591H70.7045ZM69.7727 26.75L71.5092 25.7577C70.6629 24.2767 69.3762 23.2014 67.7731 22.5061L66.9773 24.3409L66.1814 26.1758C67.0935 26.5713 67.6704 27.1021 68.0362 27.7423L69.7727 26.75ZM66.9773 24.3409L67.7999 22.5179C66.2188 21.8045 64.3469 21.5 62.2727 21.5V23.5V25.5C63.9864 25.5 65.2509 25.7561 66.1547 26.1639L66.9773 24.3409ZM62.2727 23.5V21.5H55.6364V23.5V25.5H62.2727V23.5ZM55.6364 23.5H53.6364V62H55.6364H57.6364V23.5H55.6364ZM55.6364 62V60H45.7955V62V64H55.6364V62ZM70.9318 40.8182L69.1765 41.7768L80.7447 62.9586L82.5 62L84.2553 61.0414L72.6871 39.8596L70.9318 40.8182ZM82.5 62V60H71.6364V62V64H82.5V62ZM71.6364 62L73.4003 61.0574L62.0822 39.8756L60.3182 40.8182L58.5542 41.7607L69.8724 62.9426L71.6364 62ZM60.3182 40.8182V42.8182H70.9318V40.8182V38.8182H60.3182V40.8182ZM127.682 51.6818L125.922 50.7309L125.919 50.7368L127.682 51.6818ZM119.864 59.8409L120.85 61.5808L120.852 61.5794L119.864 59.8409ZM97.6364 59.8182L98.6286 58.0817L97.6364 59.8182ZM89.8409 51.6591L88.0783 52.6042L89.8409 51.6591ZM89.8409 25.7727L91.6035 26.7178L91.6035 26.7178L89.8409 25.7727ZM97.6364 17.6364L98.6226 19.3763L98.6286 19.3729L97.6364 17.6364ZM119.864 17.6364L118.871 19.3729L118.881 19.3782L119.864 17.6364ZM127.682 25.7727L125.919 26.7178L125.922 26.7236L127.682 25.7727ZM119.114 30.4091L117.276 31.1984L117.28 31.2088L119.114 30.4091ZM115 25.2727L113.901 26.9434L115 25.2727ZM102.545 25.2727L103.645 26.9434L102.545 25.2727ZM98.4091 30.4091L96.5759 29.6094L96.5714 29.6198L98.4091 30.4091ZM98.4091 47.0455L96.5714 47.8348L96.5759 47.8452L98.4091 47.0455ZM102.545 52.1818L103.645 50.5112L102.545 52.1818ZM115 52.1818L113.901 50.5112L115 52.1818ZM119.114 47.0455L117.28 46.2457L117.276 46.2561L119.114 47.0455ZM130.568 38.7273H128.568C128.568 43.5538 127.654 47.5275 125.922 50.7309L127.682 51.6818L129.441 52.6327C131.559 48.7149 132.568 44.0522 132.568 38.7273H130.568ZM127.682 51.6818L125.919 50.7368C124.176 53.9872 121.829 56.4219 118.875 58.1025L119.864 59.8409L120.852 61.5794C124.504 59.5023 127.369 56.4976 129.444 52.6269L127.682 51.6818ZM119.864 59.8409L118.877 58.101C115.916 59.7796 112.564 60.6364 108.773 60.6364V62.6364V64.6364C113.194 64.6364 117.236 63.6295 120.85 61.5808L119.864 59.8409ZM108.773 62.6364V60.6364C104.951 60.6364 101.587 59.7721 98.6286 58.0817L97.6364 59.8182L96.6441 61.5547C100.262 63.6218 104.321 64.6364 108.773 64.6364V62.6364ZM97.6364 59.8182L98.6286 58.0817C95.6888 56.4018 93.3476 53.9668 91.6035 50.714L89.8409 51.6591L88.0783 52.6042C90.1524 56.4725 93.0082 59.477 96.6441 61.5547L97.6364 59.8182ZM89.8409 51.6591L91.6035 50.714C89.8848 47.5084 88.9773 43.5399 88.9773 38.7273H86.9773H84.9773C84.9773 44.0359 85.9788 48.6885 88.0783 52.6042L89.8409 51.6591ZM86.9773 38.7273H88.9773C88.9773 33.8984 89.8852 29.9226 91.6035 26.7178L89.8409 25.7727L88.0783 24.8277C85.9784 28.7441 84.9773 33.4046 84.9773 38.7273H86.9773ZM89.8409 25.7727L91.6035 26.7178C93.347 23.4662 95.6863 21.0406 98.6226 19.3763L97.6364 17.6364L96.6501 15.8964C93.0107 17.9594 90.153 20.9581 88.0783 24.8277L89.8409 25.7727ZM97.6364 17.6364L98.6286 19.3729C101.587 17.6824 104.951 16.8182 108.773 16.8182V14.8182V12.8182C104.321 12.8182 100.262 13.8327 96.6441 15.8999L97.6364 17.6364ZM108.773 14.8182V16.8182C112.561 16.8182 115.911 17.6811 118.871 19.3729L119.864 17.6364L120.856 15.8999C117.241 13.834 113.197 12.8182 108.773 12.8182V14.8182ZM119.864 17.6364L118.881 19.3782C121.832 21.0432 124.177 23.4685 125.919 26.7178L127.682 25.7727L129.444 24.8277C127.368 20.9557 124.502 17.9568 120.846 15.8945L119.864 17.6364ZM127.682 25.7727L125.922 26.7236C127.654 29.927 128.568 33.9007 128.568 38.7273H130.568H132.568C132.568 33.4023 131.559 28.7396 129.441 24.8218L127.682 25.7727ZM120.591 38.7273H122.591C122.591 35.2515 122.072 32.1885 120.947 29.6094L119.114 30.4091L117.28 31.2088C118.125 33.1448 118.591 35.6273 118.591 38.7273H120.591ZM119.114 30.4091L120.951 29.6198C119.852 27.0607 118.248 25.0163 116.099 23.6021L115 25.2727L113.901 26.9434C115.297 27.8625 116.436 29.2424 117.276 31.1984L119.114 30.4091ZM115 25.2727L116.099 23.6021C113.962 22.1952 111.493 21.5227 108.773 21.5227V23.5227V25.5227C110.81 25.5227 112.493 26.017 113.901 26.9434L115 25.2727ZM108.773 23.5227V21.5227C106.052 21.5227 103.584 22.1952 101.446 23.6021L102.545 25.2727L103.645 26.9434C105.053 26.017 106.736 25.5227 108.773 25.5227V23.5227ZM102.545 25.2727L101.446 23.6021C99.3001 25.0143 97.6903 27.0549 96.5759 29.6094L98.4091 30.4091L100.242 31.2088C101.098 29.2481 102.245 27.8645 103.645 26.9434L102.545 25.2727ZM98.4091 30.4091L96.5714 29.6198C95.465 32.1957 94.9545 35.2548 94.9545 38.7273H96.9545H98.9545C98.9545 35.624 99.4138 33.1376 100.247 31.1984L98.4091 30.4091ZM96.9545 38.7273H94.9545C94.9545 42.1997 95.465 45.2588 96.5714 47.8348L98.4091 47.0455L100.247 46.2561C99.4138 44.3169 98.9545 41.8306 98.9545 38.7273H96.9545ZM98.4091 47.0455L96.5759 47.8452C97.6903 50.3996 99.3001 52.4402 101.446 53.8525L102.545 52.1818L103.645 50.5112C102.245 49.5901 101.098 48.2064 100.242 46.2458L98.4091 47.0455ZM102.545 52.1818L101.446 53.8525C103.584 55.2594 106.052 55.9318 108.773 55.9318V53.9318V51.9318C106.736 51.9318 105.053 51.4376 103.645 50.5112L102.545 52.1818ZM108.773 53.9318V55.9318C111.493 55.9318 113.962 55.2594 116.099 53.8525L115 52.1818L113.901 50.5112C112.493 51.4376 110.81 51.9318 108.773 51.9318V53.9318ZM115 52.1818L116.099 53.8525C118.248 52.4383 119.852 50.3939 120.951 47.8348L119.114 47.0455L117.276 46.2561C116.436 48.2122 115.297 49.592 113.901 50.5112L115 52.1818ZM119.114 47.0455L120.947 47.8452C122.072 45.266 122.591 42.203 122.591 38.7273H120.591H118.591C118.591 41.8273 118.125 44.3097 117.28 46.2458L119.114 47.0455ZM137.858 62H135.858V64H137.858V62ZM137.858 15.4545V13.4545H135.858V15.4545H137.858ZM168.676 15.4545H170.676V13.4545H168.676V15.4545ZM168.676 23.5682V25.5682H170.676V23.5682H168.676ZM147.699 23.5682V21.5682H145.699V23.5682H147.699ZM147.699 34.6591H145.699V36.6591H147.699V34.6591ZM166.631 34.6591H168.631V32.6591H166.631V34.6591ZM166.631 42.7727V44.7727H168.631V42.7727H166.631ZM147.699 42.7727V40.7727H145.699V42.7727H147.699ZM147.699 62V64H149.699V62H147.699ZM137.858 62H139.858V15.4545H137.858H135.858V62H137.858ZM137.858 15.4545V17.4545H168.676V15.4545V13.4545H137.858V15.4545ZM168.676 15.4545H166.676V23.5682H168.676H170.676V15.4545H168.676ZM168.676 23.5682V21.5682H147.699V23.5682V25.5682H168.676V23.5682ZM147.699 23.5682H145.699V34.6591H147.699H149.699V23.5682H147.699ZM147.699 34.6591V36.6591H166.631V34.6591V32.6591H147.699V34.6591ZM166.631 34.6591H164.631V42.7727H166.631H168.631V34.6591H166.631ZM166.631 42.7727V40.7727H147.699V42.7727V44.7727H166.631V42.7727ZM147.699 42.7727H145.699V62H147.699H149.699V42.7727H147.699ZM147.699 62V60H137.858V62V64H147.699V62ZM185.136 15.4545H187.136V13.4545H185.136V15.4545ZM185.136 62V64H187.136V62H185.136ZM175.295 62H173.295V64H175.295V62ZM175.295 15.4545V13.4545H173.295V15.4545H175.295ZM185.136 15.4545H183.136V62H185.136H187.136V15.4545H185.136ZM185.136 62V60H175.295V62V64H185.136V62ZM175.295 62H177.295V15.4545H175.295H173.295V62H175.295ZM175.295 15.4545V17.4545H185.136V15.4545V13.4545H175.295V15.4545ZM193.233 62H191.233V64H193.233V62ZM193.233 15.4545V13.4545H191.233V15.4545H193.233ZM203.074 15.4545H205.074V13.4545H203.074V15.4545ZM203.074 53.8864H201.074V55.8864H203.074V53.8864ZM223.028 53.8864H225.028V51.8864H223.028V53.8864ZM223.028 62V64H225.028V62H223.028ZM193.233 62H195.233V15.4545H193.233H191.233V62H193.233ZM193.233 15.4545V17.4545H203.074V15.4545V13.4545H193.233V15.4545ZM203.074 15.4545H201.074V53.8864H203.074H205.074V15.4545H203.074ZM203.074 53.8864V55.8864H223.028V53.8864V51.8864H203.074V53.8864ZM223.028 53.8864H221.028V62H223.028H225.028V53.8864H223.028ZM223.028 62V60H193.233V62V64H223.028V62ZM229.545 62H227.545V64H229.545V62ZM229.545 15.4545V13.4545H227.545V15.4545H229.545ZM260.909 15.4545H262.909V13.4545H260.909V15.4545ZM260.909 23.5682V25.5682H262.909V23.5682H260.909ZM239.386 23.5682V21.5682H237.386V23.5682H239.386ZM239.386 34.6591H237.386V36.6591H239.386V34.6591ZM259.295 34.6591H261.295V32.6591H259.295V34.6591ZM259.295 42.7727V44.7727H261.295V42.7727H259.295ZM239.386 42.7727V40.7727H237.386V42.7727H239.386ZM239.386 53.8864H237.386V55.8864H239.386V53.8864ZM261 53.8864H263V51.8864H261V53.8864ZM261 62V64H263V62H261ZM229.545 62H231.545V15.4545H229.545H227.545V62H229.545ZM229.545 15.4545V17.4545H260.909V15.4545V13.4545H229.545V15.4545ZM260.909 15.4545H258.909V23.5682H260.909H262.909V15.4545H260.909ZM260.909 23.5682V21.5682H239.386V23.5682V25.5682H260.909V23.5682ZM239.386 23.5682H237.386V34.6591H239.386H241.386V23.5682H239.386ZM239.386 34.6591V36.6591H259.295V34.6591V32.6591H239.386V34.6591ZM259.295 34.6591H257.295V42.7727H259.295H261.295V34.6591H259.295ZM259.295 42.7727V40.7727H239.386V42.7727V44.7727H259.295V42.7727ZM239.386 42.7727H237.386V53.8864H239.386H241.386V42.7727H239.386ZM239.386 53.8864V55.8864H261V53.8864V51.8864H239.386V53.8864ZM261 53.8864H259V62H261H263V53.8864H261ZM261 62V60H229.545V62V64H261V62Z" fill="black" mask="url(#path-1-outside-1_132_3874)"/>
<path d="M76.78 86.04H88.8V103.6H86.52V88.12H78.98V103.78H76.78V86.04ZM79.5 90.56H86.08V92.3H79.5V90.56ZM77.92 100.52H87.62V102.6H77.92V100.52ZM81.78 88.52H83.64V94.96H81.78V88.52ZM81.74 95.7V97.8H83.76V95.7H81.74ZM80 94.04H85.58V99.44H80V94.04ZM74.32 85.06L76.5 85.74C76.1267 86.8867 75.6667 88.0467 75.12 89.22C74.5867 90.38 74 91.48 73.36 92.52C72.72 93.5467 72.0467 94.46 71.34 95.26C71.2867 95.06 71.1933 94.7933 71.06 94.46C70.9267 94.1267 70.78 93.7933 70.62 93.46C70.46 93.1267 70.32 92.8533 70.2 92.64C70.76 92.0267 71.2933 91.3133 71.8 90.5C72.32 89.6867 72.7933 88.82 73.22 87.9C73.6467 86.9667 74.0133 86.02 74.32 85.06ZM72.68 90.56L74.94 88.3L74.96 88.32V103.82H72.68V90.56ZM113.32 85.48H116.08C116.053 86.04 116.007 86.76 115.94 87.64C115.873 88.52 115.747 89.5 115.56 90.58C115.387 91.6467 115.12 92.7667 114.76 93.94C114.4 95.1133 113.907 96.2867 113.28 97.46C112.667 98.62 111.88 99.7333 110.92 100.8C109.973 101.853 108.82 102.793 107.46 103.62C107.247 103.313 106.953 102.987 106.58 102.64C106.22 102.293 105.84 101.98 105.44 101.7C106.773 100.953 107.893 100.1 108.8 99.14C109.707 98.18 110.447 97.1733 111.02 96.12C111.593 95.0533 112.033 93.9867 112.34 92.92C112.647 91.84 112.867 90.82 113 89.86C113.133 88.9 113.213 88.04 113.24 87.28C113.267 86.52 113.293 85.92 113.32 85.48ZM115.98 86.02C115.993 86.2733 116.02 86.6733 116.06 87.22C116.1 87.7667 116.18 88.42 116.3 89.18C116.42 89.94 116.6 90.7667 116.84 91.66C117.093 92.54 117.427 93.4467 117.84 94.38C118.253 95.3133 118.767 96.2267 119.38 97.12C119.993 98.0133 120.733 98.84 121.6 99.6C122.48 100.36 123.507 101.02 124.68 101.58C124.293 101.86 123.933 102.187 123.6 102.56C123.28 102.933 123.02 103.287 122.82 103.62C121.593 103.007 120.52 102.28 119.6 101.44C118.693 100.587 117.913 99.6667 117.26 98.68C116.62 97.68 116.087 96.6667 115.66 95.64C115.233 94.6133 114.887 93.6067 114.62 92.62C114.367 91.62 114.173 90.6933 114.04 89.84C113.907 88.9867 113.813 88.2467 113.76 87.62C113.72 86.9933 113.687 86.54 113.66 86.26L115.98 86.02ZM142 90.24H144.16V103.78H142V90.24ZM146.2 96.4H148.36V102.72H146.2V96.4ZM147.16 96.4H153.8V102.04H147.16V100.7H151.68V97.72H147.16V96.4ZM143.16 90.24H149.5V95.64H143.16V94.26H147.34V91.62H143.16V90.24ZM143.18 92.28H147.94V93.58H143.18V92.28ZM147.18 98.56H152.66V99.86H147.18V98.56ZM151.98 92.28H156.88V93.58H151.98V92.28ZM156.62 90.24V91.62H152.82V94.26H156.62V95.64H150.66V90.24H156.62ZM156.08 90.24H158.32V101.38C158.32 101.927 158.247 102.36 158.1 102.68C157.967 103 157.727 103.24 157.38 103.4C157.007 103.587 156.553 103.7 156.02 103.74C155.5 103.78 154.86 103.793 154.1 103.78C154.073 103.473 153.993 103.113 153.86 102.7C153.727 102.3 153.587 101.96 153.44 101.68C153.893 101.707 154.34 101.72 154.78 101.72C155.233 101.72 155.533 101.72 155.68 101.72C155.947 101.72 156.08 101.6 156.08 101.36V90.24ZM143.4 86.42H149.72V88.24H143.4V86.42ZM151.46 86.42H159.14V88.24H151.46V86.42ZM143.5 84.84L145.72 85.46C145.333 86.34 144.84 87.2 144.24 88.04C143.653 88.88 143.067 89.5867 142.48 90.16C142.333 90.0267 142.14 89.88 141.9 89.72C141.66 89.56 141.42 89.4 141.18 89.24C140.94 89.08 140.72 88.9533 140.52 88.86C141.147 88.3667 141.72 87.7667 142.24 87.06C142.773 86.34 143.193 85.6 143.5 84.84ZM151.66 84.84L153.94 85.4C153.567 86.2933 153.087 87.1467 152.5 87.96C151.913 88.76 151.32 89.4267 150.72 89.96C150.56 89.84 150.347 89.7133 150.08 89.58C149.827 89.4333 149.567 89.2933 149.3 89.16C149.033 89.0133 148.8 88.9 148.6 88.82C149.253 88.3533 149.847 87.7667 150.38 87.06C150.927 86.34 151.353 85.6 151.66 84.84ZM144.16 87.94L146.14 87.4C146.367 87.72 146.593 88.08 146.82 88.48C147.047 88.88 147.22 89.2333 147.34 89.54L145.24 90.12C145.147 89.8267 145 89.4733 144.8 89.06C144.6 88.6467 144.387 88.2733 144.16 87.94ZM153.1 87.92L155.14 87.38C155.42 87.7 155.707 88.0667 156 88.48C156.293 88.88 156.513 89.24 156.66 89.56L154.52 90.14C154.4 89.8467 154.207 89.4933 153.94 89.08C153.673 88.6533 153.393 88.2667 153.1 87.92ZM184.92 87.42C184.413 88.26 183.747 89.1133 182.92 89.98C182.093 90.8467 181.167 91.6733 180.14 92.46C179.127 93.2333 178.06 93.9133 176.94 94.5C176.847 94.3 176.713 94.08 176.54 93.84C176.367 93.6 176.187 93.36 176 93.12C175.813 92.88 175.633 92.68 175.46 92.52C176.647 91.9467 177.76 91.24 178.8 90.4C179.853 89.56 180.787 88.6667 181.6 87.72C182.413 86.76 183.053 85.84 183.52 84.96H186.1C186.62 85.8 187.2 86.5933 187.84 87.34C188.493 88.0867 189.18 88.7733 189.9 89.4C190.633 90.0133 191.4 90.56 192.2 91.04C193 91.52 193.807 91.92 194.62 92.24C194.313 92.5467 194.027 92.9 193.76 93.3C193.493 93.6867 193.253 94.0667 193.04 94.44C191.973 93.8933 190.92 93.24 189.88 92.48C188.84 91.72 187.887 90.9067 187.02 90.04C186.167 89.16 185.467 88.2867 184.92 87.42ZM187.14 92.34H189.64V103.78H187.14V92.34ZM180.24 92.44H182.72V94.92C182.72 95.6267 182.673 96.3733 182.58 97.16C182.5 97.9333 182.313 98.7133 182.02 99.5C181.74 100.287 181.307 101.047 180.72 101.78C180.147 102.513 179.367 103.187 178.38 103.8C178.233 103.627 178.04 103.427 177.8 103.2C177.573 102.987 177.333 102.773 177.08 102.56C176.827 102.36 176.593 102.2 176.38 102.08C177.247 101.56 177.94 101 178.46 100.4C178.98 99.8 179.367 99.1867 179.62 98.56C179.873 97.92 180.04 97.2867 180.12 96.66C180.2 96.0333 180.24 95.4333 180.24 94.86V92.44Z" fill="black"/>
</svg>
