<svg width="1440" height="603" viewBox="0 0 1440 603" fill="none" xmlns="http://www.w3.org/2000/svg">
<rect width="1440" height="309" fill="white"/>
<line x1="262.5" y1="14.375" x2="1.5" y2="14.375" stroke="#E6E6DC" stroke-width="3" stroke-linecap="round"/>
<line x1="262.5" y1="47.1465" x2="1.5" y2="47.1465" stroke="#E6E6DC" stroke-width="3" stroke-linecap="round"/>
<line x1="262.5" y1="79.9199" x2="1.5" y2="79.9199" stroke="#E6E6DC" stroke-width="3" stroke-linecap="round"/>
<line x1="262.5" y1="112.693" x2="1.5" y2="112.693" stroke="#E6E6DC" stroke-width="3" stroke-linecap="round"/>
<line x1="262.5" y1="30.7617" x2="1.5" y2="30.7617" stroke="#E6E6DC" stroke-width="3" stroke-linecap="round"/>
<line x1="262.5" y1="63.5332" x2="1.5" y2="63.5332" stroke="#E6E6DC" stroke-width="3" stroke-linecap="round"/>
<line x1="262.5" y1="96.3066" x2="1.5" y2="96.3066" stroke="#E6E6DC" stroke-width="3" stroke-linecap="round"/>
<line x1="262.5" y1="129.08" x2="1.5" y2="129.08" stroke="#E6E6DC" stroke-width="3" stroke-linecap="round"/>
<line x1="262.5" y1="276.557" x2="1.5" y2="276.557" stroke="#E6E6DC" stroke-width="3" stroke-linecap="round"/>
<line x1="262.5" y1="292.943" x2="1.5" y2="292.943" stroke="#E6E6DC" stroke-width="3" stroke-linecap="round"/>
<line x1="262.5" y1="145.465" x2="1.5" y2="145.465" stroke="#E6E6DC" stroke-width="3" stroke-linecap="round"/>
<line x1="262.5" y1="178.238" x2="1.5" y2="178.238" stroke="#E6E6DC" stroke-width="3" stroke-linecap="round"/>
<line x1="262.5" y1="211.01" x2="1.5" y2="211.01" stroke="#E6E6DC" stroke-width="3" stroke-linecap="round"/>
<line x1="262.5" y1="243.783" x2="1.5" y2="243.783" stroke="#E6E6DC" stroke-width="3" stroke-linecap="round"/>
<line x1="262.5" y1="161.852" x2="1.5" y2="161.852" stroke="#E6E6DC" stroke-width="3" stroke-linecap="round"/>
<line x1="262.5" y1="194.625" x2="1.5" y2="194.625" stroke="#E6E6DC" stroke-width="3" stroke-linecap="round"/>
<line x1="262.5" y1="227.396" x2="1.5" y2="227.396" stroke="#E6E6DC" stroke-width="3" stroke-linecap="round"/>
<line x1="262.5" y1="260.17" x2="1.5" y2="260.17" stroke="#E6E6DC" stroke-width="3" stroke-linecap="round"/>
<line x1="790.5" y1="14.375" x2="529.5" y2="14.375" stroke="#E6E6DC" stroke-width="3" stroke-linecap="round"/>
<line x1="790.5" y1="47.1465" x2="529.5" y2="47.1465" stroke="#E6E6DC" stroke-width="3" stroke-linecap="round"/>
<line x1="790.5" y1="79.9199" x2="529.5" y2="79.9199" stroke="#E6E6DC" stroke-width="3" stroke-linecap="round"/>
<line x1="790.5" y1="112.693" x2="529.5" y2="112.693" stroke="#E6E6DC" stroke-width="3" stroke-linecap="round"/>
<line x1="790.5" y1="30.7617" x2="529.5" y2="30.7617" stroke="#E6E6DC" stroke-width="3" stroke-linecap="round"/>
<line x1="790.5" y1="63.5332" x2="529.5" y2="63.5332" stroke="#E6E6DC" stroke-width="3" stroke-linecap="round"/>
<line x1="790.5" y1="96.3066" x2="529.5" y2="96.3066" stroke="#E6E6DC" stroke-width="3" stroke-linecap="round"/>
<line x1="790.5" y1="129.08" x2="529.5" y2="129.08" stroke="#E6E6DC" stroke-width="3" stroke-linecap="round"/>
<line x1="790.5" y1="276.557" x2="529.5" y2="276.557" stroke="#E6E6DC" stroke-width="3" stroke-linecap="round"/>
<line x1="790.5" y1="292.943" x2="529.5" y2="292.943" stroke="#E6E6DC" stroke-width="3" stroke-linecap="round"/>
<line x1="790.5" y1="145.465" x2="529.5" y2="145.465" stroke="#E6E6DC" stroke-width="3" stroke-linecap="round"/>
<line x1="790.5" y1="178.238" x2="529.5" y2="178.238" stroke="#E6E6DC" stroke-width="3" stroke-linecap="round"/>
<line x1="790.5" y1="211.01" x2="529.5" y2="211.01" stroke="#E6E6DC" stroke-width="3" stroke-linecap="round"/>
<line x1="790.5" y1="243.783" x2="529.5" y2="243.783" stroke="#E6E6DC" stroke-width="3" stroke-linecap="round"/>
<line x1="790.5" y1="161.852" x2="529.5" y2="161.852" stroke="#E6E6DC" stroke-width="3" stroke-linecap="round"/>
<line x1="790.5" y1="194.625" x2="529.5" y2="194.625" stroke="#E6E6DC" stroke-width="3" stroke-linecap="round"/>
<line x1="790.5" y1="227.396" x2="529.5" y2="227.396" stroke="#E6E6DC" stroke-width="3" stroke-linecap="round"/>
<line x1="790.5" y1="260.17" x2="529.5" y2="260.17" stroke="#E6E6DC" stroke-width="3" stroke-linecap="round"/>
<line x1="1318.5" y1="14.375" x2="1057.5" y2="14.375" stroke="#E6E6DC" stroke-width="3" stroke-linecap="round"/>
<line x1="1318.5" y1="47.1465" x2="1057.5" y2="47.1465" stroke="#E6E6DC" stroke-width="3" stroke-linecap="round"/>
<line x1="1318.5" y1="79.9199" x2="1057.5" y2="79.9199" stroke="#E6E6DC" stroke-width="3" stroke-linecap="round"/>
<line x1="1318.5" y1="112.693" x2="1057.5" y2="112.693" stroke="#E6E6DC" stroke-width="3" stroke-linecap="round"/>
<line x1="1318.5" y1="30.7617" x2="1057.5" y2="30.7617" stroke="#E6E6DC" stroke-width="3" stroke-linecap="round"/>
<line x1="1318.5" y1="63.5332" x2="1057.5" y2="63.5332" stroke="#E6E6DC" stroke-width="3" stroke-linecap="round"/>
<line x1="1318.5" y1="96.3066" x2="1057.5" y2="96.3066" stroke="#E6E6DC" stroke-width="3" stroke-linecap="round"/>
<line x1="1318.5" y1="129.08" x2="1057.5" y2="129.08" stroke="#E6E6DC" stroke-width="3" stroke-linecap="round"/>
<line x1="1318.5" y1="276.557" x2="1057.5" y2="276.557" stroke="#E6E6DC" stroke-width="3" stroke-linecap="round"/>
<line x1="1318.5" y1="292.943" x2="1057.5" y2="292.943" stroke="#E6E6DC" stroke-width="3" stroke-linecap="round"/>
<line x1="1318.5" y1="145.465" x2="1057.5" y2="145.465" stroke="#E6E6DC" stroke-width="3" stroke-linecap="round"/>
<line x1="1318.5" y1="178.238" x2="1057.5" y2="178.238" stroke="#E6E6DC" stroke-width="3" stroke-linecap="round"/>
<line x1="1318.5" y1="211.01" x2="1057.5" y2="211.01" stroke="#E6E6DC" stroke-width="3" stroke-linecap="round"/>
<line x1="1318.5" y1="243.783" x2="1057.5" y2="243.783" stroke="#E6E6DC" stroke-width="3" stroke-linecap="round"/>
<line x1="1318.5" y1="161.852" x2="1057.5" y2="161.852" stroke="#E6E6DC" stroke-width="3" stroke-linecap="round"/>
<line x1="1318.5" y1="194.625" x2="1057.5" y2="194.625" stroke="#E6E6DC" stroke-width="3" stroke-linecap="round"/>
<line x1="1318.5" y1="227.396" x2="1057.5" y2="227.396" stroke="#E6E6DC" stroke-width="3" stroke-linecap="round"/>
<line x1="1318.5" y1="260.17" x2="1057.5" y2="260.17" stroke="#E6E6DC" stroke-width="3" stroke-linecap="round"/>
<line x1="526.5" y1="14.375" x2="265.5" y2="14.375" stroke="#E6E6DC" stroke-width="3" stroke-linecap="round"/>
<line x1="526.5" y1="47.1465" x2="265.5" y2="47.1465" stroke="#E6E6DC" stroke-width="3" stroke-linecap="round"/>
<line x1="526.5" y1="79.9199" x2="265.5" y2="79.9199" stroke="#E6E6DC" stroke-width="3" stroke-linecap="round"/>
<line x1="526.5" y1="112.693" x2="265.5" y2="112.693" stroke="#E6E6DC" stroke-width="3" stroke-linecap="round"/>
<line x1="526.5" y1="30.7617" x2="265.5" y2="30.7617" stroke="#E6E6DC" stroke-width="3" stroke-linecap="round"/>
<line x1="526.5" y1="63.5332" x2="265.5" y2="63.5332" stroke="#E6E6DC" stroke-width="3" stroke-linecap="round"/>
<line x1="526.5" y1="96.3066" x2="265.5" y2="96.3066" stroke="#E6E6DC" stroke-width="3" stroke-linecap="round"/>
<line x1="526.5" y1="129.08" x2="265.5" y2="129.08" stroke="#E6E6DC" stroke-width="3" stroke-linecap="round"/>
<line x1="526.5" y1="276.557" x2="265.5" y2="276.557" stroke="#E6E6DC" stroke-width="3" stroke-linecap="round"/>
<line x1="526.5" y1="292.943" x2="265.5" y2="292.943" stroke="#E6E6DC" stroke-width="3" stroke-linecap="round"/>
<line x1="526.5" y1="145.465" x2="265.5" y2="145.465" stroke="#E6E6DC" stroke-width="3" stroke-linecap="round"/>
<line x1="526.5" y1="178.238" x2="265.5" y2="178.238" stroke="#E6E6DC" stroke-width="3" stroke-linecap="round"/>
<line x1="526.5" y1="211.01" x2="265.5" y2="211.01" stroke="#E6E6DC" stroke-width="3" stroke-linecap="round"/>
<line x1="526.5" y1="243.783" x2="265.5" y2="243.783" stroke="#E6E6DC" stroke-width="3" stroke-linecap="round"/>
<line x1="526.5" y1="161.852" x2="265.5" y2="161.852" stroke="#E6E6DC" stroke-width="3" stroke-linecap="round"/>
<line x1="526.5" y1="194.625" x2="265.5" y2="194.625" stroke="#E6E6DC" stroke-width="3" stroke-linecap="round"/>
<line x1="526.5" y1="227.396" x2="265.5" y2="227.396" stroke="#E6E6DC" stroke-width="3" stroke-linecap="round"/>
<line x1="526.5" y1="260.17" x2="265.5" y2="260.17" stroke="#E6E6DC" stroke-width="3" stroke-linecap="round"/>
<line x1="1054.5" y1="14.375" x2="793.5" y2="14.375" stroke="#E6E6DC" stroke-width="3" stroke-linecap="round"/>
<line x1="1054.5" y1="47.1465" x2="793.5" y2="47.1465" stroke="#E6E6DC" stroke-width="3" stroke-linecap="round"/>
<line x1="1054.5" y1="79.9199" x2="793.5" y2="79.9199" stroke="#E6E6DC" stroke-width="3" stroke-linecap="round"/>
<line x1="1054.5" y1="112.693" x2="793.5" y2="112.693" stroke="#E6E6DC" stroke-width="3" stroke-linecap="round"/>
<line x1="1054.5" y1="30.7617" x2="793.5" y2="30.7617" stroke="#E6E6DC" stroke-width="3" stroke-linecap="round"/>
<line x1="1054.5" y1="63.5332" x2="793.5" y2="63.5332" stroke="#E6E6DC" stroke-width="3" stroke-linecap="round"/>
<line x1="1054.5" y1="96.3066" x2="793.5" y2="96.3066" stroke="#E6E6DC" stroke-width="3" stroke-linecap="round"/>
<line x1="1054.5" y1="129.08" x2="793.5" y2="129.08" stroke="#E6E6DC" stroke-width="3" stroke-linecap="round"/>
<line x1="1054.5" y1="276.557" x2="793.5" y2="276.557" stroke="#E6E6DC" stroke-width="3" stroke-linecap="round"/>
<line x1="1054.5" y1="292.943" x2="793.5" y2="292.943" stroke="#E6E6DC" stroke-width="3" stroke-linecap="round"/>
<line x1="1054.5" y1="145.465" x2="793.5" y2="145.465" stroke="#E6E6DC" stroke-width="3" stroke-linecap="round"/>
<line x1="1054.5" y1="178.238" x2="793.5" y2="178.238" stroke="#E6E6DC" stroke-width="3" stroke-linecap="round"/>
<line x1="1054.5" y1="211.01" x2="793.5" y2="211.01" stroke="#E6E6DC" stroke-width="3" stroke-linecap="round"/>
<line x1="1054.5" y1="243.783" x2="793.5" y2="243.783" stroke="#E6E6DC" stroke-width="3" stroke-linecap="round"/>
<line x1="1054.5" y1="161.852" x2="793.5" y2="161.852" stroke="#E6E6DC" stroke-width="3" stroke-linecap="round"/>
<line x1="1054.5" y1="194.625" x2="793.5" y2="194.625" stroke="#E6E6DC" stroke-width="3" stroke-linecap="round"/>
<line x1="1054.5" y1="227.396" x2="793.5" y2="227.396" stroke="#E6E6DC" stroke-width="3" stroke-linecap="round"/>
<line x1="1054.5" y1="260.17" x2="793.5" y2="260.17" stroke="#E6E6DC" stroke-width="3" stroke-linecap="round"/>
<line x1="1438.5" y1="14.375" x2="1317.5" y2="14.375" stroke="#E6E6DC" stroke-width="3" stroke-linecap="round"/>
<line x1="1438.5" y1="47.1465" x2="1317.5" y2="47.1465" stroke="#E6E6DC" stroke-width="3" stroke-linecap="round"/>
<line x1="1438.5" y1="79.9199" x2="1317.5" y2="79.9199" stroke="#E6E6DC" stroke-width="3" stroke-linecap="round"/>
<line x1="1438.5" y1="112.693" x2="1317.5" y2="112.693" stroke="#E6E6DC" stroke-width="3" stroke-linecap="round"/>
<line x1="1438.5" y1="30.7617" x2="1317.5" y2="30.7617" stroke="#E6E6DC" stroke-width="3" stroke-linecap="round"/>
<line x1="1438.5" y1="63.5332" x2="1317.5" y2="63.5332" stroke="#E6E6DC" stroke-width="3" stroke-linecap="round"/>
<line x1="1438.5" y1="96.3066" x2="1317.5" y2="96.3066" stroke="#E6E6DC" stroke-width="3" stroke-linecap="round"/>
<line x1="1438.5" y1="129.08" x2="1317.5" y2="129.08" stroke="#E6E6DC" stroke-width="3" stroke-linecap="round"/>
<line x1="1438.5" y1="276.557" x2="1317.5" y2="276.557" stroke="#E6E6DC" stroke-width="3" stroke-linecap="round"/>
<line x1="1438.5" y1="292.943" x2="1317.5" y2="292.943" stroke="#E6E6DC" stroke-width="3" stroke-linecap="round"/>
<line x1="1438.5" y1="145.465" x2="1317.5" y2="145.465" stroke="#E6E6DC" stroke-width="3" stroke-linecap="round"/>
<line x1="1438.5" y1="178.238" x2="1317.5" y2="178.238" stroke="#E6E6DC" stroke-width="3" stroke-linecap="round"/>
<line x1="1438.5" y1="211.01" x2="1317.5" y2="211.01" stroke="#E6E6DC" stroke-width="3" stroke-linecap="round"/>
<line x1="1438.5" y1="243.783" x2="1317.5" y2="243.783" stroke="#E6E6DC" stroke-width="3" stroke-linecap="round"/>
<line x1="1438.5" y1="161.852" x2="1317.5" y2="161.852" stroke="#E6E6DC" stroke-width="3" stroke-linecap="round"/>
<line x1="1438.5" y1="194.625" x2="1317.5" y2="194.625" stroke="#E6E6DC" stroke-width="3" stroke-linecap="round"/>
<line x1="1438.5" y1="227.396" x2="1317.5" y2="227.396" stroke="#E6E6DC" stroke-width="3" stroke-linecap="round"/>
<line x1="1438.5" y1="260.17" x2="1317.5" y2="260.17" stroke="#E6E6DC" stroke-width="3" stroke-linecap="round"/>
<line x1="908.5" y1="1.5" x2="908.5" y2="307.5" stroke="#E6E6DC" stroke-width="3" stroke-linecap="round"/>
<line x1="936.5" y1="1.5" x2="936.5" y2="307.5" stroke="#E6E6DC" stroke-width="3" stroke-linecap="round"/>
<line x1="964.5" y1="1.5" x2="964.5" y2="307.5" stroke="#E6E6DC" stroke-width="3" stroke-linecap="round"/>
<line x1="992.5" y1="1.5" x2="992.5" y2="307.5" stroke="#E6E6DC" stroke-width="3" stroke-linecap="round"/>
<line x1="922.5" y1="1.5" x2="922.5" y2="307.5" stroke="#E6E6DC" stroke-width="3" stroke-linecap="round"/>
<line x1="950.5" y1="1.5" x2="950.5" y2="307.5" stroke="#E6E6DC" stroke-width="3" stroke-linecap="round"/>
<line x1="978.5" y1="1.5" x2="978.5" y2="307.5" stroke="#E6E6DC" stroke-width="3" stroke-linecap="round"/>
<line x1="1006.5" y1="1.5" x2="1006.5" y2="307.5" stroke="#E6E6DC" stroke-width="3" stroke-linecap="round"/>
<line x1="1132.5" y1="1.5" x2="1132.5" y2="307.5" stroke="#E6E6DC" stroke-width="3" stroke-linecap="round"/>
<line x1="1160.5" y1="1.5" x2="1160.5" y2="307.5" stroke="#E6E6DC" stroke-width="3" stroke-linecap="round"/>
<line x1="1188.5" y1="1.5" x2="1188.5" y2="307.5" stroke="#E6E6DC" stroke-width="3" stroke-linecap="round"/>
<line x1="1216.5" y1="1.5" x2="1216.5" y2="307.5" stroke="#E6E6DC" stroke-width="3" stroke-linecap="round"/>
<line x1="1146.5" y1="1.5" x2="1146.5" y2="307.5" stroke="#E6E6DC" stroke-width="3" stroke-linecap="round"/>
<line x1="1174.5" y1="1.5" x2="1174.5" y2="307.5" stroke="#E6E6DC" stroke-width="3" stroke-linecap="round"/>
<line x1="1202.5" y1="1.5" x2="1202.5" y2="307.5" stroke="#E6E6DC" stroke-width="3" stroke-linecap="round"/>
<line x1="1230.5" y1="1.5" x2="1230.5" y2="307.5" stroke="#E6E6DC" stroke-width="3" stroke-linecap="round"/>
<line x1="1020.5" y1="1.5" x2="1020.5" y2="307.5" stroke="#E6E6DC" stroke-width="3" stroke-linecap="round"/>
<line x1="1048.5" y1="1.5" x2="1048.5" y2="307.5" stroke="#E6E6DC" stroke-width="3" stroke-linecap="round"/>
<line x1="1076.5" y1="1.5" x2="1076.5" y2="307.5" stroke="#E6E6DC" stroke-width="3" stroke-linecap="round"/>
<line x1="1104.5" y1="1.5" x2="1104.5" y2="307.5" stroke="#E6E6DC" stroke-width="3" stroke-linecap="round"/>
<line x1="1034.5" y1="1.5" x2="1034.5" y2="307.5" stroke="#E6E6DC" stroke-width="3" stroke-linecap="round"/>
<line x1="1062.5" y1="1.5" x2="1062.5" y2="307.5" stroke="#E6E6DC" stroke-width="3" stroke-linecap="round"/>
<line x1="1090.5" y1="1.5" x2="1090.5" y2="307.5" stroke="#E6E6DC" stroke-width="3" stroke-linecap="round"/>
<line x1="1118.5" y1="1.5" x2="1118.5" y2="307.5" stroke="#E6E6DC" stroke-width="3" stroke-linecap="round"/>
<line x1="1244.5" y1="1.5" x2="1244.5" y2="307.5" stroke="#E6E6DC" stroke-width="3" stroke-linecap="round"/>
<line x1="1272.5" y1="1.5" x2="1272.5" y2="307.5" stroke="#E6E6DC" stroke-width="3" stroke-linecap="round"/>
<line x1="1300.5" y1="1.5" x2="1300.5" y2="307.5" stroke="#E6E6DC" stroke-width="3" stroke-linecap="round"/>
<line x1="1328.5" y1="1.5" x2="1328.5" y2="307.5" stroke="#E6E6DC" stroke-width="3" stroke-linecap="round"/>
<line x1="1258.5" y1="1.5" x2="1258.5" y2="307.5" stroke="#E6E6DC" stroke-width="3" stroke-linecap="round"/>
<line x1="1286.5" y1="1.5" x2="1286.5" y2="307.5" stroke="#E6E6DC" stroke-width="3" stroke-linecap="round"/>
<line x1="1314.5" y1="1.5" x2="1314.5" y2="307.5" stroke="#E6E6DC" stroke-width="3" stroke-linecap="round"/>
<line x1="1342.5" y1="1.5" x2="1342.5" y2="307.5" stroke="#E6E6DC" stroke-width="3" stroke-linecap="round"/>
<line x1="460.5" y1="1.5" x2="460.5" y2="307.5" stroke="#E6E6DC" stroke-width="3" stroke-linecap="round"/>
<line x1="488.5" y1="1.5" x2="488.5" y2="307.5" stroke="#E6E6DC" stroke-width="3" stroke-linecap="round"/>
<line x1="516.5" y1="1.5" x2="516.5" y2="307.5" stroke="#E6E6DC" stroke-width="3" stroke-linecap="round"/>
<line x1="544.5" y1="1.5" x2="544.5" y2="307.5" stroke="#E6E6DC" stroke-width="3" stroke-linecap="round"/>
<line x1="474.5" y1="1.5" x2="474.5" y2="307.5" stroke="#E6E6DC" stroke-width="3" stroke-linecap="round"/>
<line x1="502.5" y1="1.5" x2="502.5" y2="307.5" stroke="#E6E6DC" stroke-width="3" stroke-linecap="round"/>
<line x1="530.5" y1="1.5" x2="530.5" y2="307.5" stroke="#E6E6DC" stroke-width="3" stroke-linecap="round"/>
<line x1="558.5" y1="1.5" x2="558.5" y2="307.5" stroke="#E6E6DC" stroke-width="3" stroke-linecap="round"/>
<line x1="684.5" y1="1.5" x2="684.5" y2="307.5" stroke="#E6E6DC" stroke-width="3" stroke-linecap="round"/>
<line x1="712.5" y1="1.5" x2="712.5" y2="307.5" stroke="#E6E6DC" stroke-width="3" stroke-linecap="round"/>
<line x1="740.5" y1="1.5" x2="740.5" y2="307.5" stroke="#E6E6DC" stroke-width="3" stroke-linecap="round"/>
<line x1="768.5" y1="1.5" x2="768.5" y2="307.5" stroke="#E6E6DC" stroke-width="3" stroke-linecap="round"/>
<line x1="698.5" y1="1.5" x2="698.5" y2="307.5" stroke="#E6E6DC" stroke-width="3" stroke-linecap="round"/>
<line x1="726.5" y1="1.5" x2="726.5" y2="307.5" stroke="#E6E6DC" stroke-width="3" stroke-linecap="round"/>
<line x1="754.5" y1="1.5" x2="754.5" y2="307.5" stroke="#E6E6DC" stroke-width="3" stroke-linecap="round"/>
<line x1="782.5" y1="1.5" x2="782.5" y2="307.5" stroke="#E6E6DC" stroke-width="3" stroke-linecap="round"/>
<line x1="572.5" y1="1.5" x2="572.5" y2="307.5" stroke="#E6E6DC" stroke-width="3" stroke-linecap="round"/>
<line x1="600.5" y1="1.5" x2="600.5" y2="307.5" stroke="#E6E6DC" stroke-width="3" stroke-linecap="round"/>
<line x1="628.5" y1="1.5" x2="628.5" y2="307.5" stroke="#E6E6DC" stroke-width="3" stroke-linecap="round"/>
<line x1="656.5" y1="1.5" x2="656.5" y2="307.5" stroke="#E6E6DC" stroke-width="3" stroke-linecap="round"/>
<line x1="586.5" y1="1.5" x2="586.5" y2="307.5" stroke="#E6E6DC" stroke-width="3" stroke-linecap="round"/>
<line x1="614.5" y1="1.5" x2="614.5" y2="307.5" stroke="#E6E6DC" stroke-width="3" stroke-linecap="round"/>
<line x1="642.5" y1="1.5" x2="642.5" y2="307.5" stroke="#E6E6DC" stroke-width="3" stroke-linecap="round"/>
<line x1="670.5" y1="1.5" x2="670.5" y2="307.5" stroke="#E6E6DC" stroke-width="3" stroke-linecap="round"/>
<line x1="796.5" y1="1.5" x2="796.5" y2="307.5" stroke="#E6E6DC" stroke-width="3" stroke-linecap="round"/>
<line x1="824.5" y1="1.5" x2="824.5" y2="307.5" stroke="#E6E6DC" stroke-width="3" stroke-linecap="round"/>
<line x1="852.5" y1="1.5" x2="852.5" y2="307.5" stroke="#E6E6DC" stroke-width="3" stroke-linecap="round"/>
<line x1="880.5" y1="1.5" x2="880.5" y2="307.5" stroke="#E6E6DC" stroke-width="3" stroke-linecap="round"/>
<line x1="810.5" y1="1.5" x2="810.5" y2="307.5" stroke="#E6E6DC" stroke-width="3" stroke-linecap="round"/>
<line x1="838.5" y1="1.5" x2="838.5" y2="307.5" stroke="#E6E6DC" stroke-width="3" stroke-linecap="round"/>
<line x1="866.5" y1="1.5" x2="866.5" y2="307.5" stroke="#E6E6DC" stroke-width="3" stroke-linecap="round"/>
<line x1="894.5" y1="1.5" x2="894.5" y2="307.5" stroke="#E6E6DC" stroke-width="3" stroke-linecap="round"/>
<line x1="1355.5" y1="1.5" x2="1355.5" y2="307.5" stroke="#E6E6DC" stroke-width="3" stroke-linecap="round"/>
<line x1="1383.5" y1="1.5" x2="1383.5" y2="307.5" stroke="#E6E6DC" stroke-width="3" stroke-linecap="round"/>
<line x1="1411.5" y1="1.5" x2="1411.5" y2="307.5" stroke="#E6E6DC" stroke-width="3" stroke-linecap="round"/>
<line x1="1439.5" y1="1.5" x2="1439.5" y2="307.5" stroke="#E6E6DC" stroke-width="3" stroke-linecap="round"/>
<line x1="1369.5" y1="1.5" x2="1369.5" y2="307.5" stroke="#E6E6DC" stroke-width="3" stroke-linecap="round"/>
<line x1="1397.5" y1="1.5" x2="1397.5" y2="307.5" stroke="#E6E6DC" stroke-width="3" stroke-linecap="round"/>
<line x1="1425.5" y1="1.5" x2="1425.5" y2="307.5" stroke="#E6E6DC" stroke-width="3" stroke-linecap="round"/>
<line x1="13.5" y1="1.5" x2="13.5" y2="307.5" stroke="#E6E6DC" stroke-width="3" stroke-linecap="round"/>
<line x1="41.5" y1="1.5" x2="41.5" y2="307.5" stroke="#E6E6DC" stroke-width="3" stroke-linecap="round"/>
<line x1="69.5" y1="1.5" x2="69.5" y2="307.5" stroke="#E6E6DC" stroke-width="3" stroke-linecap="round"/>
<line x1="97.5" y1="1.5" x2="97.5" y2="307.5" stroke="#E6E6DC" stroke-width="3" stroke-linecap="round"/>
<line x1="27.5" y1="1.5" x2="27.5" y2="307.5" stroke="#E6E6DC" stroke-width="3" stroke-linecap="round"/>
<line x1="55.5" y1="1.5" x2="55.5" y2="307.5" stroke="#E6E6DC" stroke-width="3" stroke-linecap="round"/>
<line x1="83.5" y1="1.5" x2="83.5" y2="307.5" stroke="#E6E6DC" stroke-width="3" stroke-linecap="round"/>
<line x1="111.5" y1="1.5" x2="111.5" y2="307.5" stroke="#E6E6DC" stroke-width="3" stroke-linecap="round"/>
<line x1="237.5" y1="1.5" x2="237.5" y2="307.5" stroke="#E6E6DC" stroke-width="3" stroke-linecap="round"/>
<line x1="265.5" y1="1.5" x2="265.5" y2="307.5" stroke="#E6E6DC" stroke-width="3" stroke-linecap="round"/>
<line x1="293.5" y1="1.5" x2="293.5" y2="307.5" stroke="#E6E6DC" stroke-width="3" stroke-linecap="round"/>
<line x1="321.5" y1="1.5" x2="321.5" y2="307.5" stroke="#E6E6DC" stroke-width="3" stroke-linecap="round"/>
<line x1="251.5" y1="1.5" x2="251.5" y2="307.5" stroke="#E6E6DC" stroke-width="3" stroke-linecap="round"/>
<line x1="279.5" y1="1.5" x2="279.5" y2="307.5" stroke="#E6E6DC" stroke-width="3" stroke-linecap="round"/>
<line x1="307.5" y1="1.5" x2="307.5" y2="307.5" stroke="#E6E6DC" stroke-width="3" stroke-linecap="round"/>
<line x1="335.5" y1="1.5" x2="335.5" y2="307.5" stroke="#E6E6DC" stroke-width="3" stroke-linecap="round"/>
<line x1="125.5" y1="1.5" x2="125.5" y2="307.5" stroke="#E6E6DC" stroke-width="3" stroke-linecap="round"/>
<line x1="153.5" y1="1.5" x2="153.5" y2="307.5" stroke="#E6E6DC" stroke-width="3" stroke-linecap="round"/>
<line x1="181.5" y1="1.5" x2="181.5" y2="307.5" stroke="#E6E6DC" stroke-width="3" stroke-linecap="round"/>
<line x1="209.5" y1="1.5" x2="209.5" y2="307.5" stroke="#E6E6DC" stroke-width="3" stroke-linecap="round"/>
<line x1="139.5" y1="1.5" x2="139.5" y2="307.5" stroke="#E6E6DC" stroke-width="3" stroke-linecap="round"/>
<line x1="167.5" y1="1.5" x2="167.5" y2="307.5" stroke="#E6E6DC" stroke-width="3" stroke-linecap="round"/>
<line x1="195.5" y1="1.5" x2="195.5" y2="307.5" stroke="#E6E6DC" stroke-width="3" stroke-linecap="round"/>
<line x1="223.5" y1="1.5" x2="223.5" y2="307.5" stroke="#E6E6DC" stroke-width="3" stroke-linecap="round"/>
<line x1="349.5" y1="1.5" x2="349.5" y2="307.5" stroke="#E6E6DC" stroke-width="3" stroke-linecap="round"/>
<line x1="377.5" y1="1.5" x2="377.5" y2="307.5" stroke="#E6E6DC" stroke-width="3" stroke-linecap="round"/>
<line x1="405.5" y1="1.5" x2="405.5" y2="307.5" stroke="#E6E6DC" stroke-width="3" stroke-linecap="round"/>
<line x1="433.5" y1="1.5" x2="433.5" y2="307.5" stroke="#E6E6DC" stroke-width="3" stroke-linecap="round"/>
<line x1="363.5" y1="1.5" x2="363.5" y2="307.5" stroke="#E6E6DC" stroke-width="3" stroke-linecap="round"/>
<line x1="391.5" y1="1.5" x2="391.5" y2="307.5" stroke="#E6E6DC" stroke-width="3" stroke-linecap="round"/>
<line x1="419.5" y1="1.5" x2="419.5" y2="307.5" stroke="#E6E6DC" stroke-width="3" stroke-linecap="round"/>
<line x1="447.5" y1="1.5" x2="447.5" y2="307.5" stroke="#E6E6DC" stroke-width="3" stroke-linecap="round"/>
<rect y="294" width="1440" height="309" fill="white"/>
<line x1="262.5" y1="308.375" x2="1.5" y2="308.375" stroke="#E6E6DC" stroke-width="3" stroke-linecap="round"/>
<line x1="262.5" y1="341.146" x2="1.5" y2="341.146" stroke="#E6E6DC" stroke-width="3" stroke-linecap="round"/>
<line x1="262.5" y1="373.92" x2="1.5" y2="373.92" stroke="#E6E6DC" stroke-width="3" stroke-linecap="round"/>
<line x1="262.5" y1="406.693" x2="1.5" y2="406.693" stroke="#E6E6DC" stroke-width="3" stroke-linecap="round"/>
<line x1="262.5" y1="324.762" x2="1.5" y2="324.762" stroke="#E6E6DC" stroke-width="3" stroke-linecap="round"/>
<line x1="262.5" y1="357.533" x2="1.5" y2="357.533" stroke="#E6E6DC" stroke-width="3" stroke-linecap="round"/>
<line x1="262.5" y1="390.307" x2="1.5" y2="390.307" stroke="#E6E6DC" stroke-width="3" stroke-linecap="round"/>
<line x1="262.5" y1="423.08" x2="1.5" y2="423.08" stroke="#E6E6DC" stroke-width="3" stroke-linecap="round"/>
<line x1="262.5" y1="570.557" x2="1.5" y2="570.557" stroke="#E6E6DC" stroke-width="3" stroke-linecap="round"/>
<line x1="262.5" y1="586.943" x2="1.5" y2="586.943" stroke="#E6E6DC" stroke-width="3" stroke-linecap="round"/>
<line x1="262.5" y1="439.465" x2="1.5" y2="439.465" stroke="#E6E6DC" stroke-width="3" stroke-linecap="round"/>
<line x1="262.5" y1="472.238" x2="1.5" y2="472.238" stroke="#E6E6DC" stroke-width="3" stroke-linecap="round"/>
<line x1="262.5" y1="505.01" x2="1.5" y2="505.01" stroke="#E6E6DC" stroke-width="3" stroke-linecap="round"/>
<line x1="262.5" y1="537.783" x2="1.5" y2="537.783" stroke="#E6E6DC" stroke-width="3" stroke-linecap="round"/>
<line x1="262.5" y1="455.852" x2="1.5" y2="455.852" stroke="#E6E6DC" stroke-width="3" stroke-linecap="round"/>
<line x1="262.5" y1="488.625" x2="1.5" y2="488.625" stroke="#E6E6DC" stroke-width="3" stroke-linecap="round"/>
<line x1="262.5" y1="521.396" x2="1.5" y2="521.396" stroke="#E6E6DC" stroke-width="3" stroke-linecap="round"/>
<line x1="262.5" y1="554.17" x2="1.5" y2="554.17" stroke="#E6E6DC" stroke-width="3" stroke-linecap="round"/>
<line x1="790.5" y1="308.375" x2="529.5" y2="308.375" stroke="#E6E6DC" stroke-width="3" stroke-linecap="round"/>
<line x1="790.5" y1="341.146" x2="529.5" y2="341.146" stroke="#E6E6DC" stroke-width="3" stroke-linecap="round"/>
<line x1="790.5" y1="373.92" x2="529.5" y2="373.92" stroke="#E6E6DC" stroke-width="3" stroke-linecap="round"/>
<line x1="790.5" y1="406.693" x2="529.5" y2="406.693" stroke="#E6E6DC" stroke-width="3" stroke-linecap="round"/>
<line x1="790.5" y1="324.762" x2="529.5" y2="324.762" stroke="#E6E6DC" stroke-width="3" stroke-linecap="round"/>
<line x1="790.5" y1="357.533" x2="529.5" y2="357.533" stroke="#E6E6DC" stroke-width="3" stroke-linecap="round"/>
<line x1="790.5" y1="390.307" x2="529.5" y2="390.307" stroke="#E6E6DC" stroke-width="3" stroke-linecap="round"/>
<line x1="790.5" y1="423.08" x2="529.5" y2="423.08" stroke="#E6E6DC" stroke-width="3" stroke-linecap="round"/>
<line x1="790.5" y1="570.557" x2="529.5" y2="570.557" stroke="#E6E6DC" stroke-width="3" stroke-linecap="round"/>
<line x1="790.5" y1="586.943" x2="529.5" y2="586.943" stroke="#E6E6DC" stroke-width="3" stroke-linecap="round"/>
<line x1="790.5" y1="439.465" x2="529.5" y2="439.465" stroke="#E6E6DC" stroke-width="3" stroke-linecap="round"/>
<line x1="790.5" y1="472.238" x2="529.5" y2="472.238" stroke="#E6E6DC" stroke-width="3" stroke-linecap="round"/>
<line x1="790.5" y1="505.01" x2="529.5" y2="505.01" stroke="#E6E6DC" stroke-width="3" stroke-linecap="round"/>
<line x1="790.5" y1="537.783" x2="529.5" y2="537.783" stroke="#E6E6DC" stroke-width="3" stroke-linecap="round"/>
<line x1="790.5" y1="455.852" x2="529.5" y2="455.852" stroke="#E6E6DC" stroke-width="3" stroke-linecap="round"/>
<line x1="790.5" y1="488.625" x2="529.5" y2="488.625" stroke="#E6E6DC" stroke-width="3" stroke-linecap="round"/>
<line x1="790.5" y1="521.396" x2="529.5" y2="521.396" stroke="#E6E6DC" stroke-width="3" stroke-linecap="round"/>
<line x1="790.5" y1="554.17" x2="529.5" y2="554.17" stroke="#E6E6DC" stroke-width="3" stroke-linecap="round"/>
<line x1="1318.5" y1="308.375" x2="1057.5" y2="308.375" stroke="#E6E6DC" stroke-width="3" stroke-linecap="round"/>
<line x1="1318.5" y1="341.146" x2="1057.5" y2="341.146" stroke="#E6E6DC" stroke-width="3" stroke-linecap="round"/>
<line x1="1318.5" y1="373.92" x2="1057.5" y2="373.92" stroke="#E6E6DC" stroke-width="3" stroke-linecap="round"/>
<line x1="1318.5" y1="406.693" x2="1057.5" y2="406.693" stroke="#E6E6DC" stroke-width="3" stroke-linecap="round"/>
<line x1="1318.5" y1="324.762" x2="1057.5" y2="324.762" stroke="#E6E6DC" stroke-width="3" stroke-linecap="round"/>
<line x1="1318.5" y1="357.533" x2="1057.5" y2="357.533" stroke="#E6E6DC" stroke-width="3" stroke-linecap="round"/>
<line x1="1318.5" y1="390.307" x2="1057.5" y2="390.307" stroke="#E6E6DC" stroke-width="3" stroke-linecap="round"/>
<line x1="1318.5" y1="423.08" x2="1057.5" y2="423.08" stroke="#E6E6DC" stroke-width="3" stroke-linecap="round"/>
<line x1="1318.5" y1="570.557" x2="1057.5" y2="570.557" stroke="#E6E6DC" stroke-width="3" stroke-linecap="round"/>
<line x1="1318.5" y1="586.943" x2="1057.5" y2="586.943" stroke="#E6E6DC" stroke-width="3" stroke-linecap="round"/>
<line x1="1318.5" y1="439.465" x2="1057.5" y2="439.465" stroke="#E6E6DC" stroke-width="3" stroke-linecap="round"/>
<line x1="1318.5" y1="472.238" x2="1057.5" y2="472.238" stroke="#E6E6DC" stroke-width="3" stroke-linecap="round"/>
<line x1="1318.5" y1="505.01" x2="1057.5" y2="505.01" stroke="#E6E6DC" stroke-width="3" stroke-linecap="round"/>
<line x1="1318.5" y1="537.783" x2="1057.5" y2="537.783" stroke="#E6E6DC" stroke-width="3" stroke-linecap="round"/>
<line x1="1318.5" y1="455.852" x2="1057.5" y2="455.852" stroke="#E6E6DC" stroke-width="3" stroke-linecap="round"/>
<line x1="1318.5" y1="488.625" x2="1057.5" y2="488.625" stroke="#E6E6DC" stroke-width="3" stroke-linecap="round"/>
<line x1="1318.5" y1="521.396" x2="1057.5" y2="521.396" stroke="#E6E6DC" stroke-width="3" stroke-linecap="round"/>
<line x1="1318.5" y1="554.17" x2="1057.5" y2="554.17" stroke="#E6E6DC" stroke-width="3" stroke-linecap="round"/>
<line x1="526.5" y1="308.375" x2="265.5" y2="308.375" stroke="#E6E6DC" stroke-width="3" stroke-linecap="round"/>
<line x1="526.5" y1="341.146" x2="265.5" y2="341.146" stroke="#E6E6DC" stroke-width="3" stroke-linecap="round"/>
<line x1="526.5" y1="373.92" x2="265.5" y2="373.92" stroke="#E6E6DC" stroke-width="3" stroke-linecap="round"/>
<line x1="526.5" y1="406.693" x2="265.5" y2="406.693" stroke="#E6E6DC" stroke-width="3" stroke-linecap="round"/>
<line x1="526.5" y1="324.762" x2="265.5" y2="324.762" stroke="#E6E6DC" stroke-width="3" stroke-linecap="round"/>
<line x1="526.5" y1="357.533" x2="265.5" y2="357.533" stroke="#E6E6DC" stroke-width="3" stroke-linecap="round"/>
<line x1="526.5" y1="390.307" x2="265.5" y2="390.307" stroke="#E6E6DC" stroke-width="3" stroke-linecap="round"/>
<line x1="526.5" y1="423.08" x2="265.5" y2="423.08" stroke="#E6E6DC" stroke-width="3" stroke-linecap="round"/>
<line x1="526.5" y1="570.557" x2="265.5" y2="570.557" stroke="#E6E6DC" stroke-width="3" stroke-linecap="round"/>
<line x1="526.5" y1="586.943" x2="265.5" y2="586.943" stroke="#E6E6DC" stroke-width="3" stroke-linecap="round"/>
<line x1="526.5" y1="439.465" x2="265.5" y2="439.465" stroke="#E6E6DC" stroke-width="3" stroke-linecap="round"/>
<line x1="526.5" y1="472.238" x2="265.5" y2="472.238" stroke="#E6E6DC" stroke-width="3" stroke-linecap="round"/>
<line x1="526.5" y1="505.01" x2="265.5" y2="505.01" stroke="#E6E6DC" stroke-width="3" stroke-linecap="round"/>
<line x1="526.5" y1="537.783" x2="265.5" y2="537.783" stroke="#E6E6DC" stroke-width="3" stroke-linecap="round"/>
<line x1="526.5" y1="455.852" x2="265.5" y2="455.852" stroke="#E6E6DC" stroke-width="3" stroke-linecap="round"/>
<line x1="526.5" y1="488.625" x2="265.5" y2="488.625" stroke="#E6E6DC" stroke-width="3" stroke-linecap="round"/>
<line x1="526.5" y1="521.396" x2="265.5" y2="521.396" stroke="#E6E6DC" stroke-width="3" stroke-linecap="round"/>
<line x1="526.5" y1="554.17" x2="265.5" y2="554.17" stroke="#E6E6DC" stroke-width="3" stroke-linecap="round"/>
<line x1="1054.5" y1="308.375" x2="793.5" y2="308.375" stroke="#E6E6DC" stroke-width="3" stroke-linecap="round"/>
<line x1="1054.5" y1="341.146" x2="793.5" y2="341.146" stroke="#E6E6DC" stroke-width="3" stroke-linecap="round"/>
<line x1="1054.5" y1="373.92" x2="793.5" y2="373.92" stroke="#E6E6DC" stroke-width="3" stroke-linecap="round"/>
<line x1="1054.5" y1="406.693" x2="793.5" y2="406.693" stroke="#E6E6DC" stroke-width="3" stroke-linecap="round"/>
<line x1="1054.5" y1="324.762" x2="793.5" y2="324.762" stroke="#E6E6DC" stroke-width="3" stroke-linecap="round"/>
<line x1="1054.5" y1="357.533" x2="793.5" y2="357.533" stroke="#E6E6DC" stroke-width="3" stroke-linecap="round"/>
<line x1="1054.5" y1="390.307" x2="793.5" y2="390.307" stroke="#E6E6DC" stroke-width="3" stroke-linecap="round"/>
<line x1="1054.5" y1="423.08" x2="793.5" y2="423.08" stroke="#E6E6DC" stroke-width="3" stroke-linecap="round"/>
<line x1="1054.5" y1="570.557" x2="793.5" y2="570.557" stroke="#E6E6DC" stroke-width="3" stroke-linecap="round"/>
<line x1="1054.5" y1="586.943" x2="793.5" y2="586.943" stroke="#E6E6DC" stroke-width="3" stroke-linecap="round"/>
<line x1="1054.5" y1="439.465" x2="793.5" y2="439.465" stroke="#E6E6DC" stroke-width="3" stroke-linecap="round"/>
<line x1="1054.5" y1="472.238" x2="793.5" y2="472.238" stroke="#E6E6DC" stroke-width="3" stroke-linecap="round"/>
<line x1="1054.5" y1="505.01" x2="793.5" y2="505.01" stroke="#E6E6DC" stroke-width="3" stroke-linecap="round"/>
<line x1="1054.5" y1="537.783" x2="793.5" y2="537.783" stroke="#E6E6DC" stroke-width="3" stroke-linecap="round"/>
<line x1="1054.5" y1="455.852" x2="793.5" y2="455.852" stroke="#E6E6DC" stroke-width="3" stroke-linecap="round"/>
<line x1="1054.5" y1="488.625" x2="793.5" y2="488.625" stroke="#E6E6DC" stroke-width="3" stroke-linecap="round"/>
<line x1="1054.5" y1="521.396" x2="793.5" y2="521.396" stroke="#E6E6DC" stroke-width="3" stroke-linecap="round"/>
<line x1="1054.5" y1="554.17" x2="793.5" y2="554.17" stroke="#E6E6DC" stroke-width="3" stroke-linecap="round"/>
<line x1="1438.5" y1="308.375" x2="1317.5" y2="308.375" stroke="#E6E6DC" stroke-width="3" stroke-linecap="round"/>
<line x1="1438.5" y1="341.146" x2="1317.5" y2="341.146" stroke="#E6E6DC" stroke-width="3" stroke-linecap="round"/>
<line x1="1438.5" y1="373.92" x2="1317.5" y2="373.92" stroke="#E6E6DC" stroke-width="3" stroke-linecap="round"/>
<line x1="1438.5" y1="406.693" x2="1317.5" y2="406.693" stroke="#E6E6DC" stroke-width="3" stroke-linecap="round"/>
<line x1="1438.5" y1="324.762" x2="1317.5" y2="324.762" stroke="#E6E6DC" stroke-width="3" stroke-linecap="round"/>
<line x1="1438.5" y1="357.533" x2="1317.5" y2="357.533" stroke="#E6E6DC" stroke-width="3" stroke-linecap="round"/>
<line x1="1438.5" y1="390.307" x2="1317.5" y2="390.307" stroke="#E6E6DC" stroke-width="3" stroke-linecap="round"/>
<line x1="1438.5" y1="423.08" x2="1317.5" y2="423.08" stroke="#E6E6DC" stroke-width="3" stroke-linecap="round"/>
<line x1="1438.5" y1="570.557" x2="1317.5" y2="570.557" stroke="#E6E6DC" stroke-width="3" stroke-linecap="round"/>
<line x1="1438.5" y1="586.943" x2="1317.5" y2="586.943" stroke="#E6E6DC" stroke-width="3" stroke-linecap="round"/>
<line x1="1438.5" y1="439.465" x2="1317.5" y2="439.465" stroke="#E6E6DC" stroke-width="3" stroke-linecap="round"/>
<line x1="1438.5" y1="472.238" x2="1317.5" y2="472.238" stroke="#E6E6DC" stroke-width="3" stroke-linecap="round"/>
<line x1="1438.5" y1="505.01" x2="1317.5" y2="505.01" stroke="#E6E6DC" stroke-width="3" stroke-linecap="round"/>
<line x1="1438.5" y1="537.783" x2="1317.5" y2="537.783" stroke="#E6E6DC" stroke-width="3" stroke-linecap="round"/>
<line x1="1438.5" y1="455.852" x2="1317.5" y2="455.852" stroke="#E6E6DC" stroke-width="3" stroke-linecap="round"/>
<line x1="1438.5" y1="488.625" x2="1317.5" y2="488.625" stroke="#E6E6DC" stroke-width="3" stroke-linecap="round"/>
<line x1="1438.5" y1="521.396" x2="1317.5" y2="521.396" stroke="#E6E6DC" stroke-width="3" stroke-linecap="round"/>
<line x1="1438.5" y1="554.17" x2="1317.5" y2="554.17" stroke="#E6E6DC" stroke-width="3" stroke-linecap="round"/>
<line x1="908.5" y1="295.5" x2="908.5" y2="601.5" stroke="#E6E6DC" stroke-width="3" stroke-linecap="round"/>
<line x1="936.5" y1="295.5" x2="936.5" y2="601.5" stroke="#E6E6DC" stroke-width="3" stroke-linecap="round"/>
<line x1="964.5" y1="295.5" x2="964.5" y2="601.5" stroke="#E6E6DC" stroke-width="3" stroke-linecap="round"/>
<line x1="992.5" y1="295.5" x2="992.5" y2="601.5" stroke="#E6E6DC" stroke-width="3" stroke-linecap="round"/>
<line x1="922.5" y1="295.5" x2="922.5" y2="601.5" stroke="#E6E6DC" stroke-width="3" stroke-linecap="round"/>
<line x1="950.5" y1="295.5" x2="950.5" y2="601.5" stroke="#E6E6DC" stroke-width="3" stroke-linecap="round"/>
<line x1="978.5" y1="295.5" x2="978.5" y2="601.5" stroke="#E6E6DC" stroke-width="3" stroke-linecap="round"/>
<line x1="1006.5" y1="295.5" x2="1006.5" y2="601.5" stroke="#E6E6DC" stroke-width="3" stroke-linecap="round"/>
<line x1="1132.5" y1="295.5" x2="1132.5" y2="601.5" stroke="#E6E6DC" stroke-width="3" stroke-linecap="round"/>
<line x1="1160.5" y1="295.5" x2="1160.5" y2="601.5" stroke="#E6E6DC" stroke-width="3" stroke-linecap="round"/>
<line x1="1188.5" y1="295.5" x2="1188.5" y2="601.5" stroke="#E6E6DC" stroke-width="3" stroke-linecap="round"/>
<line x1="1216.5" y1="295.5" x2="1216.5" y2="601.5" stroke="#E6E6DC" stroke-width="3" stroke-linecap="round"/>
<line x1="1146.5" y1="295.5" x2="1146.5" y2="601.5" stroke="#E6E6DC" stroke-width="3" stroke-linecap="round"/>
<line x1="1174.5" y1="295.5" x2="1174.5" y2="601.5" stroke="#E6E6DC" stroke-width="3" stroke-linecap="round"/>
<line x1="1202.5" y1="295.5" x2="1202.5" y2="601.5" stroke="#E6E6DC" stroke-width="3" stroke-linecap="round"/>
<line x1="1230.5" y1="295.5" x2="1230.5" y2="601.5" stroke="#E6E6DC" stroke-width="3" stroke-linecap="round"/>
<line x1="1020.5" y1="295.5" x2="1020.5" y2="601.5" stroke="#E6E6DC" stroke-width="3" stroke-linecap="round"/>
<line x1="1048.5" y1="295.5" x2="1048.5" y2="601.5" stroke="#E6E6DC" stroke-width="3" stroke-linecap="round"/>
<line x1="1076.5" y1="295.5" x2="1076.5" y2="601.5" stroke="#E6E6DC" stroke-width="3" stroke-linecap="round"/>
<line x1="1104.5" y1="295.5" x2="1104.5" y2="601.5" stroke="#E6E6DC" stroke-width="3" stroke-linecap="round"/>
<line x1="1034.5" y1="295.5" x2="1034.5" y2="601.5" stroke="#E6E6DC" stroke-width="3" stroke-linecap="round"/>
<line x1="1062.5" y1="295.5" x2="1062.5" y2="601.5" stroke="#E6E6DC" stroke-width="3" stroke-linecap="round"/>
<line x1="1090.5" y1="295.5" x2="1090.5" y2="601.5" stroke="#E6E6DC" stroke-width="3" stroke-linecap="round"/>
<line x1="1118.5" y1="295.5" x2="1118.5" y2="601.5" stroke="#E6E6DC" stroke-width="3" stroke-linecap="round"/>
<line x1="1244.5" y1="295.5" x2="1244.5" y2="601.5" stroke="#E6E6DC" stroke-width="3" stroke-linecap="round"/>
<line x1="1272.5" y1="295.5" x2="1272.5" y2="601.5" stroke="#E6E6DC" stroke-width="3" stroke-linecap="round"/>
<line x1="1300.5" y1="295.5" x2="1300.5" y2="601.5" stroke="#E6E6DC" stroke-width="3" stroke-linecap="round"/>
<line x1="1328.5" y1="295.5" x2="1328.5" y2="601.5" stroke="#E6E6DC" stroke-width="3" stroke-linecap="round"/>
<line x1="1258.5" y1="295.5" x2="1258.5" y2="601.5" stroke="#E6E6DC" stroke-width="3" stroke-linecap="round"/>
<line x1="1286.5" y1="295.5" x2="1286.5" y2="601.5" stroke="#E6E6DC" stroke-width="3" stroke-linecap="round"/>
<line x1="1314.5" y1="295.5" x2="1314.5" y2="601.5" stroke="#E6E6DC" stroke-width="3" stroke-linecap="round"/>
<line x1="1342.5" y1="295.5" x2="1342.5" y2="601.5" stroke="#E6E6DC" stroke-width="3" stroke-linecap="round"/>
<line x1="460.5" y1="295.5" x2="460.5" y2="601.5" stroke="#E6E6DC" stroke-width="3" stroke-linecap="round"/>
<line x1="488.5" y1="295.5" x2="488.5" y2="601.5" stroke="#E6E6DC" stroke-width="3" stroke-linecap="round"/>
<line x1="516.5" y1="295.5" x2="516.5" y2="601.5" stroke="#E6E6DC" stroke-width="3" stroke-linecap="round"/>
<line x1="544.5" y1="295.5" x2="544.5" y2="601.5" stroke="#E6E6DC" stroke-width="3" stroke-linecap="round"/>
<line x1="474.5" y1="295.5" x2="474.5" y2="601.5" stroke="#E6E6DC" stroke-width="3" stroke-linecap="round"/>
<line x1="502.5" y1="295.5" x2="502.5" y2="601.5" stroke="#E6E6DC" stroke-width="3" stroke-linecap="round"/>
<line x1="530.5" y1="295.5" x2="530.5" y2="601.5" stroke="#E6E6DC" stroke-width="3" stroke-linecap="round"/>
<line x1="558.5" y1="295.5" x2="558.5" y2="601.5" stroke="#E6E6DC" stroke-width="3" stroke-linecap="round"/>
<line x1="684.5" y1="295.5" x2="684.5" y2="601.5" stroke="#E6E6DC" stroke-width="3" stroke-linecap="round"/>
<line x1="712.5" y1="295.5" x2="712.5" y2="601.5" stroke="#E6E6DC" stroke-width="3" stroke-linecap="round"/>
<line x1="740.5" y1="295.5" x2="740.5" y2="601.5" stroke="#E6E6DC" stroke-width="3" stroke-linecap="round"/>
<line x1="768.5" y1="295.5" x2="768.5" y2="601.5" stroke="#E6E6DC" stroke-width="3" stroke-linecap="round"/>
<line x1="698.5" y1="295.5" x2="698.5" y2="601.5" stroke="#E6E6DC" stroke-width="3" stroke-linecap="round"/>
<line x1="726.5" y1="295.5" x2="726.5" y2="601.5" stroke="#E6E6DC" stroke-width="3" stroke-linecap="round"/>
<line x1="754.5" y1="295.5" x2="754.5" y2="601.5" stroke="#E6E6DC" stroke-width="3" stroke-linecap="round"/>
<line x1="782.5" y1="295.5" x2="782.5" y2="601.5" stroke="#E6E6DC" stroke-width="3" stroke-linecap="round"/>
<line x1="572.5" y1="295.5" x2="572.5" y2="601.5" stroke="#E6E6DC" stroke-width="3" stroke-linecap="round"/>
<line x1="600.5" y1="295.5" x2="600.5" y2="601.5" stroke="#E6E6DC" stroke-width="3" stroke-linecap="round"/>
<line x1="628.5" y1="295.5" x2="628.5" y2="601.5" stroke="#E6E6DC" stroke-width="3" stroke-linecap="round"/>
<line x1="656.5" y1="295.5" x2="656.5" y2="601.5" stroke="#E6E6DC" stroke-width="3" stroke-linecap="round"/>
<line x1="586.5" y1="295.5" x2="586.5" y2="601.5" stroke="#E6E6DC" stroke-width="3" stroke-linecap="round"/>
<line x1="614.5" y1="295.5" x2="614.5" y2="601.5" stroke="#E6E6DC" stroke-width="3" stroke-linecap="round"/>
<line x1="642.5" y1="295.5" x2="642.5" y2="601.5" stroke="#E6E6DC" stroke-width="3" stroke-linecap="round"/>
<line x1="670.5" y1="295.5" x2="670.5" y2="601.5" stroke="#E6E6DC" stroke-width="3" stroke-linecap="round"/>
<line x1="796.5" y1="295.5" x2="796.5" y2="601.5" stroke="#E6E6DC" stroke-width="3" stroke-linecap="round"/>
<line x1="824.5" y1="295.5" x2="824.5" y2="601.5" stroke="#E6E6DC" stroke-width="3" stroke-linecap="round"/>
<line x1="852.5" y1="295.5" x2="852.5" y2="601.5" stroke="#E6E6DC" stroke-width="3" stroke-linecap="round"/>
<line x1="880.5" y1="295.5" x2="880.5" y2="601.5" stroke="#E6E6DC" stroke-width="3" stroke-linecap="round"/>
<line x1="810.5" y1="295.5" x2="810.5" y2="601.5" stroke="#E6E6DC" stroke-width="3" stroke-linecap="round"/>
<line x1="838.5" y1="295.5" x2="838.5" y2="601.5" stroke="#E6E6DC" stroke-width="3" stroke-linecap="round"/>
<line x1="866.5" y1="295.5" x2="866.5" y2="601.5" stroke="#E6E6DC" stroke-width="3" stroke-linecap="round"/>
<line x1="894.5" y1="295.5" x2="894.5" y2="601.5" stroke="#E6E6DC" stroke-width="3" stroke-linecap="round"/>
<line x1="1355.5" y1="295.5" x2="1355.5" y2="601.5" stroke="#E6E6DC" stroke-width="3" stroke-linecap="round"/>
<line x1="1383.5" y1="295.5" x2="1383.5" y2="601.5" stroke="#E6E6DC" stroke-width="3" stroke-linecap="round"/>
<line x1="1411.5" y1="295.5" x2="1411.5" y2="601.5" stroke="#E6E6DC" stroke-width="3" stroke-linecap="round"/>
<line x1="1439.5" y1="295.5" x2="1439.5" y2="601.5" stroke="#E6E6DC" stroke-width="3" stroke-linecap="round"/>
<line x1="1369.5" y1="295.5" x2="1369.5" y2="601.5" stroke="#E6E6DC" stroke-width="3" stroke-linecap="round"/>
<line x1="1397.5" y1="295.5" x2="1397.5" y2="601.5" stroke="#E6E6DC" stroke-width="3" stroke-linecap="round"/>
<line x1="1425.5" y1="295.5" x2="1425.5" y2="601.5" stroke="#E6E6DC" stroke-width="3" stroke-linecap="round"/>
<line x1="13.5" y1="295.5" x2="13.5" y2="601.5" stroke="#E6E6DC" stroke-width="3" stroke-linecap="round"/>
<line x1="41.5" y1="295.5" x2="41.5" y2="601.5" stroke="#E6E6DC" stroke-width="3" stroke-linecap="round"/>
<line x1="69.5" y1="295.5" x2="69.5" y2="601.5" stroke="#E6E6DC" stroke-width="3" stroke-linecap="round"/>
<line x1="97.5" y1="295.5" x2="97.5" y2="601.5" stroke="#E6E6DC" stroke-width="3" stroke-linecap="round"/>
<line x1="27.5" y1="295.5" x2="27.5" y2="601.5" stroke="#E6E6DC" stroke-width="3" stroke-linecap="round"/>
<line x1="55.5" y1="295.5" x2="55.5" y2="601.5" stroke="#E6E6DC" stroke-width="3" stroke-linecap="round"/>
<line x1="83.5" y1="295.5" x2="83.5" y2="601.5" stroke="#E6E6DC" stroke-width="3" stroke-linecap="round"/>
<line x1="111.5" y1="295.5" x2="111.5" y2="601.5" stroke="#E6E6DC" stroke-width="3" stroke-linecap="round"/>
<line x1="237.5" y1="295.5" x2="237.5" y2="601.5" stroke="#E6E6DC" stroke-width="3" stroke-linecap="round"/>
<line x1="265.5" y1="295.5" x2="265.5" y2="601.5" stroke="#E6E6DC" stroke-width="3" stroke-linecap="round"/>
<line x1="293.5" y1="295.5" x2="293.5" y2="601.5" stroke="#E6E6DC" stroke-width="3" stroke-linecap="round"/>
<line x1="321.5" y1="295.5" x2="321.5" y2="601.5" stroke="#E6E6DC" stroke-width="3" stroke-linecap="round"/>
<line x1="251.5" y1="295.5" x2="251.5" y2="601.5" stroke="#E6E6DC" stroke-width="3" stroke-linecap="round"/>
<line x1="279.5" y1="295.5" x2="279.5" y2="601.5" stroke="#E6E6DC" stroke-width="3" stroke-linecap="round"/>
<line x1="307.5" y1="295.5" x2="307.5" y2="601.5" stroke="#E6E6DC" stroke-width="3" stroke-linecap="round"/>
<line x1="335.5" y1="295.5" x2="335.5" y2="601.5" stroke="#E6E6DC" stroke-width="3" stroke-linecap="round"/>
<line x1="125.5" y1="295.5" x2="125.5" y2="601.5" stroke="#E6E6DC" stroke-width="3" stroke-linecap="round"/>
<line x1="153.5" y1="295.5" x2="153.5" y2="601.5" stroke="#E6E6DC" stroke-width="3" stroke-linecap="round"/>
<line x1="181.5" y1="295.5" x2="181.5" y2="601.5" stroke="#E6E6DC" stroke-width="3" stroke-linecap="round"/>
<line x1="209.5" y1="295.5" x2="209.5" y2="601.5" stroke="#E6E6DC" stroke-width="3" stroke-linecap="round"/>
<line x1="139.5" y1="295.5" x2="139.5" y2="601.5" stroke="#E6E6DC" stroke-width="3" stroke-linecap="round"/>
<line x1="167.5" y1="295.5" x2="167.5" y2="601.5" stroke="#E6E6DC" stroke-width="3" stroke-linecap="round"/>
<line x1="195.5" y1="295.5" x2="195.5" y2="601.5" stroke="#E6E6DC" stroke-width="3" stroke-linecap="round"/>
<line x1="223.5" y1="295.5" x2="223.5" y2="601.5" stroke="#E6E6DC" stroke-width="3" stroke-linecap="round"/>
<line x1="349.5" y1="295.5" x2="349.5" y2="601.5" stroke="#E6E6DC" stroke-width="3" stroke-linecap="round"/>
<line x1="377.5" y1="295.5" x2="377.5" y2="601.5" stroke="#E6E6DC" stroke-width="3" stroke-linecap="round"/>
<line x1="405.5" y1="295.5" x2="405.5" y2="601.5" stroke="#E6E6DC" stroke-width="3" stroke-linecap="round"/>
<line x1="433.5" y1="295.5" x2="433.5" y2="601.5" stroke="#E6E6DC" stroke-width="3" stroke-linecap="round"/>
<line x1="363.5" y1="295.5" x2="363.5" y2="601.5" stroke="#E6E6DC" stroke-width="3" stroke-linecap="round"/>
<line x1="391.5" y1="295.5" x2="391.5" y2="601.5" stroke="#E6E6DC" stroke-width="3" stroke-linecap="round"/>
<line x1="419.5" y1="295.5" x2="419.5" y2="601.5" stroke="#E6E6DC" stroke-width="3" stroke-linecap="round"/>
<line x1="447.5" y1="295.5" x2="447.5" y2="601.5" stroke="#E6E6DC" stroke-width="3" stroke-linecap="round"/>
</svg>
