<svg width="622" height="165" viewBox="0 0 622 165" fill="none" xmlns="http://www.w3.org/2000/svg">
<path d="M144.249 140.58H479.804" stroke="white" stroke-width="3"/>
<path d="M21.7841 93.5797L1.80682 23.7615H17.9318L29.4886 72.2729H30.0682L42.8182 23.7615H56.625L69.3409 72.3752H69.9545L81.5114 23.7615H97.6364L77.6591 93.5797H63.2727L49.9773 47.932H49.4318L36.1705 93.5797H21.7841ZM105.537 93.5797V23.7615H152.582V35.932H120.298V52.5683H150.162V64.7388H120.298V81.4093H152.719V93.5797H105.537ZM179.08 23.7615V93.5797H164.318V23.7615H179.08ZM213.443 93.5797V23.7615H228.205V54.5456H229.125L254.25 23.7615H271.943L246.034 55.0229L272.25 93.5797H254.591L235.466 64.8752L228.205 73.7388V93.5797H213.443ZM339.852 58.6706C339.852 66.2843 338.409 72.7615 335.523 78.1024C332.659 83.4433 328.75 87.5229 323.795 90.3411C318.864 93.1365 313.318 94.5343 307.159 94.5343C300.955 94.5343 295.386 93.1252 290.455 90.307C285.523 87.4888 281.625 83.4093 278.761 78.0683C275.898 72.7274 274.466 66.2615 274.466 58.6706C274.466 51.057 275.898 44.5797 278.761 39.2388C281.625 33.8979 285.523 29.8297 290.455 27.0343C295.386 24.2161 300.955 22.807 307.159 22.807C313.318 22.807 318.864 24.2161 323.795 27.0343C328.75 29.8297 332.659 33.8979 335.523 39.2388C338.409 44.5797 339.852 51.057 339.852 58.6706ZM324.886 58.6706C324.886 53.7388 324.148 49.5797 322.67 46.1933C321.216 42.807 319.159 40.2388 316.5 38.4888C313.841 36.7388 310.727 35.8638 307.159 35.8638C303.591 35.8638 300.477 36.7388 297.818 38.4888C295.159 40.2388 293.091 42.807 291.614 46.1933C290.159 49.5797 289.432 53.7388 289.432 58.6706C289.432 63.6024 290.159 67.7615 291.614 71.1479C293.091 74.5343 295.159 77.1024 297.818 78.8524C300.477 80.6024 303.591 81.4774 307.159 81.4774C310.727 81.4774 313.841 80.6024 316.5 78.8524C319.159 77.1024 321.216 74.5343 322.67 71.1479C324.148 67.7615 324.886 63.6024 324.886 58.6706ZM383.139 52.9093V64.432H351.298V52.9093H383.139ZM395.787 93.5797V23.7615H410.548V52.5683H440.514V23.7615H455.241V93.5797H440.514V64.7388H410.548V93.5797H395.787ZM505.287 43.8411C505.014 41.0911 503.844 38.9547 501.776 37.432C499.707 35.9093 496.901 35.1479 493.355 35.1479C490.946 35.1479 488.912 35.4888 487.253 36.1706C485.594 36.8297 484.321 37.7502 483.435 38.932C482.571 40.1138 482.139 41.4547 482.139 42.9547C482.094 44.2047 482.355 45.2956 482.923 46.2274C483.514 47.1593 484.321 47.9661 485.344 48.6479C486.366 49.307 487.548 49.8865 488.889 50.3865C490.23 50.8638 491.662 51.2729 493.185 51.6138L499.457 53.1138C502.503 53.7956 505.298 54.7047 507.844 55.8411C510.389 56.9774 512.594 58.3752 514.457 60.0343C516.321 61.6933 517.764 63.6479 518.787 65.8979C519.832 68.1479 520.366 70.7274 520.389 73.6365C520.366 77.9093 519.276 81.6138 517.116 84.7502C514.98 87.8638 511.889 90.2843 507.844 92.0115C503.821 93.7161 498.969 94.5683 493.287 94.5683C487.651 94.5683 482.741 93.7047 478.56 91.9774C474.401 90.2502 471.151 87.6933 468.81 84.307C466.491 80.8979 465.276 76.682 465.162 71.6593H479.446C479.605 74.0002 480.276 75.9547 481.457 77.5229C482.662 79.0683 484.264 80.2388 486.264 81.0343C488.287 81.807 490.571 82.1933 493.116 82.1933C495.616 82.1933 497.787 81.8297 499.628 81.1024C501.491 80.3752 502.935 79.3638 503.957 78.0683C504.98 76.7729 505.491 75.2843 505.491 73.6024C505.491 72.0343 505.026 70.7161 504.094 69.6479C503.185 68.5797 501.844 67.6706 500.071 66.9206C498.321 66.1706 496.173 65.4888 493.628 64.8752L486.026 62.9661C480.139 61.5343 475.491 59.2956 472.082 56.2502C468.673 53.2047 466.98 49.1024 467.003 43.9433C466.98 39.7161 468.105 36.0229 470.378 32.8638C472.673 29.7047 475.821 27.2388 479.821 25.4661C483.821 23.6933 488.366 22.807 493.457 22.807C498.639 22.807 503.162 23.6933 507.026 25.4661C510.912 27.2388 513.935 29.7047 516.094 32.8638C518.253 36.0229 519.366 39.682 519.435 43.8411H505.287ZM545.08 23.7615V93.5797H530.318V23.7615H545.08ZM615.622 23.7615V93.5797H602.872L572.497 49.6365H571.986V93.5797H557.224V23.7615H570.179L600.315 67.6706H600.929V23.7615H615.622Z" fill="white"/>
<path d="M10.6848 128.62H27.4448V132.38H10.6848V128.62ZM10.4048 142.5H28.0848V146.22H10.4048V142.5ZM35.0048 127.46H38.8448V140.82H35.0048V127.46ZM17.3248 125.18H21.2848V140.06H17.3248V125.18ZM35.9648 142.06H39.8448V154.14C39.8448 154.7 39.8982 155.046 40.0048 155.18C40.1382 155.313 40.4315 155.38 40.8848 155.38C40.9915 155.38 41.1515 155.38 41.3648 155.38C41.6048 155.38 41.8582 155.38 42.1248 155.38C42.4182 155.38 42.6848 155.38 42.9248 155.38C43.1915 155.38 43.3782 155.38 43.4848 155.38C43.7515 155.38 43.9515 155.313 44.0848 155.18C44.2182 155.046 44.3248 154.766 44.4048 154.34C44.4848 153.913 44.5382 153.273 44.5648 152.42C44.9648 152.713 45.4982 153.006 46.1648 153.3C46.8315 153.566 47.4315 153.766 47.9648 153.9C47.7782 155.846 47.3782 157.166 46.7648 157.86C46.1515 158.553 45.1915 158.9 43.8848 158.9C43.7248 158.9 43.4715 158.9 43.1248 158.9C42.8048 158.9 42.4448 158.9 42.0448 158.9C41.6715 158.9 41.3248 158.9 41.0048 158.9C40.6848 158.9 40.4315 158.9 40.2448 158.9C39.0982 158.9 38.2048 158.753 37.5648 158.46C36.9515 158.193 36.5248 157.713 36.2848 157.02C36.0715 156.326 35.9648 155.366 35.9648 154.14V142.06ZM34.8848 121.58L39.9248 122.22C39.5515 123.313 39.1515 124.353 38.7248 125.34C38.3248 126.326 37.9515 127.18 37.6048 127.9L33.4048 127.22C33.6982 126.393 33.9782 125.46 34.2448 124.42C34.5382 123.353 34.7515 122.406 34.8848 121.58ZM39.4848 149.66C40.4448 149.553 41.5115 149.433 42.6848 149.3C43.8848 149.14 45.1648 148.98 46.5248 148.82L46.6448 151.14C45.5248 151.353 44.4448 151.566 43.4048 151.78C42.3915 151.966 41.3782 152.153 40.3648 152.34L39.4848 149.66ZM43.8848 146.86L46.1248 146.1C46.5515 146.98 46.9248 147.94 47.2448 148.98C47.5915 149.993 47.8315 150.886 47.9648 151.66L45.5648 152.54C45.4582 151.766 45.2448 150.86 44.9248 149.82C44.6315 148.753 44.2848 147.766 43.8848 146.86ZM41.7248 143.54L44.5248 144.06C44.1782 145.18 43.8048 146.366 43.4048 147.62C43.0048 148.846 42.6315 149.886 42.2848 150.74L40.2848 150.18C40.4715 149.566 40.6582 148.873 40.8448 148.1C41.0315 147.3 41.2048 146.5 41.3648 145.7C41.5248 144.9 41.6448 144.18 41.7248 143.54ZM32.0448 136.22V138.9H42.0048V136.22H32.0448ZM32.0448 130.02V132.66H42.0048V130.02H32.0448ZM28.2048 126.18H46.0448V142.74H28.2048V126.18ZM24.6048 121.98L27.3248 125.18C25.9115 125.553 24.3382 125.873 22.6048 126.14C20.8715 126.406 19.0982 126.62 17.2848 126.78C15.4982 126.913 13.7782 127.02 12.1248 127.1C12.0715 126.646 11.9382 126.1 11.7248 125.46C11.5115 124.82 11.2982 124.286 11.0848 123.86C12.6582 123.726 14.2715 123.58 15.9248 123.42C17.6048 123.26 19.1915 123.06 20.6848 122.82C22.2048 122.553 23.5115 122.273 24.6048 121.98ZM16.5248 130.82L19.5648 132.54C19.0582 133.58 18.4048 134.646 17.6048 135.74C16.8048 136.833 15.9382 137.846 15.0048 138.78C14.0715 139.713 13.1382 140.513 12.2048 141.18C11.9115 140.7 11.5248 140.153 11.0448 139.54C10.5915 138.9 10.1382 138.366 9.68484 137.94C10.5648 137.486 11.4448 136.873 12.3248 136.1C13.2315 135.326 14.0448 134.486 14.7648 133.58C15.4848 132.646 16.0715 131.726 16.5248 130.82ZM16.5248 139.9L20.5248 140.66C19.9915 142.02 19.3915 143.433 18.7248 144.9C18.0848 146.366 17.4315 147.78 16.7648 149.14C16.1248 150.5 15.5248 151.726 14.9648 152.82L11.2048 151.34C11.7648 150.353 12.3648 149.206 13.0048 147.9C13.6448 146.566 14.2715 145.206 14.8848 143.82C15.4982 142.406 16.0448 141.1 16.5248 139.9ZM14.0848 151.62L15.9248 148.42C17.1248 148.82 18.3915 149.313 19.7248 149.9C21.0848 150.486 22.3782 151.086 23.6048 151.7C24.8315 152.313 25.8315 152.9 26.6048 153.46L24.6448 157.06C23.9248 156.473 22.9515 155.86 21.7248 155.22C20.5248 154.553 19.2448 153.9 17.8848 153.26C16.5515 152.62 15.2848 152.073 14.0848 151.62ZM20.8448 131.54C21.1648 131.753 21.6315 132.086 22.2448 132.54C22.8848 132.966 23.5648 133.446 24.2848 133.98C25.0048 134.486 25.6448 134.966 26.2048 135.42C26.7915 135.873 27.2048 136.22 27.4448 136.46L24.8848 139.54C24.5648 139.14 24.1382 138.66 23.6048 138.1C23.0982 137.54 22.5382 136.953 21.9248 136.34C21.3382 135.7 20.7515 135.113 20.1648 134.58C19.6048 134.02 19.1248 133.566 18.7248 133.22L20.8448 131.54ZM21.8848 143.86L26.2048 143.9C25.7782 146.806 25.0048 149.26 23.8848 151.26C22.7648 153.233 21.2715 154.846 19.4048 156.1C17.5382 157.38 15.2448 158.406 12.5248 159.18C12.3915 158.86 12.1915 158.486 11.9248 158.06C11.6848 157.633 11.4182 157.206 11.1248 156.78C10.8582 156.38 10.5915 156.046 10.3248 155.78C13.9248 154.953 16.6582 153.633 18.5248 151.82C20.4182 149.98 21.5382 147.326 21.8848 143.86ZM30.5648 142.1H34.4448V145.18C34.4448 146.166 34.3648 147.273 34.2048 148.5C34.0448 149.7 33.7115 150.94 33.2048 152.22C32.7248 153.5 31.9915 154.74 31.0048 155.94C30.0448 157.14 28.7782 158.233 27.2048 159.22C27.0448 158.9 26.8182 158.54 26.5248 158.14C26.2315 157.766 25.9115 157.38 25.5648 156.98C25.2448 156.606 24.9382 156.313 24.6448 156.1C25.9782 155.273 27.0315 154.393 27.8048 153.46C28.6048 152.5 29.1915 151.526 29.5648 150.54C29.9648 149.553 30.2315 148.593 30.3648 147.66C30.4982 146.7 30.5648 145.833 30.5648 145.06V142.1ZM77.4448 125.62H82.4848V153.1C82.4848 154.54 82.2982 155.646 81.9248 156.42C81.5515 157.22 80.8715 157.82 79.8848 158.22C78.9248 158.62 77.6982 158.86 76.2048 158.94C74.7115 159.046 72.9382 159.1 70.8848 159.1C70.7782 158.62 70.6182 158.06 70.4048 157.42C70.1915 156.806 69.9382 156.193 69.6448 155.58C69.3782 154.966 69.1115 154.446 68.8448 154.02C69.8315 154.046 70.8182 154.073 71.8048 154.1C72.8182 154.126 73.7248 154.14 74.5248 154.14C75.3248 154.14 75.8848 154.14 76.2048 154.14C76.6582 154.14 76.9782 154.06 77.1648 153.9C77.3515 153.74 77.4448 153.446 77.4448 153.02V125.62ZM54.6048 133.62H59.2448V152.26H54.6048V133.62ZM56.5648 133.62H71.6448V149.18H56.5648V144.58H66.9248V138.18H56.5648V133.62ZM50.8848 124.26H87.1248V129.14H50.8848V124.26ZM110.725 135.14H127.805V139.54H110.725V135.14ZM122.485 121.58L126.405 125.38C124.965 126.1 123.392 126.766 121.685 127.38C120.005 127.993 118.272 128.553 116.485 129.06C114.725 129.54 113.005 129.966 111.325 130.34C111.192 129.78 110.965 129.126 110.645 128.38C110.325 127.633 110.005 126.993 109.685 126.46C111.258 126.086 112.832 125.633 114.405 125.1C115.978 124.566 117.458 124.006 118.845 123.42C120.258 122.806 121.472 122.193 122.485 121.58ZM117.805 136.14H122.605V159.18H117.805V136.14ZM107.885 124.78L113.605 126.38C113.578 126.753 113.232 126.98 112.565 127.06V138.22C112.565 139.74 112.485 141.42 112.325 143.26C112.165 145.1 111.858 146.993 111.405 148.94C110.952 150.86 110.272 152.726 109.365 154.54C108.485 156.353 107.312 157.993 105.845 159.46C105.658 159.113 105.352 158.713 104.925 158.26C104.525 157.833 104.098 157.42 103.645 157.02C103.192 156.62 102.778 156.326 102.405 156.14C103.632 154.86 104.605 153.473 105.325 151.98C106.072 150.46 106.632 148.913 107.005 147.34C107.378 145.74 107.618 144.153 107.725 142.58C107.832 141.006 107.885 139.513 107.885 138.1V124.78ZM94.5248 124.22H104.845V151.26H94.5248V146.94H100.405V128.5H94.5248V124.22ZM94.2048 135.5H102.245V139.7H94.2048V135.5ZM91.6448 124.22H96.0448V154.3H91.6448V124.22Z" fill="white"/>
<path d="M521.72 128.14H540.88V132.7H519.44L521.72 128.14ZM526.96 136.9H539.88V141.3H526.96V136.9ZM526.92 145.78H540.4V150.26H526.92V145.78ZM524.52 129.66H529.48V159.14H524.52V129.66ZM522.64 121.98L527.24 123.18C526.493 125.34 525.613 127.486 524.6 129.62C523.613 131.753 522.533 133.753 521.36 135.62C520.187 137.46 518.987 139.086 517.76 140.5C517.52 140.18 517.173 139.806 516.72 139.38C516.267 138.953 515.8 138.54 515.32 138.14C514.867 137.713 514.453 137.38 514.08 137.14C515.28 135.94 516.4 134.526 517.44 132.9C518.507 131.273 519.48 129.526 520.36 127.66C521.267 125.766 522.027 123.873 522.64 121.98ZM512.04 121.74L516.68 123.22C515.827 125.486 514.813 127.766 513.64 130.06C512.467 132.353 511.187 134.526 509.8 136.58C508.413 138.606 506.987 140.38 505.52 141.9C505.36 141.5 505.12 140.98 504.8 140.34C504.507 139.7 504.187 139.046 503.84 138.38C503.493 137.713 503.173 137.18 502.88 136.78C504.107 135.553 505.28 134.14 506.4 132.54C507.547 130.94 508.6 129.22 509.56 127.38C510.547 125.54 511.373 123.66 512.04 121.74ZM508 132.82L512.84 127.98V128.02V159.1H508V132.82ZM554.96 127.78V133.14H569.04V127.78H554.96ZM550.32 123.18H573.92V137.7H550.32V123.18ZM544.8 141.06H560.12V158.94H555.32V145.66H549.36V159.18H544.8V141.06ZM563.48 141.06H579.32V158.98H574.52V145.66H568.08V159.18H563.48V141.06ZM546.8 152.54H557.32V157.14H546.8V152.54ZM565.68 152.54H576.88V157.14H565.68V152.54ZM583.92 146.22H620.08V150.02H583.92V146.22ZM591.6 131.3H615.84V134.42H591.6V131.3ZM591.6 136.1H615.92V139.26H591.6V136.1ZM590.64 125.94H617.84V129.66H590.64V125.94ZM600.64 128.3H605.24V142.34H600.64V128.3ZM599.52 143.66H604.28V159.14H599.52V143.66ZM599.12 147.78L602.72 149.58C601.707 150.566 600.533 151.54 599.2 152.5C597.893 153.433 596.48 154.313 594.96 155.14C593.44 155.94 591.893 156.66 590.32 157.3C588.747 157.94 587.2 158.473 585.68 158.9C585.307 158.313 584.827 157.62 584.24 156.82C583.653 156.046 583.107 155.42 582.6 154.94C584.12 154.62 585.667 154.22 587.24 153.74C588.813 153.233 590.333 152.673 591.8 152.06C593.293 151.42 594.667 150.74 595.92 150.02C597.173 149.3 598.24 148.553 599.12 147.78ZM604.84 147.66C605.72 148.433 606.76 149.18 607.96 149.9C609.187 150.62 610.52 151.3 611.96 151.94C613.427 152.553 614.933 153.113 616.48 153.62C618.027 154.1 619.547 154.513 621.04 154.86C620.693 155.153 620.333 155.526 619.96 155.98C619.587 156.46 619.227 156.94 618.88 157.42C618.533 157.9 618.253 158.326 618.04 158.7C616.52 158.273 614.973 157.74 613.4 157.1C611.853 156.46 610.333 155.74 608.84 154.94C607.373 154.14 605.987 153.286 604.68 152.38C603.373 151.446 602.2 150.486 601.16 149.5L604.84 147.66ZM602.6 121.58L608 122.26C607.387 123.433 606.733 124.566 606.04 125.66C605.373 126.753 604.76 127.673 604.2 128.42L599.96 127.62C600.44 126.74 600.933 125.74 601.44 124.62C601.947 123.5 602.333 122.486 602.6 121.58ZM592.36 121.5L597.32 122.5C596.413 124.046 595.413 125.58 594.32 127.1C593.227 128.62 592.013 130.113 590.68 131.58C589.347 133.02 587.853 134.393 586.2 135.7C585.96 135.353 585.64 134.98 585.24 134.58C584.84 134.153 584.413 133.753 583.96 133.38C583.533 132.98 583.147 132.673 582.8 132.46C584.293 131.393 585.64 130.246 586.84 129.02C588.067 127.766 589.147 126.5 590.08 125.22C591.013 123.913 591.773 122.673 592.36 121.5ZM588.52 128.38H593.04V140.98H619V144.58H588.52V128.38Z" fill="white"/>
</svg>
