<svg width="205" height="108" viewBox="0 0 205 108" fill="none" xmlns="http://www.w3.org/2000/svg">
<mask id="path-1-outside-1_644_2061" maskUnits="userSpaceOnUse" x="-0.283203" y="12.9004" width="206" height="53" fill="black">
<rect fill="white" x="-0.283203" y="12.9004" width="206" height="53"/>
<path d="M16.2395 62.9004L2.92134 16.3549H13.6713L21.3759 48.6958H21.7623L30.2623 16.3549H39.4668L47.9441 48.764H48.3532L56.0577 16.3549H66.8077L53.4895 62.9004H43.8986L35.035 32.4686H34.6713L25.8304 62.9004H16.2395ZM112.222 39.6277C112.222 44.7034 111.26 49.0216 109.336 52.5822C107.427 56.1428 104.821 58.8625 101.518 60.7413C98.2301 62.6049 94.5331 63.5368 90.427 63.5368C86.2907 63.5368 82.5785 62.5974 79.2907 60.7186C76.0028 58.8398 73.4043 56.1201 71.4952 52.5595C69.5861 48.9989 68.6316 44.6883 68.6316 39.6277C68.6316 34.5519 69.5861 30.2337 71.4952 26.6731C73.4043 23.1125 76.0028 20.4004 79.2907 18.5368C82.5785 16.658 86.2907 15.7186 90.427 15.7186C94.5331 15.7186 98.2301 16.658 101.518 18.5368C104.821 20.4004 107.427 23.1125 109.336 26.6731C111.26 30.2337 112.222 34.5519 112.222 39.6277ZM102.245 39.6277C102.245 36.3398 101.753 33.5671 100.768 31.3095C99.7982 29.0519 98.427 27.3398 96.6543 26.1731C94.8816 25.0065 92.8058 24.4231 90.427 24.4231C88.0482 24.4231 85.9725 25.0065 84.1998 26.1731C82.427 27.3398 81.0482 29.0519 80.0634 31.3095C79.0937 33.5671 78.6088 36.3398 78.6088 39.6277C78.6088 42.9155 79.0937 45.6883 80.0634 47.9458C81.0482 50.2034 82.427 51.9155 84.1998 53.0822C85.9725 54.2489 88.0482 54.8322 90.427 54.8322C92.8058 54.8322 94.8816 54.2489 96.6543 53.0822C98.427 51.9155 99.7982 50.2034 100.768 47.9458C101.753 45.6883 102.245 42.9155 102.245 39.6277ZM119.512 62.9004V16.3549H137.876C141.391 16.3549 144.391 16.9837 146.876 18.2413C149.376 19.4837 151.277 21.2489 152.58 23.5368C153.899 25.8095 154.558 28.4837 154.558 31.5595C154.558 34.6504 153.891 37.3095 152.558 39.5368C151.224 41.7489 149.293 43.4458 146.762 44.6277C144.247 45.8095 141.202 46.4004 137.626 46.4004H125.33V38.4913H136.035C137.914 38.4913 139.474 38.2337 140.717 37.7186C141.959 37.2034 142.883 36.4307 143.49 35.4004C144.111 34.3701 144.421 33.0898 144.421 31.5595C144.421 30.014 144.111 28.711 143.49 27.6504C142.883 26.5898 141.952 25.7868 140.694 25.2413C139.452 24.6807 137.883 24.4004 135.99 24.4004H129.353V62.9004H119.512ZM144.649 41.7186L156.217 62.9004H145.353L134.035 41.7186H144.649ZM161.512 62.9004V16.3549H171.353V36.8777H171.967L188.717 16.3549H200.512L183.24 37.1958L200.717 62.9004H188.944L176.194 43.764L171.353 49.6731V62.9004H161.512Z"/>
</mask>
<path d="M16.2395 62.9004L14.3167 63.4506L14.7315 64.9004H16.2395V62.9004ZM2.92134 16.3549V14.3549H0.268815L0.998507 16.9051L2.92134 16.3549ZM13.6713 16.3549L15.6169 15.8914L15.2509 14.3549H13.6713V16.3549ZM21.3759 48.6958L19.4303 49.1593L19.7964 50.6958H21.3759V48.6958ZM21.7623 48.6958V50.6958H23.3045L23.6966 49.2042L21.7623 48.6958ZM30.2623 16.3549V14.3549H28.72L28.3279 15.8466L30.2623 16.3549ZM39.4668 16.3549L41.4017 15.8488L41.0109 14.3549H39.4668V16.3549ZM47.9441 48.764L46.0092 49.2701L46.3999 50.764H47.9441V48.764ZM48.3532 48.764V50.764H49.9334L50.2989 49.2266L48.3532 48.764ZM56.0577 16.3549V14.3549H54.4774L54.1119 15.8924L56.0577 16.3549ZM66.8077 16.3549L68.7305 16.9051L69.4602 14.3549H66.8077V16.3549ZM53.4895 62.9004V64.9004H54.9975L55.4124 63.4506L53.4895 62.9004ZM43.8986 62.9004L41.9784 63.4597L42.398 64.9004H43.8986V62.9004ZM35.035 32.4686L36.9552 31.9093L36.5356 30.4686H35.035V32.4686ZM34.6713 32.4686V30.4686H33.1697L32.7508 31.9106L34.6713 32.4686ZM25.8304 62.9004V64.9004H27.3321L27.751 63.4584L25.8304 62.9004ZM16.2395 62.9004L18.1624 62.3502L4.84418 15.8047L2.92134 16.3549L0.998507 16.9051L14.3167 63.4506L16.2395 62.9004ZM2.92134 16.3549V18.3549H13.6713V16.3549V14.3549H2.92134V16.3549ZM13.6713 16.3549L11.7258 16.8184L19.4303 49.1593L21.3759 48.6958L23.3214 48.2324L15.6169 15.8914L13.6713 16.3549ZM21.3759 48.6958V50.6958H21.7623V48.6958V46.6958H21.3759V48.6958ZM21.7623 48.6958L23.6966 49.2042L32.1966 16.8633L30.2623 16.3549L28.3279 15.8466L19.8279 48.1875L21.7623 48.6958ZM30.2623 16.3549V18.3549H39.4668V16.3549V14.3549H30.2623V16.3549ZM39.4668 16.3549L37.5319 16.861L46.0092 49.2701L47.9441 48.764L49.879 48.2579L41.4017 15.8488L39.4668 16.3549ZM47.9441 48.764V50.764H48.3532V48.764V46.764H47.9441V48.764ZM48.3532 48.764L50.2989 49.2266L58.0035 16.8175L56.0577 16.3549L54.1119 15.8924L46.4074 48.3015L48.3532 48.764ZM56.0577 16.3549V18.3549H66.8077V16.3549V14.3549H56.0577V16.3549ZM66.8077 16.3549L64.8849 15.8047L51.5667 62.3502L53.4895 62.9004L55.4124 63.4506L68.7305 16.9051L66.8077 16.3549ZM53.4895 62.9004V60.9004H43.8986V62.9004V64.9004H53.4895V62.9004ZM43.8986 62.9004L45.8188 62.3411L36.9552 31.9093L35.035 32.4686L33.1148 33.0279L41.9784 63.4597L43.8986 62.9004ZM35.035 32.4686V30.4686H34.6713V32.4686V34.4686H35.035V32.4686ZM34.6713 32.4686L32.7508 31.9106L23.9098 62.3424L25.8304 62.9004L27.751 63.4584L36.5919 33.0265L34.6713 32.4686ZM25.8304 62.9004V60.9004H16.2395V62.9004V64.9004H25.8304V62.9004ZM109.336 52.5822L107.577 51.6313L107.573 51.6371L109.336 52.5822ZM101.518 60.7413L102.504 62.4812L102.507 62.4797L101.518 60.7413ZM79.2907 60.7186L80.2829 58.9821L79.2907 60.7186ZM71.4952 52.5595L69.7326 53.5045L69.7326 53.5045L71.4952 52.5595ZM71.4952 26.6731L73.2578 27.6182L73.2578 27.6182L71.4952 26.6731ZM79.2907 18.5368L80.2769 20.2767L80.2829 20.2732L79.2907 18.5368ZM101.518 18.5368L100.526 20.2733L100.535 20.2786L101.518 18.5368ZM109.336 26.6731L107.573 27.6182L107.577 27.624L109.336 26.6731ZM100.768 31.3095L98.9303 32.0988L98.9348 32.1092L100.768 31.3095ZM96.6543 26.1731L95.5548 27.8438L95.5548 27.8438L96.6543 26.1731ZM84.1998 26.1731L85.2992 27.8438L85.2992 27.8438L84.1998 26.1731ZM80.0634 31.3095L78.2302 30.5098L78.2257 30.5202L80.0634 31.3095ZM80.0634 47.9458L78.2257 48.7352L78.2302 48.7455L80.0634 47.9458ZM84.1998 53.0822L85.2992 51.4115L85.2992 51.4115L84.1998 53.0822ZM96.6543 53.0822L95.5548 51.4115L95.5548 51.4115L96.6543 53.0822ZM100.768 47.9458L98.9347 47.1461L98.9303 47.1565L100.768 47.9458ZM112.222 39.6277H110.222C110.222 44.4542 109.308 48.4279 107.577 51.6313L109.336 52.5822L111.096 53.5331C113.213 49.6153 114.222 44.9526 114.222 39.6277H112.222ZM109.336 52.5822L107.573 51.6371C105.831 54.8876 103.484 57.3223 100.529 59.0029L101.518 60.7413L102.507 62.4797C106.158 60.4027 109.023 57.398 111.099 53.5273L109.336 52.5822ZM101.518 60.7413L100.532 59.0014C97.5702 60.68 94.2181 61.5368 90.427 61.5368V63.5368V65.5368C94.848 65.5368 98.8899 64.5299 102.504 62.4812L101.518 60.7413ZM90.427 63.5368V61.5368C86.6057 61.5368 83.2412 60.6725 80.2829 58.9821L79.2907 60.7186L78.2984 62.4551C81.9159 64.5222 85.9756 65.5368 90.427 65.5368V63.5368ZM79.2907 60.7186L80.2829 58.9821C77.3431 57.3022 75.0019 54.8672 73.2578 51.6144L71.4952 52.5595L69.7326 53.5045C71.8067 57.3729 74.6625 60.3774 78.2984 62.4551L79.2907 60.7186ZM71.4952 52.5595L73.2578 51.6144C71.5391 48.4088 70.6316 44.4402 70.6316 39.6277H68.6316H66.6316C66.6316 44.9363 67.6331 49.5889 69.7326 53.5045L71.4952 52.5595ZM68.6316 39.6277H70.6316C70.6316 34.7988 71.5395 30.823 73.2578 27.6182L71.4952 26.6731L69.7326 25.7281C67.6327 29.6445 66.6316 34.305 66.6316 39.6277H68.6316ZM71.4952 26.6731L73.2578 27.6182C75.0013 24.3666 77.3406 21.941 80.2769 20.2767L79.2907 18.5368L78.3044 16.7968C74.665 18.8597 71.8073 21.8585 69.7326 25.7281L71.4952 26.6731ZM79.2907 18.5368L80.2829 20.2732C83.2412 18.5828 86.6057 17.7186 90.427 17.7186V15.7186V13.7186C85.9756 13.7186 81.9159 14.7331 78.2984 16.8003L79.2907 18.5368ZM90.427 15.7186V17.7186C94.2153 17.7186 97.5652 18.5815 100.526 20.2732L101.518 18.5368L102.51 16.8003C98.8949 14.7344 94.8509 13.7186 90.427 13.7186V15.7186ZM101.518 18.5368L100.535 20.2786C103.486 21.9436 105.831 24.3689 107.573 27.6182L109.336 26.6731L111.099 25.7281C109.023 21.8561 106.156 18.8572 102.501 16.7949L101.518 18.5368ZM109.336 26.6731L107.577 27.624C109.308 30.8274 110.222 34.8011 110.222 39.6277H112.222H114.222C114.222 34.3027 113.213 29.64 111.096 25.7222L109.336 26.6731ZM102.245 39.6277H104.245C104.245 36.1519 103.726 33.0889 102.601 30.5098L100.768 31.3095L98.9348 32.1092C99.7793 34.0452 100.245 36.5277 100.245 39.6277H102.245ZM100.768 31.3095L102.606 30.5202C101.506 27.9611 99.9027 25.9167 97.7538 24.5025L96.6543 26.1731L95.5548 27.8438C96.9514 28.7629 98.0901 30.1428 98.9303 32.0988L100.768 31.3095ZM96.6543 26.1731L97.7538 24.5025C95.616 23.0956 93.1477 22.4231 90.427 22.4231V24.4231V26.4231C92.4639 26.4231 94.1471 26.9173 95.5548 27.8438L96.6543 26.1731ZM90.427 24.4231V22.4231C87.7063 22.4231 85.238 23.0956 83.1003 24.5025L84.1998 26.1731L85.2992 27.8438C86.707 26.9173 88.3902 26.4231 90.427 26.4231V24.4231ZM84.1998 26.1731L83.1003 24.5025C80.9544 25.9147 79.3446 27.9553 78.2302 30.5098L80.0634 31.3095L81.8965 32.1092C82.7519 30.1485 83.8997 28.7649 85.2992 27.8438L84.1998 26.1731ZM80.0634 31.3095L78.2257 30.5202C77.1193 33.0961 76.6088 36.1552 76.6088 39.6277H78.6088H80.6088C80.6088 36.5244 81.0681 34.038 81.901 32.0988L80.0634 31.3095ZM78.6088 39.6277H76.6088C76.6088 43.1001 77.1193 46.1592 78.2257 48.7352L80.0634 47.9458L81.901 47.1565C81.0681 45.2173 80.6088 42.7309 80.6088 39.6277H78.6088ZM80.0634 47.9458L78.2302 48.7455C79.3446 51.3 80.9544 53.3406 83.1003 54.7529L84.1998 53.0822L85.2992 51.4115C83.8997 50.4905 82.7519 49.1068 81.8965 47.1461L80.0634 47.9458ZM84.1998 53.0822L83.1003 54.7529C85.238 56.1598 87.7063 56.8322 90.427 56.8322V54.8322V52.8322C88.3902 52.8322 86.707 52.338 85.2992 51.4115L84.1998 53.0822ZM90.427 54.8322V56.8322C93.1477 56.8322 95.616 56.1598 97.7538 54.7529L96.6543 53.0822L95.5548 51.4115C94.1471 52.338 92.4639 52.8322 90.427 52.8322V54.8322ZM96.6543 53.0822L97.7538 54.7529C99.9027 53.3386 101.506 51.2943 102.606 48.7352L100.768 47.9458L98.9303 47.1565C98.0901 49.1126 96.9514 50.4924 95.5548 51.4115L96.6543 53.0822ZM100.768 47.9458L102.601 48.7455C103.726 46.1664 104.245 43.1034 104.245 39.6277H102.245H100.245C100.245 42.7277 99.7793 45.2101 98.9348 47.1461L100.768 47.9458ZM119.512 62.9004H117.512V64.9004H119.512V62.9004ZM119.512 16.3549V14.3549H117.512V16.3549H119.512ZM146.876 18.2413L145.973 20.0258L145.979 20.0291L145.986 20.0323L146.876 18.2413ZM152.58 23.5368L150.843 24.5266L150.846 24.5334L150.85 24.5402L152.58 23.5368ZM152.558 39.5368L154.271 40.5692L154.274 40.564L152.558 39.5368ZM146.762 44.6277L145.916 42.8156L145.912 42.8175L146.762 44.6277ZM125.33 46.4004H123.33V48.4004H125.33V46.4004ZM125.33 38.4913V36.4913H123.33V38.4913H125.33ZM140.717 37.7186L141.483 39.5661L141.483 39.5661L140.717 37.7186ZM143.49 35.4004L141.777 34.3677L141.771 34.377L141.766 34.3864L143.49 35.4004ZM143.49 27.6504L141.753 28.6427L141.758 28.652L141.764 28.6612L143.49 27.6504ZM140.694 25.2413L139.871 27.0643L139.885 27.0703L139.898 27.0761L140.694 25.2413ZM129.353 24.4004V22.4004H127.353V24.4004H129.353ZM129.353 62.9004V64.9004H131.353V62.9004H129.353ZM144.649 41.7186L146.404 40.7599L145.835 39.7186H144.649V41.7186ZM156.217 62.9004V64.9004H159.588L157.972 61.9418L156.217 62.9004ZM145.353 62.9004L143.589 63.8429L144.154 64.9004H145.353V62.9004ZM134.035 41.7186V39.7186H130.699L132.271 42.6611L134.035 41.7186ZM119.512 62.9004H121.512V16.3549H119.512H117.512V62.9004H119.512ZM119.512 16.3549V18.3549H137.876V16.3549V14.3549H119.512V16.3549ZM137.876 16.3549V18.3549C141.157 18.3549 143.832 18.9421 145.973 20.0258L146.876 18.2413L147.779 16.4568C144.95 15.0253 141.625 14.3549 137.876 14.3549V16.3549ZM146.876 18.2413L145.986 20.0323C148.152 21.1091 149.748 22.6054 150.843 24.5266L152.58 23.5368L154.318 22.547C152.806 19.8924 150.599 17.8584 147.766 16.4503L146.876 18.2413ZM152.58 23.5368L150.85 24.5402C151.964 26.4595 152.558 28.7754 152.558 31.5595H154.558H156.558C156.558 28.192 155.834 25.1594 154.31 22.5333L152.58 23.5368ZM154.558 31.5595H152.558C152.558 34.358 151.956 36.6473 150.842 38.5095L152.558 39.5368L154.274 40.564C155.826 37.9717 156.558 34.9427 156.558 31.5595H154.558ZM152.558 39.5368L150.845 38.5043C149.733 40.3484 148.117 41.7875 145.916 42.8156L146.762 44.6277L147.609 46.4398C150.468 45.1042 152.715 43.1493 154.271 40.5692L152.558 39.5368ZM146.762 44.6277L145.912 42.8175C143.728 43.8438 140.989 44.4004 137.626 44.4004V46.4004V48.4004C141.414 48.4004 144.767 47.7751 147.613 46.4378L146.762 44.6277ZM137.626 46.4004V44.4004H125.33V46.4004V48.4004H137.626V46.4004ZM125.33 46.4004H127.33V38.4913H125.33H123.33V46.4004H125.33ZM125.33 38.4913V40.4913H136.035V38.4913V36.4913H125.33V38.4913ZM136.035 38.4913V40.4913C138.08 40.4913 139.922 40.2134 141.483 39.5661L140.717 37.7186L139.951 35.8711C139.027 36.2541 137.748 36.4913 136.035 36.4913V38.4913ZM140.717 37.7186L141.483 39.5661C143.074 38.9064 144.36 37.8656 145.213 36.4144L143.49 35.4004L141.766 34.3864C141.407 34.9958 140.845 35.5005 139.951 35.8711L140.717 37.7186ZM143.49 35.4004L145.202 36.4331C146.056 35.0169 146.421 33.3561 146.421 31.5595H144.421H142.421C142.421 32.8235 142.165 33.7232 141.777 34.3677L143.49 35.4004ZM144.421 31.5595H146.421C146.421 29.749 146.057 28.0763 145.215 26.6396L143.49 27.6504L141.764 28.6612C142.165 29.3457 142.421 30.2791 142.421 31.5595H144.421ZM143.49 27.6504L145.226 26.6581C144.38 25.1771 143.093 24.1018 141.49 23.4065L140.694 25.2413L139.898 27.0761C140.81 27.4717 141.387 28.0025 141.753 28.6427L143.49 27.6504ZM140.694 25.2413L141.517 23.4183C139.936 22.7049 138.064 22.4004 135.99 22.4004V24.4004V26.4004C137.703 26.4004 138.968 26.6565 139.871 27.0643L140.694 25.2413ZM135.99 24.4004V22.4004H129.353V24.4004V26.4004H135.99V24.4004ZM129.353 24.4004H127.353V62.9004H129.353H131.353V24.4004H129.353ZM129.353 62.9004V60.9004H119.512V62.9004V64.9004H129.353V62.9004ZM144.649 41.7186L142.893 42.6772L154.462 63.859L156.217 62.9004L157.972 61.9418L146.404 40.7599L144.649 41.7186ZM156.217 62.9004V60.9004H145.353V62.9004V64.9004H156.217V62.9004ZM145.353 62.9004L147.117 61.9578L135.799 40.776L134.035 41.7186L132.271 42.6611L143.589 63.8429L145.353 62.9004ZM134.035 41.7186V43.7186H144.649V41.7186V39.7186H134.035V41.7186ZM161.512 62.9004H159.512V64.9004H161.512V62.9004ZM161.512 16.3549V14.3549H159.512V16.3549H161.512ZM171.353 16.3549H173.353V14.3549H171.353V16.3549ZM171.353 36.8777H169.353V38.8777H171.353V36.8777ZM171.967 36.8777V38.8777H172.916L173.516 38.1423L171.967 36.8777ZM188.717 16.3549V14.3549H187.768L187.167 15.0903L188.717 16.3549ZM200.512 16.3549L202.052 17.6312L204.767 14.3549H200.512V16.3549ZM183.24 37.1958L181.7 35.9196L180.74 37.0771L181.586 38.3204L183.24 37.1958ZM200.717 62.9004V64.9004H204.495L202.371 61.7759L200.717 62.9004ZM188.944 62.9004L187.28 64.0093L187.873 64.9004H188.944V62.9004ZM176.194 43.764L177.858 42.6551L176.36 40.4058L174.647 42.4966L176.194 43.764ZM171.353 49.6731L169.806 48.4057L169.353 48.9585V49.6731H171.353ZM171.353 62.9004V64.9004H173.353V62.9004H171.353ZM161.512 62.9004H163.512V16.3549H161.512H159.512V62.9004H161.512ZM161.512 16.3549V18.3549H171.353V16.3549V14.3549H161.512V16.3549ZM171.353 16.3549H169.353V36.8777H171.353H173.353V16.3549H171.353ZM171.353 36.8777V38.8777H171.967V36.8777V34.8777H171.353V36.8777ZM171.967 36.8777L173.516 38.1423L190.266 17.6195L188.717 16.3549L187.167 15.0903L170.417 35.6131L171.967 36.8777ZM188.717 16.3549V18.3549H200.512V16.3549V14.3549H188.717V16.3549ZM200.512 16.3549L198.972 15.0787L181.7 35.9196L183.24 37.1958L184.779 38.4721L202.052 17.6312L200.512 16.3549ZM183.24 37.1958L181.586 38.3204L199.063 64.0249L200.717 62.9004L202.371 61.7759L184.893 36.0713L183.24 37.1958ZM200.717 62.9004V60.9004H188.944V62.9004V64.9004H200.717V62.9004ZM188.944 62.9004L190.608 61.7914L177.858 42.6551L176.194 43.764L174.53 44.873L187.28 64.0093L188.944 62.9004ZM176.194 43.764L174.647 42.4966L169.806 48.4057L171.353 49.6731L172.9 50.9406L177.741 45.0315L176.194 43.764ZM171.353 49.6731H169.353V62.9004H171.353H173.353V49.6731H171.353ZM171.353 62.9004V60.9004H161.512V62.9004V64.9004H171.353V62.9004Z" fill="white" mask="url(#path-1-outside-1_644_2061)"/>
<path d="M14.4168 86.4804H16.6768V88.9204C16.6768 89.5471 16.6101 90.2071 16.4768 90.9004C16.3568 91.5804 16.1168 92.2404 15.7568 92.8804C15.3968 93.5204 14.8701 94.0871 14.1768 94.5804C14.0568 94.4337 13.8835 94.2604 13.6568 94.0604C13.4435 93.8471 13.2168 93.6471 12.9768 93.4604C12.7368 93.2737 12.5368 93.1337 12.3768 93.0404C12.9901 92.6271 13.4368 92.1871 13.7168 91.7204C14.0101 91.2537 14.1968 90.7737 14.2768 90.2804C14.3701 89.7871 14.4168 89.3204 14.4168 88.8804V86.4804ZM18.8968 86.4804H21.1568V90.9804C21.1568 91.2471 21.1701 91.4137 21.1968 91.4804C21.2368 91.5471 21.3101 91.5804 21.4168 91.5804C21.4435 91.5804 21.4901 91.5804 21.5568 91.5804C21.6235 91.5804 21.6901 91.5804 21.7568 91.5804C21.8368 91.5804 21.8901 91.5804 21.9168 91.5804C21.9968 91.5804 22.0635 91.5404 22.1168 91.4604C22.1701 91.3671 22.2101 91.1804 22.2368 90.9004C22.2635 90.6071 22.2835 90.1671 22.2968 89.5804C22.5101 89.7671 22.8101 89.9404 23.1968 90.1004C23.5968 90.2471 23.9435 90.3604 24.2368 90.4404C24.1701 91.2671 24.0568 91.9137 23.8968 92.3804C23.7368 92.8471 23.5168 93.1737 23.2368 93.3604C22.9701 93.5337 22.6168 93.6204 22.1768 93.6204C22.0701 93.6204 21.9435 93.6204 21.7968 93.6204C21.6501 93.6204 21.5035 93.6204 21.3568 93.6204C21.2235 93.6204 21.1035 93.6204 20.9968 93.6204C20.4635 93.6204 20.0435 93.5404 19.7368 93.3804C19.4301 93.2204 19.2101 92.9537 19.0768 92.5804C18.9568 92.1937 18.8968 91.6671 18.8968 91.0004V86.4804ZM16.3168 96.6804C16.9968 98.1071 18.0235 99.3404 19.3968 100.38C20.7701 101.407 22.3968 102.147 24.2768 102.6C24.1035 102.76 23.9168 102.96 23.7168 103.2C23.5168 103.454 23.3301 103.707 23.1568 103.96C22.9835 104.227 22.8368 104.467 22.7168 104.68C20.7301 104.08 19.0235 103.16 17.5968 101.92C16.1835 100.667 15.0501 99.1471 14.1968 97.3604L16.3168 96.6804ZM20.7768 94.5404H21.2368L21.6568 94.4404L23.2168 95.0204C22.8701 96.3671 22.3968 97.5604 21.7968 98.6004C21.2101 99.6271 20.5101 100.534 19.6968 101.32C18.8835 102.107 17.9701 102.774 16.9568 103.32C15.9435 103.867 14.8568 104.32 13.6968 104.68C13.6168 104.467 13.5035 104.227 13.3568 103.96C13.2101 103.707 13.0501 103.454 12.8768 103.2C12.7168 102.947 12.5635 102.734 12.4168 102.56C13.4435 102.307 14.4101 101.96 15.3168 101.52C16.2235 101.067 17.0368 100.52 17.7568 99.8804C18.4901 99.2404 19.1101 98.5004 19.6168 97.6604C20.1368 96.8204 20.5235 95.9004 20.7768 94.9004V94.5404ZM13.4368 94.5404H21.7168V96.6804H13.4368V94.5404ZM15.3168 86.4804H20.1368V88.5804H15.3168V86.4804ZM6.2768 92.0404H12.4768V93.8604H6.2768V92.0404ZM6.3568 86.5404H12.4368V88.3404H6.3568V86.5404ZM6.2768 94.7804H12.4768V96.5804H6.2768V94.7804ZM5.3168 89.2204H13.1768V91.1204H5.3168V89.2204ZM7.3768 97.5404H12.4368V103.64H7.3768V101.74H10.3768V99.4404H7.3768V97.5404ZM6.2168 97.5404H8.2568V104.42H6.2168V97.5404ZM48.4568 92.6404H59.2968V95.0204H48.4568V92.6404ZM52.6768 86.0004H55.0968V104.7H52.6768V86.0004ZM41.2968 92.0404H47.7568V93.8604H41.2968V92.0404ZM41.4168 86.5404H47.7768V88.3404H41.4168V86.5404ZM41.2968 94.7804H47.7568V96.5804H41.2968V94.7804ZM40.3168 89.2204H48.5368V91.1204H40.3168V89.2204ZM42.3968 97.5404H47.6968V103.64H42.3968V101.74H45.5768V99.4404H42.3968V97.5404ZM41.2368 97.5404H43.3168V104.42H41.2368V97.5404ZM84.5768 89.1804H94.1568V91.4604H83.4368L84.5768 89.1804ZM87.1968 93.5604H93.6568V95.7604H87.1968V93.5604ZM87.1768 98.0004H93.9168V100.24H87.1768V98.0004ZM85.9768 89.9404H88.4568V104.68H85.9768V89.9404ZM85.0368 86.1004L87.3368 86.7004C86.9635 87.7804 86.5235 88.8537 86.0168 89.9204C85.5235 90.9871 84.9835 91.9871 84.3968 92.9204C83.8101 93.8404 83.2101 94.6537 82.5968 95.3604C82.4768 95.2004 82.3035 95.0137 82.0768 94.8004C81.8501 94.5871 81.6168 94.3804 81.3768 94.1804C81.1501 93.9671 80.9435 93.8004 80.7568 93.6804C81.3568 93.0804 81.9168 92.3737 82.4368 91.5604C82.9701 90.7471 83.4568 89.8737 83.8968 88.9404C84.3501 87.9937 84.7301 87.0471 85.0368 86.1004ZM79.7368 85.9804L82.0568 86.7204C81.6301 87.8537 81.1235 88.9937 80.5368 90.1404C79.9501 91.2871 79.3101 92.3737 78.6168 93.4004C77.9235 94.4137 77.2101 95.3004 76.4768 96.0604C76.3968 95.8604 76.2768 95.6004 76.1168 95.2804C75.9701 94.9604 75.8101 94.6337 75.6368 94.3004C75.4635 93.9671 75.3035 93.7004 75.1568 93.5004C75.7701 92.8871 76.3568 92.1804 76.9168 91.3804C77.4901 90.5804 78.0168 89.7204 78.4968 88.8004C78.9901 87.8804 79.4035 86.9404 79.7368 85.9804ZM77.7168 91.5204L80.1368 89.1004V89.1204V104.66H77.7168V91.5204ZM116.197 89.0004V91.6804H123.237V89.0004H116.197ZM113.877 86.7004H125.677V93.9604H113.877V86.7004ZM111.117 95.6404H118.777V104.58H116.377V97.9404H113.397V104.7H111.117V95.6404ZM120.457 95.6404H128.377V104.6H125.977V97.9404H122.757V104.7H120.457V95.6404ZM112.117 101.38H117.377V103.68H112.117V101.38ZM121.557 101.38H127.157V103.68H121.557V101.38ZM145.477 93.8004H163.997V96.4204H145.477V93.8004ZM185.637 97.6404V98.2804H193.697V97.6404H185.637ZM185.637 99.4404V100.1H193.697V99.4404H185.637ZM185.637 95.8204V96.4804H193.697V95.8204H185.637ZM183.357 94.6004H196.077V101.34H183.357V94.6004ZM190.537 100.64H192.897V102.14C192.897 102.38 192.95 102.534 193.057 102.6C193.177 102.654 193.437 102.68 193.837 102.68C193.93 102.68 194.083 102.68 194.297 102.68C194.523 102.68 194.763 102.68 195.017 102.68C195.27 102.68 195.51 102.68 195.737 102.68C195.963 102.68 196.143 102.68 196.277 102.68C196.49 102.68 196.65 102.647 196.757 102.58C196.863 102.5 196.943 102.354 196.997 102.14C197.05 101.927 197.09 101.6 197.117 101.16C197.343 101.307 197.65 101.447 198.037 101.58C198.437 101.714 198.79 101.814 199.097 101.88C199.017 102.56 198.883 103.087 198.697 103.46C198.523 103.834 198.257 104.094 197.897 104.24C197.55 104.4 197.09 104.48 196.517 104.48C196.423 104.48 196.27 104.48 196.057 104.48C195.857 104.48 195.63 104.48 195.377 104.48C195.137 104.48 194.89 104.48 194.637 104.48C194.397 104.48 194.177 104.48 193.977 104.48C193.79 104.48 193.643 104.48 193.537 104.48C192.75 104.48 192.137 104.407 191.697 104.26C191.27 104.127 190.97 103.887 190.797 103.54C190.623 103.207 190.537 102.74 190.537 102.14V100.64ZM186.137 100.78H188.497C188.363 101.354 188.163 101.86 187.897 102.3C187.63 102.74 187.23 103.114 186.697 103.42C186.163 103.74 185.463 104 184.597 104.2C183.73 104.414 182.637 104.58 181.317 104.7C181.237 104.434 181.09 104.114 180.877 103.74C180.677 103.38 180.477 103.087 180.277 102.86C181.41 102.807 182.337 102.734 183.057 102.64C183.777 102.534 184.343 102.4 184.757 102.24C185.183 102.08 185.497 101.88 185.697 101.64C185.897 101.4 186.043 101.114 186.137 100.78ZM191.617 88.9804H197.797V90.3204H191.617V88.9804ZM191.577 86.9404H198.717V88.4204H191.577V86.9404ZM184.737 87.1004H186.617V88.9804H184.737V87.1004ZM184.737 91.1004H186.617V93.0004H184.737V91.1004ZM182.557 88.5804H189.117V91.8404H182.557V90.6004H187.097V89.8204H182.557V88.5804ZM195.917 91.9404V92.9404H196.757V91.9404H195.917ZM193.937 91.9404V92.9404H194.757V91.9404H193.937ZM191.997 91.9404V92.9404H192.777V91.9404H191.997ZM190.417 90.8404H198.397V94.0604H190.417V90.8404ZM191.397 85.9404L193.437 86.2604C193.143 87.0337 192.77 87.7737 192.317 88.4804C191.863 89.1871 191.277 89.8404 190.557 90.4404C190.37 90.2137 190.123 89.9604 189.817 89.6804C189.51 89.4004 189.23 89.2004 188.977 89.0804C189.603 88.6404 190.11 88.1404 190.497 87.5804C190.897 87.0204 191.197 86.4737 191.397 85.9404ZM189.517 86.5004V87.8604H183.317V92.6604H189.677V94.0204H181.297V86.5004H189.517Z" fill="white"/>
</svg>
