<svg width="31" height="31" viewBox="0 0 31 31" fill="none" xmlns="http://www.w3.org/2000/svg">
<path d="M25.7083 4H6C3.79086 4 2 5.79086 2 8V22.5417C2 24.7508 3.79086 26.5417 6 26.5417H25.7083C27.9174 26.5417 29.7083 24.7508 29.7083 22.5417V8C29.7083 5.79086 27.9174 4 25.7083 4Z" fill="white" stroke="white" stroke-width="2"/>
<path d="M6 21.1236C6 17.2186 6 13.3431 6 9.44399C6.08315 9.43811 6.16036 9.42635 6.23164 9.42635C8.01938 9.42047 9.80713 9.41458 11.5949 9.42635C12.2957 9.43223 12.9847 9.52044 13.638 9.80861C14.9269 10.3849 15.3901 11.6317 15.2654 12.8432C15.1704 13.7606 14.719 14.431 13.84 14.8427C14.6655 15.1662 15.2357 15.6837 15.4911 16.4953C16.1325 18.5536 14.915 20.8589 12.5511 21.0118C10.6446 21.1353 8.72617 21.0883 6.80775 21.1177C6.54048 21.1295 6.27915 21.1236 6 21.1236ZM8.72617 19.0888C9.69428 19.0888 10.6446 19.1299 11.5889 19.077C12.5333 19.0241 12.9787 18.6653 13.1272 17.9008C13.3054 16.9716 13.05 16.1953 11.8978 16.0365C11.6424 16.0013 11.387 15.9895 11.1316 15.9836C10.3357 15.9777 9.53986 15.9836 8.72617 15.9836C8.72617 17.0304 8.72617 18.042 8.72617 19.0888ZM8.72617 14.0429C9.65865 14.0429 10.5674 14.0605 11.4702 14.0311C11.7731 14.0194 12.0878 13.9194 12.3729 13.79C12.8303 13.5842 13.0144 13.0902 12.9253 12.455C12.86 11.9963 12.5808 11.667 12.0938 11.5905C11.5889 11.5141 11.0782 11.4847 10.5674 11.467C9.96155 11.4494 9.3498 11.4612 8.73211 11.4612C8.72617 12.3374 8.72617 13.1725 8.72617 14.0429Z" fill="black"/>
<path d="M18.8052 17.1833C18.829 18.8123 20.3495 19.7651 21.7809 19.0887C22.0481 18.9594 22.2441 18.6888 22.4817 18.483C22.5589 18.4183 22.648 18.3301 22.7312 18.3301C23.4201 18.3183 24.1091 18.3242 24.8278 18.3242C24.7565 18.9006 24.4595 19.3357 24.1032 19.7357C23.3073 20.6237 22.2857 20.9942 21.1097 21.0412C20.1178 21.0824 19.1972 20.8824 18.3479 20.3649C17.5342 19.8709 16.9937 19.1887 16.768 18.2654C16.477 17.0657 16.4651 15.8601 16.8868 14.6898C17.4095 13.2548 18.4786 12.4609 19.9812 12.2257C20.7415 12.1022 21.4958 12.1433 22.2323 12.3668C23.6933 12.8079 24.5189 13.8429 24.8218 15.2838C24.9465 15.8895 24.9406 16.5247 25 17.1833C22.9034 17.1833 20.8662 17.1833 18.8052 17.1833ZM22.6361 15.7425C22.654 14.8133 21.9293 14.0664 21.0206 13.9841C19.5477 13.8547 18.9656 14.8015 18.8706 15.7425C20.1238 15.7425 21.371 15.7425 22.6361 15.7425Z" fill="black"/>
<path d="M23.0935 11.079C21.5255 11.079 19.9634 11.079 18.3835 11.079C18.3835 10.6967 18.3835 10.3321 18.3835 9.94397C19.9515 9.94397 21.5076 9.94397 23.0935 9.94397C23.0935 10.3145 23.0935 10.685 23.0935 11.079Z" fill="black"/>
</svg>
