<svg width="15" height="16" viewBox="0 0 15 16" fill="none" xmlns="http://www.w3.org/2000/svg">
<path d="M5.25 1.375V1" stroke="#333333" stroke-width="2" stroke-linecap="round" stroke-linejoin="round"/>
<path d="M9.75 1.375V1" stroke="#333333" stroke-width="2" stroke-linecap="round" stroke-linejoin="round"/>
<path d="M7.5 1.375V1" stroke="#333333" stroke-width="2" stroke-linecap="round" stroke-linejoin="round"/>
<path d="M15 11.7871C15 11.7201 14.9557 11.6609 14.8907 11.6444C14.4782 11.5391 14.0509 11.5 13.5 11.5C13.0626 11.5 12.74 11.6284 12.2895 11.8169L12.2631 11.8279C11.8211 12.013 11.2551 12.25 10.5 12.25C9.7449 12.25 9.1788 12.013 8.7369 11.8279L8.7105 11.8169C8.26005 11.6284 7.9374 11.5 7.5 11.5C7.0626 11.5 6.73995 11.6284 6.2895 11.8169L6.2631 11.8279C5.82116 12.013 5.25512 12.25 4.5 12.25C3.74488 12.25 3.17884 12.013 2.73692 11.8279L2.71049 11.8169C2.26003 11.6284 1.93737 11.5 1.5 11.5C0.949117 11.5 0.521805 11.5391 0.109245 11.6444C0.0443474 11.6609 0 11.7201 0 11.7871V12.3064C0 12.7751 0.0241351 13.203 0.106583 13.574C0.19092 13.9535 0.345915 14.3178 0.63906 14.6109C0.932205 14.9041 1.29655 15.0591 1.67605 15.1434C2.04703 15.2259 2.47487 15.25 2.9436 15.25H12.0564C12.5251 15.25 12.953 15.2259 13.324 15.1434C13.7035 15.0591 14.0678 14.9041 14.3609 14.6109C14.6541 14.3178 14.8091 13.9535 14.8934 13.574C14.9759 13.203 15 12.7751 15 12.3064V11.7871Z" fill="#333333"/>
<path d="M2.94356 7.75C2.47484 7.75 2.04699 7.77415 1.67602 7.85658C1.29652 7.94095 0.932168 8.0959 0.639023 8.38908C0.345878 8.68218 0.190891 9.04653 0.106546 9.42603C0.0711834 9.58518 0.0465459 9.75475 0.0299409 9.93362C0.0208359 10.0316 0.109688 10.1089 0.206806 10.0929C0.600211 10.0278 1.01849 10 1.49996 10C2.25508 10 2.82113 10.237 3.26304 10.4221L3.28947 10.4331C3.73994 10.6216 4.06259 10.75 4.49996 10.75C4.93734 10.75 5.25999 10.6216 5.71045 10.4331L5.73689 10.4221C6.17878 10.237 6.74488 10 7.49998 10C8.25508 10 8.8211 10.237 9.263 10.4221L9.28948 10.4331C9.73993 10.6216 10.0626 10.75 10.5 10.75C10.9373 10.75 11.26 10.6216 11.7105 10.4331L11.7369 10.4221C12.1788 10.237 12.7449 10 13.5 10C13.9814 10 14.3998 10.0278 14.7931 10.0929C14.8903 10.1089 14.9791 10.0316 14.97 9.93362C14.9534 9.75482 14.9287 9.58518 14.8934 9.42603C14.809 9.04653 14.6541 8.68218 14.3609 8.38908C14.0677 8.0959 13.7034 7.94095 13.3239 7.85658C12.9529 7.77415 12.5251 7.75 12.0564 7.75H2.94356Z" fill="#333333"/>
<path d="M5.99984 4C5.99984 3.58579 5.66405 3.25 5.24984 3.25C4.83563 3.25 4.49984 3.58579 4.49984 4L4.49982 4.75L4.49984 4.7624C4.48985 4.76296 4.47989 4.76355 4.46995 4.76415C4.24073 4.77821 4.02491 4.80419 3.82586 4.84843C3.47305 4.92684 3.12871 5.07219 2.85039 5.35052C2.57207 5.62883 2.42672 5.97318 2.3483 6.32598C2.31176 6.49045 2.28767 6.66632 2.27247 6.8518C2.26511 6.94165 2.34053 7.01553 2.43061 7.01118C2.60101 7.003 2.77267 7 2.94351 7H12.0563C12.2271 7 12.3988 7.003 12.5692 7.01118C12.6592 7.01553 12.7346 6.94165 12.7273 6.8518C12.712 6.66632 12.688 6.49045 12.6515 6.32598C12.573 5.97318 12.4276 5.62883 12.1493 5.35052C11.871 5.07219 11.5267 4.92684 11.1739 4.84843C10.974 4.80401 10.7572 4.77799 10.5269 4.76398C10.5179 4.76343 10.5089 4.7629 10.4998 4.76239V4.75V4C10.4998 3.58579 10.1641 3.25 9.74985 3.25C9.33562 3.25 8.99985 3.58579 8.99985 4V4.70312V4.75H8.95297H8.29672H8.24985V4.70312V4C8.24985 3.58579 7.91407 3.25 7.49985 3.25C7.08562 3.25 6.74985 3.58579 6.74985 4V4.70312V4.75H6.70297H6.04672H5.99984V4.70312V4Z" fill="#333333"/>
</svg>
