<svg width="319" height="107" viewBox="0 0 319 107" fill="none" xmlns="http://www.w3.org/2000/svg">
<mask id="path-1-outside-1_131_66" maskUnits="userSpaceOnUse" x="1" y="12" width="318" height="53" fill="black">
<rect fill="white" x="1" y="12" width="318" height="53"/>
<path d="M45.1761 31.75H35.2216C35.0398 30.4621 34.6686 29.3182 34.108 28.3182C33.5474 27.303 32.8277 26.4394 31.9489 25.7273C31.0701 25.0151 30.0549 24.4697 28.9034 24.0909C27.767 23.7121 26.5322 23.5227 25.1989 23.5227C22.7898 23.5227 20.6913 24.1212 18.9034 25.3182C17.1155 26.5 15.7292 28.2273 14.7443 30.5C13.7595 32.7576 13.267 35.5 13.267 38.7273C13.267 42.0455 13.7595 44.8333 14.7443 47.0909C15.7443 49.3485 17.1383 51.053 18.9261 52.2045C20.714 53.3561 22.7822 53.9318 25.1307 53.9318C26.4489 53.9318 27.6686 53.7576 28.7898 53.4091C29.9261 53.0606 30.9337 52.553 31.8125 51.8864C32.6913 51.2045 33.4186 50.3788 33.9943 49.4091C34.5852 48.4394 34.9943 47.3333 35.2216 46.0909L45.1761 46.1364C44.9186 48.2727 44.2746 50.3333 43.2443 52.3182C42.2292 54.2879 40.858 56.053 39.1307 57.6136C37.4186 59.1591 35.3731 60.3864 32.9943 61.2955C30.6307 62.1894 27.9564 62.6364 24.9716 62.6364C20.8201 62.6364 17.108 61.697 13.8352 59.8182C10.5777 57.9394 8.00189 55.2197 6.10795 51.6591C4.22917 48.0985 3.28977 43.7879 3.28977 38.7273C3.28977 33.6515 4.24432 29.3333 6.15341 25.7727C8.0625 22.2121 10.6534 19.5 13.9261 17.6364C17.1989 15.7576 20.8807 14.8182 24.9716 14.8182C27.6686 14.8182 30.1686 15.197 32.4716 15.9545C34.7898 16.7121 36.8428 17.8182 38.6307 19.2727C40.4186 20.7121 41.8731 22.4773 42.9943 24.5682C44.1307 26.6591 44.858 29.053 45.1761 31.75ZM95.0057 38.7273C95.0057 43.803 94.0436 48.1212 92.1193 51.6818C90.2102 55.2424 87.6042 57.9621 84.3011 59.8409C81.0133 61.7045 77.3163 62.6364 73.2102 62.6364C69.0739 62.6364 65.3617 61.697 62.0739 59.8182C58.786 57.9394 56.1875 55.2197 54.2784 51.6591C52.3693 48.0985 51.4148 43.7879 51.4148 38.7273C51.4148 33.6515 52.3693 29.3333 54.2784 25.7727C56.1875 22.2121 58.786 19.5 62.0739 17.6364C65.3617 15.7576 69.0739 14.8182 73.2102 14.8182C77.3163 14.8182 81.0133 15.7576 84.3011 17.6364C87.6042 19.5 90.2102 22.2121 92.1193 25.7727C94.0436 29.3333 95.0057 33.6515 95.0057 38.7273ZM85.0284 38.7273C85.0284 35.4394 84.536 32.6667 83.5511 30.4091C82.5814 28.1515 81.2102 26.4394 79.4375 25.2727C77.6648 24.1061 75.589 23.5227 73.2102 23.5227C70.8314 23.5227 68.7557 24.1061 66.983 25.2727C65.2102 26.4394 63.8314 28.1515 62.8466 30.4091C61.8769 32.6667 61.392 35.4394 61.392 38.7273C61.392 42.0152 61.8769 44.7879 62.8466 47.0455C63.8314 49.303 65.2102 51.0152 66.983 52.1818C68.7557 53.3485 70.8314 53.9318 73.2102 53.9318C75.589 53.9318 77.6648 53.3485 79.4375 52.1818C81.2102 51.0152 82.5814 49.303 83.5511 47.0455C84.536 44.7879 85.0284 42.0152 85.0284 38.7273ZM141.227 15.4545V62H132.727L112.477 32.7045H112.136V62H102.295V15.4545H110.932L131.023 44.7273H131.432V15.4545H141.227ZM147.585 23.5682V15.4545H185.812V23.5682H171.562V62H161.835V23.5682H147.585ZM194.443 62H183.898L199.966 15.4545H212.648L228.693 62H218.148L206.489 26.0909H206.125L194.443 62ZM193.784 43.7045H218.693V51.3864H193.784V43.7045ZM273.176 31.75H263.222C263.04 30.4621 262.669 29.3182 262.108 28.3182C261.547 27.303 260.828 26.4394 259.949 25.7273C259.07 25.0151 258.055 24.4697 256.903 24.0909C255.767 23.7121 254.532 23.5227 253.199 23.5227C250.79 23.5227 248.691 24.1212 246.903 25.3182C245.116 26.5 243.729 28.2273 242.744 30.5C241.759 32.7576 241.267 35.5 241.267 38.7273C241.267 42.0455 241.759 44.8333 242.744 47.0909C243.744 49.3485 245.138 51.053 246.926 52.2045C248.714 53.3561 250.782 53.9318 253.131 53.9318C254.449 53.9318 255.669 53.7576 256.79 53.4091C257.926 53.0606 258.934 52.553 259.812 51.8864C260.691 51.2045 261.419 50.3788 261.994 49.4091C262.585 48.4394 262.994 47.3333 263.222 46.0909L273.176 46.1364C272.919 48.2727 272.275 50.3333 271.244 52.3182C270.229 54.2879 268.858 56.053 267.131 57.6136C265.419 59.1591 263.373 60.3864 260.994 61.2955C258.631 62.1894 255.956 62.6364 252.972 62.6364C248.82 62.6364 245.108 61.697 241.835 59.8182C238.578 57.9394 236.002 55.2197 234.108 51.6591C232.229 48.0985 231.29 43.7879 231.29 38.7273C231.29 33.6515 232.244 29.3333 234.153 25.7727C236.063 22.2121 238.653 19.5 241.926 17.6364C245.199 15.7576 248.881 14.8182 252.972 14.8182C255.669 14.8182 258.169 15.197 260.472 15.9545C262.79 16.7121 264.843 17.8182 266.631 19.2727C268.419 20.7121 269.873 22.4773 270.994 24.5682C272.131 26.6591 272.858 29.053 273.176 31.75ZM278.46 23.5682V15.4545H316.688V23.5682H302.438V62H292.71V23.5682H278.46Z"/>
</mask>
<path d="M45.1761 31.75V33.75H47.426L47.1624 31.5157L45.1761 31.75ZM35.2216 31.75L33.2412 32.0296L33.4841 33.75H35.2216V31.75ZM34.108 28.3182L32.3571 29.285L32.3634 29.2962L34.108 28.3182ZM31.9489 25.7273L30.6897 27.2811L30.6897 27.2811L31.9489 25.7273ZM28.9034 24.0909L28.271 25.9883L28.2785 25.9908L28.9034 24.0909ZM18.9034 25.3182L20.0063 26.9866L20.0161 26.9801L18.9034 25.3182ZM14.7443 30.5L16.5775 31.2997L16.5794 31.2952L14.7443 30.5ZM14.7443 47.0909L12.9111 47.8906L12.9157 47.9009L14.7443 47.0909ZM18.9261 52.2045L17.8432 53.886L18.9261 52.2045ZM28.7898 53.4091L28.2034 51.497L28.1962 51.4992L28.7898 53.4091ZM31.8125 51.8864L33.0213 53.4797L33.0299 53.4732L33.0385 53.4665L31.8125 51.8864ZM33.9943 49.4091L32.2864 48.3684L32.2805 48.3781L32.2746 48.388L33.9943 49.4091ZM35.2216 46.0909L35.2307 44.0909L33.5557 44.0833L33.2542 45.731L35.2216 46.0909ZM45.1761 46.1364L47.1618 46.3758L47.4305 44.1466L45.1853 44.1364L45.1761 46.1364ZM43.2443 52.3182L41.4692 51.3968L41.4665 51.4019L43.2443 52.3182ZM39.1307 57.6136L40.4708 59.0983L40.4715 59.0976L39.1307 57.6136ZM32.9943 61.2955L33.7018 63.1661L33.7083 63.1637L32.9943 61.2955ZM13.8352 59.8182L12.836 61.5507L12.8395 61.5527L13.8352 59.8182ZM6.10795 51.6591L4.33909 52.5924L4.34221 52.5983L6.10795 51.6591ZM6.15341 25.7727L7.91603 26.7178L7.91604 26.7178L6.15341 25.7727ZM13.9261 17.6364L14.9158 19.3743L14.9219 19.3709L13.9261 17.6364ZM32.4716 15.9545L31.8466 17.8544L31.8503 17.8556L32.4716 15.9545ZM38.6307 19.2727L37.3685 20.8242L37.3765 20.8306L38.6307 19.2727ZM42.9943 24.5682L41.2317 25.5133L41.2371 25.5232L42.9943 24.5682ZM45.1761 31.75V29.75H35.2216V31.75V33.75H45.1761V31.75ZM35.2216 31.75L37.202 31.4704C36.9901 29.9699 36.5495 28.5834 35.8525 27.3402L34.108 28.3182L32.3634 29.2962C32.7876 30.0529 33.0894 30.9544 33.2412 32.0296L35.2216 31.75ZM34.108 28.3182L35.8587 27.3513C35.1768 26.1165 34.2921 25.0518 33.208 24.1734L31.9489 25.7273L30.6897 27.2811C31.3632 27.8269 31.9179 28.4896 32.3572 29.285L34.108 28.3182ZM31.9489 25.7273L33.208 24.1734C32.1274 23.2978 30.8939 22.6402 29.5284 22.1911L28.9034 24.0909L28.2785 25.9908C29.216 26.2992 30.0127 26.7325 30.6897 27.2811L31.9489 25.7273ZM28.9034 24.0909L29.5359 22.1935C28.1739 21.7396 26.7231 21.5227 25.1989 21.5227V23.5227V25.5227C26.3413 25.5227 27.3602 25.6847 28.271 25.9883L28.9034 24.0909ZM25.1989 23.5227V21.5227C22.4428 21.5227 19.9465 22.213 17.7908 23.6562L18.9034 25.3182L20.0161 26.9801C21.4361 26.0294 23.1368 25.5227 25.1989 25.5227V23.5227ZM18.9034 25.3182L17.8005 23.6497C15.641 25.0772 14.0237 27.1329 12.9092 29.7048L14.7443 30.5L16.5794 31.2952C17.4346 29.3216 18.59 27.9228 20.0063 26.9866L18.9034 25.3182ZM14.7443 30.5L12.9112 29.7003C11.7878 32.2754 11.267 35.3062 11.267 38.7273H13.267H15.267C15.267 35.6938 15.7311 33.2398 16.5775 31.2997L14.7443 30.5ZM13.267 38.7273H11.267C11.267 42.2304 11.7852 45.3095 12.9112 47.8906L14.7443 47.0909L16.5775 46.2912C15.7338 44.3572 15.267 41.8605 15.267 38.7273H13.267ZM14.7443 47.0909L12.9157 47.9009C14.0478 50.4567 15.6768 52.4907 17.8432 53.886L18.9261 52.2045L20.0091 50.5231C18.5998 49.6154 17.4409 48.2403 16.573 46.2809L14.7443 47.0909ZM18.9261 52.2045L17.8432 53.886C19.9872 55.2669 22.4397 55.9318 25.1307 55.9318V53.9318V51.9318C23.1247 51.9318 21.4408 51.4453 20.0091 50.5231L18.9261 52.2045ZM25.1307 53.9318V55.9318C26.6258 55.9318 28.048 55.734 29.3834 55.319L28.7898 53.4091L28.1962 51.4992C27.2891 51.7811 26.2719 51.9318 25.1307 51.9318V53.9318ZM28.7898 53.4091L29.3762 55.3212C30.7196 54.9092 31.9413 54.299 33.0213 53.4797L31.8125 51.8864L30.6037 50.293C29.9261 50.807 29.1327 51.212 28.2034 51.497L28.7898 53.4091ZM31.8125 51.8864L33.0385 53.4665C34.1183 52.6288 35.012 51.6125 35.714 50.4302L33.9943 49.4091L32.2746 48.388C31.8251 49.1451 31.2643 49.7803 30.5865 50.3062L31.8125 51.8864ZM33.9943 49.4091L35.7022 50.4498C36.4341 49.2488 36.9225 47.9072 37.1889 46.4508L35.2216 46.0909L33.2542 45.731C33.0661 46.7595 32.7364 47.63 32.2864 48.3684L33.9943 49.4091ZM35.2216 46.0909L35.2125 48.0909L45.167 48.1363L45.1761 46.1364L45.1853 44.1364L35.2307 44.0909L35.2216 46.0909ZM45.1761 46.1364L43.1905 45.897C42.9628 47.7859 42.3934 49.6163 41.4692 51.3968L43.2443 52.3182L45.0194 53.2396C46.1558 51.0504 46.8744 48.7596 47.1618 46.3758L45.1761 46.1364ZM43.2443 52.3182L41.4665 51.4019C40.5672 53.147 39.3476 54.7222 37.7899 56.1296L39.1307 57.6136L40.4715 59.0976C42.3683 57.3839 43.8911 55.4288 45.0221 53.2344L43.2443 52.3182ZM39.1307 57.6136L37.7906 56.129C36.2799 57.4927 34.4525 58.5971 32.2803 59.4272L32.9943 61.2955L33.7083 63.1637C36.2937 62.1756 38.5573 60.8255 40.4708 59.0983L39.1307 57.6136ZM32.9943 61.2955L32.2868 59.4248C30.1862 60.2193 27.7576 60.6364 24.9716 60.6364V62.6364V64.6364C28.1553 64.6364 31.0752 64.1595 33.7018 63.1661L32.9943 61.2955ZM24.9716 62.6364V60.6364C21.1336 60.6364 17.771 59.7715 14.831 58.0837L13.8352 59.8182L12.8395 61.5527C16.4449 63.6225 20.5066 64.6364 24.9716 64.6364V62.6364ZM13.8352 59.8182L14.8344 58.0857C11.9254 56.4079 9.60484 53.9744 7.8737 50.7199L6.10795 51.6591L4.34221 52.5983C6.39895 56.465 9.22994 59.4709 12.836 61.5507L13.8352 59.8182ZM6.10795 51.6591L7.87681 50.7257C6.18391 47.5174 5.28977 43.5444 5.28977 38.7273H3.28977H1.28977C1.28977 44.0313 2.27442 48.6796 4.3391 52.5924L6.10795 51.6591ZM3.28977 38.7273H5.28977C5.28977 33.8984 6.19773 29.9226 7.91603 26.7178L6.15341 25.7727L4.39078 24.8277C2.29091 28.7441 1.28977 33.4046 1.28977 38.7273H3.28977ZM6.15341 25.7727L7.91604 26.7178C9.66073 23.4638 11.9942 21.038 14.9158 19.3743L13.9261 17.6364L12.9365 15.8984C9.31264 17.962 6.46427 20.9604 4.39078 24.8277L6.15341 25.7727ZM13.9261 17.6364L14.9219 19.3709C17.8664 17.6805 21.1998 16.8182 24.9716 16.8182V14.8182V12.8182C20.5616 12.8182 16.5314 13.8346 12.9304 15.9019L13.9261 17.6364ZM24.9716 14.8182V16.8182C27.4799 16.8182 29.7666 17.1702 31.8466 17.8544L32.4716 15.9545L33.0965 14.0547C30.5705 13.2238 27.8572 12.8182 24.9716 12.8182V14.8182ZM32.4716 15.9545L31.8503 17.8556C33.9489 18.5414 35.7819 19.5333 37.3685 20.8241L38.6307 19.2727L39.8929 17.7213C37.9037 16.103 35.6306 14.8828 33.0929 14.0535L32.4716 15.9545ZM38.6307 19.2727L37.3765 20.8306C38.9485 22.0962 40.2328 23.6505 41.2317 25.5133L42.9943 24.5682L44.7569 23.623C43.5134 21.304 41.8886 19.328 39.8849 17.7149L38.6307 19.2727ZM42.9943 24.5682L41.2371 25.5232C42.2361 27.3613 42.8974 29.5046 43.1899 31.9843L45.1761 31.75L47.1624 31.5157C46.8186 28.6014 46.0253 25.9568 44.7516 23.6132L42.9943 24.5682ZM92.1193 51.6818L90.3598 50.7309L90.3567 50.7368L92.1193 51.6818ZM84.3011 59.8409L85.2874 61.5808L85.29 61.5794L84.3011 59.8409ZM62.0739 59.8182L63.0661 58.0817L62.0739 59.8182ZM54.2784 51.6591L52.5158 52.6042L54.2784 51.6591ZM54.2784 25.7727L56.041 26.7178V26.7178L54.2784 25.7727ZM62.0739 17.6364L63.0601 19.3763L63.0661 19.3729L62.0739 17.6364ZM84.3011 17.6364L83.3088 19.3729L83.3183 19.3782L84.3011 17.6364ZM92.1193 25.7727L90.3567 26.7178L90.3598 26.7236L92.1193 25.7727ZM83.5511 30.4091L81.7135 31.1984L81.718 31.2088L83.5511 30.4091ZM79.4375 25.2727L78.338 26.9434L79.4375 25.2727ZM66.983 25.2727L68.0825 26.9434L66.983 25.2727ZM62.8466 30.4091L61.0134 29.6094L61.0089 29.6198L62.8466 30.4091ZM62.8466 47.0455L61.0089 47.8348L61.0134 47.8452L62.8466 47.0455ZM66.983 52.1818L68.0825 50.5112L66.983 52.1818ZM79.4375 52.1818L78.338 50.5112L79.4375 52.1818ZM83.5511 47.0455L81.7179 46.2457L81.7135 46.2561L83.5511 47.0455ZM95.0057 38.7273H93.0057C93.0057 43.5538 92.091 47.5275 90.3598 50.7309L92.1193 51.6818L93.8788 52.6327C95.9961 48.7149 97.0057 44.0522 97.0057 38.7273H95.0057ZM92.1193 51.6818L90.3567 50.7368C88.6139 53.9872 86.2668 56.4219 83.3123 58.1025L84.3011 59.8409L85.29 61.5794C88.9415 59.5023 91.8066 56.4976 93.8819 52.6269L92.1193 51.6818ZM84.3011 59.8409L83.3149 58.101C80.3534 59.7796 77.0014 60.6364 73.2102 60.6364V62.6364V64.6364C77.6312 64.6364 81.6731 63.6295 85.2874 61.5808L84.3011 59.8409ZM73.2102 62.6364V60.6364C69.3889 60.6364 66.0244 59.7721 63.0661 58.0817L62.0739 59.8182L61.0816 61.5547C64.6991 63.6218 68.7588 64.6364 73.2102 64.6364V62.6364ZM62.0739 59.8182L63.0661 58.0817C60.1263 56.4018 57.7851 53.9668 56.041 50.714L54.2784 51.6591L52.5158 52.6042C54.5899 56.4725 57.4457 59.477 61.0816 61.5547L62.0739 59.8182ZM54.2784 51.6591L56.041 50.714C54.3223 47.5084 53.4148 43.5399 53.4148 38.7273H51.4148H49.4148C49.4148 44.0359 50.4163 48.6885 52.5158 52.6042L54.2784 51.6591ZM51.4148 38.7273H53.4148C53.4148 33.8984 54.3227 29.9226 56.041 26.7178L54.2784 25.7727L52.5158 24.8277C50.4159 28.7441 49.4148 33.4046 49.4148 38.7273H51.4148ZM54.2784 25.7727L56.041 26.7178C57.7845 23.4662 60.1238 21.0406 63.0601 19.3763L62.0739 17.6364L61.0876 15.8964C57.4482 17.9594 54.5905 20.9581 52.5158 24.8277L54.2784 25.7727ZM62.0739 17.6364L63.0661 19.3729C66.0244 17.6824 69.3889 16.8182 73.2102 16.8182V14.8182V12.8182C68.7588 12.8182 64.6991 13.8327 61.0816 15.8999L62.0739 17.6364ZM73.2102 14.8182V16.8182C76.9985 16.8182 80.3484 17.6811 83.3089 19.3729L84.3011 17.6364L85.2934 15.8999C81.6781 13.834 77.6341 12.8182 73.2102 12.8182V14.8182ZM84.3011 17.6364L83.3183 19.3782C86.2693 21.0432 88.6145 23.4685 90.3567 26.7178L92.1193 25.7727L93.8819 24.8277C91.8059 20.9557 88.939 17.9568 85.2839 15.8945L84.3011 17.6364ZM92.1193 25.7727L90.3598 26.7236C92.091 29.927 93.0057 33.9007 93.0057 38.7273H95.0057H97.0057C97.0057 33.4023 95.9961 28.7396 93.8788 24.8218L92.1193 25.7727ZM85.0284 38.7273H87.0284C87.0284 35.2515 86.5094 32.1885 85.3843 29.6094L83.5511 30.4091L81.718 31.2088C82.5625 33.1448 83.0284 35.6273 83.0284 38.7273H85.0284ZM83.5511 30.4091L85.3888 29.6198C84.2896 27.0607 82.6859 25.0163 80.537 23.6021L79.4375 25.2727L78.338 26.9434C79.7346 27.8625 80.8733 29.2424 81.7135 31.1984L83.5511 30.4091ZM79.4375 25.2727L80.537 23.6021C78.3992 22.1952 75.9309 21.5227 73.2102 21.5227V23.5227V25.5227C75.2471 25.5227 76.9303 26.017 78.338 26.9434L79.4375 25.2727ZM73.2102 23.5227V21.5227C70.4895 21.5227 68.0212 22.1952 65.8835 23.6021L66.983 25.2727L68.0825 26.9434C69.4902 26.017 71.1734 25.5227 73.2102 25.5227V23.5227ZM66.983 25.2727L65.8835 23.6021C63.7376 25.0143 62.1278 27.0549 61.0134 29.6094L62.8466 30.4091L64.6797 31.2088C65.5351 29.2481 66.6829 27.8645 68.0825 26.9434L66.983 25.2727ZM62.8466 30.4091L61.0089 29.6198C59.9025 32.1957 59.392 35.2548 59.392 38.7273H61.392H63.392C63.392 35.624 63.8513 33.1376 64.6842 31.1984L62.8466 30.4091ZM61.392 38.7273H59.392C59.392 42.1997 59.9025 45.2588 61.0089 47.8348L62.8466 47.0455L64.6842 46.2561C63.8513 44.3169 63.392 41.8306 63.392 38.7273H61.392ZM62.8466 47.0455L61.0134 47.8452C62.1278 50.3996 63.7376 52.4402 65.8835 53.8525L66.983 52.1818L68.0825 50.5112C66.6829 49.5901 65.5351 48.2064 64.6797 46.2458L62.8466 47.0455ZM66.983 52.1818L65.8835 53.8525C68.0212 55.2594 70.4895 55.9318 73.2102 55.9318V53.9318V51.9318C71.1734 51.9318 69.4902 51.4376 68.0825 50.5112L66.983 52.1818ZM73.2102 53.9318V55.9318C75.9309 55.9318 78.3992 55.2594 80.537 53.8525L79.4375 52.1818L78.338 50.5112C76.9303 51.4376 75.2471 51.9318 73.2102 51.9318V53.9318ZM79.4375 52.1818L80.537 53.8525C82.6859 52.4383 84.2896 50.3939 85.3888 47.8348L83.5511 47.0455L81.7135 46.2561C80.8733 48.2122 79.7346 49.592 78.338 50.5112L79.4375 52.1818ZM83.5511 47.0455L85.3843 47.8452C86.5094 45.266 87.0284 42.203 87.0284 38.7273H85.0284H83.0284C83.0284 41.8273 82.5625 44.3097 81.718 46.2458L83.5511 47.0455ZM141.227 15.4545H143.227V13.4545H141.227V15.4545ZM141.227 62V64H143.227V62H141.227ZM132.727 62L131.082 63.1372L131.678 64H132.727V62ZM112.477 32.7045L114.122 31.5673L113.526 30.7045H112.477V32.7045ZM112.136 32.7045V30.7045H110.136V32.7045H112.136ZM112.136 62V64H114.136V62H112.136ZM102.295 62H100.295V64H102.295V62ZM102.295 15.4545V13.4545H100.295V15.4545H102.295ZM110.932 15.4545L112.581 14.3228L111.985 13.4545H110.932V15.4545ZM131.023 44.7273L129.374 45.859L129.97 46.7273H131.023V44.7273ZM131.432 44.7273V46.7273H133.432V44.7273H131.432ZM131.432 15.4545V13.4545H129.432V15.4545H131.432ZM141.227 15.4545H139.227V62H141.227H143.227V15.4545H141.227ZM141.227 62V60H132.727V62V64H141.227V62ZM132.727 62L134.372 60.8628L114.122 31.5673L112.477 32.7045L110.832 33.8418L131.082 63.1372L132.727 62ZM112.477 32.7045V30.7045H112.136V32.7045V34.7045H112.477V32.7045ZM112.136 32.7045H110.136V62H112.136H114.136V32.7045H112.136ZM112.136 62V60H102.295V62V64H112.136V62ZM102.295 62H104.295V15.4545H102.295H100.295V62H102.295ZM102.295 15.4545V17.4545H110.932V15.4545V13.4545H102.295V15.4545ZM110.932 15.4545L109.283 16.5863L129.374 45.859L131.023 44.7273L132.672 43.5955L112.581 14.3228L110.932 15.4545ZM131.023 44.7273V46.7273H131.432V44.7273V42.7273H131.023V44.7273ZM131.432 44.7273H133.432V15.4545H131.432H129.432V44.7273H131.432ZM131.432 15.4545V17.4545H141.227V15.4545V13.4545H131.432V15.4545ZM147.585 23.5682H145.585V25.5682H147.585V23.5682ZM147.585 15.4545V13.4545H145.585V15.4545H147.585ZM185.812 15.4545H187.812V13.4545H185.812V15.4545ZM185.812 23.5682V25.5682H187.812V23.5682H185.812ZM171.562 23.5682V21.5682H169.562V23.5682H171.562ZM171.562 62V64H173.562V62H171.562ZM161.835 62H159.835V64H161.835V62ZM161.835 23.5682H163.835V21.5682H161.835V23.5682ZM147.585 23.5682H149.585V15.4545H147.585H145.585V23.5682H147.585ZM147.585 15.4545V17.4545H185.812V15.4545V13.4545H147.585V15.4545ZM185.812 15.4545H183.812V23.5682H185.812H187.812V15.4545H185.812ZM185.812 23.5682V21.5682H171.562V23.5682V25.5682H185.812V23.5682ZM171.562 23.5682H169.562V62H171.562H173.562V23.5682H171.562ZM171.562 62V60H161.835V62V64H171.562V62ZM161.835 62H163.835V23.5682H161.835H159.835V62H161.835ZM161.835 23.5682V21.5682H147.585V23.5682V25.5682H161.835V23.5682ZM194.443 62V64H195.896L196.345 62.6187L194.443 62ZM183.898 62L182.007 61.3474L181.091 64H183.898V62ZM199.966 15.4545V13.4545H198.541L198.075 14.8019L199.966 15.4545ZM212.648 15.4545L214.539 14.8027L214.074 13.4545H212.648V15.4545ZM228.693 62V64H231.498L230.584 61.3482L228.693 62ZM218.148 62L216.245 62.6176L216.694 64H218.148V62ZM206.489 26.0909L208.391 25.4733L207.942 24.0909H206.489V26.0909ZM206.125 26.0909V24.0909H204.672L204.223 25.4722L206.125 26.0909ZM193.784 43.7045V41.7045H191.784V43.7045H193.784ZM218.693 43.7045H220.693V41.7045H218.693V43.7045ZM218.693 51.3864V53.3864H220.693V51.3864H218.693ZM193.784 51.3864H191.784V53.3864H193.784V51.3864ZM194.443 62V60H183.898V62V64H194.443V62ZM183.898 62L185.788 62.6526L201.856 16.1072L199.966 15.4545L198.075 14.8019L182.007 61.3474L183.898 62ZM199.966 15.4545V17.4545H212.648V15.4545V13.4545H199.966V15.4545ZM212.648 15.4545L210.757 16.1064L226.802 62.6518L228.693 62L230.584 61.3482L214.539 14.8027L212.648 15.4545ZM228.693 62V60H218.148V62V64H228.693V62ZM218.148 62L220.05 61.3824L208.391 25.4733L206.489 26.0909L204.586 26.7085L216.245 62.6176L218.148 62ZM206.489 26.0909V24.0909H206.125V26.0909V28.0909H206.489V26.0909ZM206.125 26.0909L204.223 25.4722L192.541 61.3813L194.443 62L196.345 62.6187L208.027 26.7096L206.125 26.0909ZM193.784 43.7045V45.7045H218.693V43.7045V41.7045H193.784V43.7045ZM218.693 43.7045H216.693V51.3864H218.693H220.693V43.7045H218.693ZM218.693 51.3864V49.3864H193.784V51.3864V53.3864H218.693V51.3864ZM193.784 51.3864H195.784V43.7045H193.784H191.784V51.3864H193.784ZM273.176 31.75V33.75H275.426L275.162 31.5157L273.176 31.75ZM263.222 31.75L261.241 32.0296L261.484 33.75H263.222V31.75ZM262.108 28.3182L260.357 29.285L260.363 29.2962L262.108 28.3182ZM259.949 25.7273L258.69 27.2811V27.2811L259.949 25.7273ZM256.903 24.0909L256.271 25.9883L256.278 25.9908L256.903 24.0909ZM246.903 25.3182L248.006 26.9866L248.016 26.9801L246.903 25.3182ZM242.744 30.5L244.577 31.2997L244.579 31.2952L242.744 30.5ZM242.744 47.0909L240.911 47.8906L240.916 47.9009L242.744 47.0909ZM246.926 52.2045L245.843 53.886L246.926 52.2045ZM256.79 53.4091L256.203 51.497L256.196 51.4992L256.79 53.4091ZM259.812 51.8864L261.021 53.4797L261.03 53.4732L261.038 53.4665L259.812 51.8864ZM261.994 49.4091L260.286 48.3684L260.28 48.3781L260.275 48.388L261.994 49.4091ZM263.222 46.0909L263.231 44.0909L261.556 44.0833L261.254 45.731L263.222 46.0909ZM273.176 46.1364L275.162 46.3758L275.431 44.1466L273.185 44.1364L273.176 46.1364ZM271.244 52.3182L269.469 51.3968L269.467 51.4019L271.244 52.3182ZM267.131 57.6136L268.471 59.0983L268.471 59.0976L267.131 57.6136ZM260.994 61.2955L261.702 63.1661L261.708 63.1637L260.994 61.2955ZM241.835 59.8182L240.836 61.5507L240.839 61.5527L241.835 59.8182ZM234.108 51.6591L232.339 52.5924L232.342 52.5983L234.108 51.6591ZM234.153 25.7727L235.916 26.7178V26.7178L234.153 25.7727ZM241.926 17.6364L242.916 19.3743L242.922 19.3709L241.926 17.6364ZM260.472 15.9545L259.847 17.8544L259.85 17.8556L260.472 15.9545ZM266.631 19.2727L265.368 20.8242L265.376 20.8306L266.631 19.2727ZM270.994 24.5682L269.232 25.5133L269.237 25.5232L270.994 24.5682ZM273.176 31.75V29.75H263.222V31.75V33.75H273.176V31.75ZM263.222 31.75L265.202 31.4704C264.99 29.9699 264.549 28.5834 263.853 27.3402L262.108 28.3182L260.363 29.2962C260.788 30.0529 261.089 30.9544 261.241 32.0296L263.222 31.75ZM262.108 28.3182L263.859 27.3513C263.177 26.1165 262.292 25.0518 261.208 24.1734L259.949 25.7273L258.69 27.2811C259.363 27.8269 259.918 28.4896 260.357 29.285L262.108 28.3182ZM259.949 25.7273L261.208 24.1734C260.127 23.2978 258.894 22.6402 257.528 22.1911L256.903 24.0909L256.278 25.9908C257.216 26.2992 258.013 26.7325 258.69 27.2811L259.949 25.7273ZM256.903 24.0909L257.536 22.1935C256.174 21.7396 254.723 21.5227 253.199 21.5227V23.5227V25.5227C254.341 25.5227 255.36 25.6847 256.271 25.9883L256.903 24.0909ZM253.199 23.5227V21.5227C250.443 21.5227 247.946 22.213 245.791 23.6562L246.903 25.3182L248.016 26.9801C249.436 26.0294 251.137 25.5227 253.199 25.5227V23.5227ZM246.903 25.3182L245.801 23.6497C243.641 25.0772 242.024 27.1329 240.909 29.7048L242.744 30.5L244.579 31.2952C245.435 29.3216 246.59 27.9228 248.006 26.9866L246.903 25.3182ZM242.744 30.5L240.911 29.7003C239.788 32.2754 239.267 35.3062 239.267 38.7273H241.267H243.267C243.267 35.6938 243.731 33.2398 244.577 31.2997L242.744 30.5ZM241.267 38.7273H239.267C239.267 42.2304 239.785 45.3095 240.911 47.8906L242.744 47.0909L244.577 46.2912C243.734 44.3572 243.267 41.8605 243.267 38.7273H241.267ZM242.744 47.0909L240.916 47.9009C242.048 50.4567 243.677 52.4907 245.843 53.886L246.926 52.2045L248.009 50.5231C246.6 49.6154 245.441 48.2403 244.573 46.2809L242.744 47.0909ZM246.926 52.2045L245.843 53.886C247.987 55.2669 250.44 55.9318 253.131 55.9318V53.9318V51.9318C251.125 51.9318 249.441 51.4453 248.009 50.5231L246.926 52.2045ZM253.131 53.9318V55.9318C254.626 55.9318 256.048 55.734 257.383 55.319L256.79 53.4091L256.196 51.4992C255.289 51.7811 254.272 51.9318 253.131 51.9318V53.9318ZM256.79 53.4091L257.376 55.3212C258.72 54.9092 259.941 54.299 261.021 53.4797L259.812 51.8864L258.604 50.293C257.926 50.807 257.133 51.212 256.203 51.497L256.79 53.4091ZM259.812 51.8864L261.038 53.4665C262.118 52.6288 263.012 51.6125 263.714 50.4302L261.994 49.4091L260.275 48.388C259.825 49.1451 259.264 49.7803 258.587 50.3062L259.812 51.8864ZM261.994 49.4091L263.702 50.4498C264.434 49.2488 264.923 47.9072 265.189 46.4508L263.222 46.0909L261.254 45.731C261.066 46.7595 260.736 47.63 260.286 48.3684L261.994 49.4091ZM263.222 46.0909L263.212 48.0909L273.167 48.1363L273.176 46.1364L273.185 44.1364L263.231 44.0909L263.222 46.0909ZM273.176 46.1364L271.191 45.897C270.963 47.7859 270.393 49.6163 269.469 51.3968L271.244 52.3182L273.019 53.2396C274.156 51.0504 274.874 48.7596 275.162 46.3758L273.176 46.1364ZM271.244 52.3182L269.467 51.4019C268.567 53.147 267.348 54.7222 265.79 56.1296L267.131 57.6136L268.471 59.0976C270.368 57.3839 271.891 55.4288 273.022 53.2344L271.244 52.3182ZM267.131 57.6136L265.791 56.129C264.28 57.4927 262.453 58.5971 260.28 59.4272L260.994 61.2955L261.708 63.1637C264.294 62.1756 266.557 60.8255 268.471 59.0983L267.131 57.6136ZM260.994 61.2955L260.287 59.4248C258.186 60.2193 255.758 60.6364 252.972 60.6364V62.6364V64.6364C256.155 64.6364 259.075 64.1595 261.702 63.1661L260.994 61.2955ZM252.972 62.6364V60.6364C249.134 60.6364 245.771 59.7715 242.831 58.0837L241.835 59.8182L240.839 61.5527C244.445 63.6225 248.507 64.6364 252.972 64.6364V62.6364ZM241.835 59.8182L242.834 58.0857C239.925 56.4079 237.605 53.9744 235.874 50.7199L234.108 51.6591L232.342 52.5983C234.399 56.465 237.23 59.4709 240.836 61.5507L241.835 59.8182ZM234.108 51.6591L235.877 50.7257C234.184 47.5174 233.29 43.5444 233.29 38.7273H231.29H229.29C229.29 44.0313 230.274 48.6796 232.339 52.5924L234.108 51.6591ZM231.29 38.7273H233.29C233.29 33.8984 234.198 29.9226 235.916 26.7178L234.153 25.7727L232.391 24.8277C230.291 28.7441 229.29 33.4046 229.29 38.7273H231.29ZM234.153 25.7727L235.916 26.7178C237.661 23.4638 239.994 21.038 242.916 19.3743L241.926 17.6364L240.936 15.8984C237.313 17.962 234.464 20.9604 232.391 24.8277L234.153 25.7727ZM241.926 17.6364L242.922 19.3709C245.866 17.6805 249.2 16.8182 252.972 16.8182V14.8182V12.8182C248.562 12.8182 244.531 13.8346 240.93 15.9019L241.926 17.6364ZM252.972 14.8182V16.8182C255.48 16.8182 257.767 17.1702 259.847 17.8544L260.472 15.9545L261.097 14.0547C258.571 13.2238 255.857 12.8182 252.972 12.8182V14.8182ZM260.472 15.9545L259.85 17.8556C261.949 18.5414 263.782 19.5333 265.368 20.8241L266.631 19.2727L267.893 17.7213C265.904 16.103 263.631 14.8828 261.093 14.0535L260.472 15.9545ZM266.631 19.2727L265.376 20.8306C266.948 22.0962 268.233 23.6505 269.232 25.5133L270.994 24.5682L272.757 23.623C271.513 21.304 269.889 19.328 267.885 17.7149L266.631 19.2727ZM270.994 24.5682L269.237 25.5232C270.236 27.3613 270.897 29.5046 271.19 31.9843L273.176 31.75L275.162 31.5157C274.819 28.6014 274.025 25.9568 272.752 23.6132L270.994 24.5682ZM278.46 23.5682H276.46V25.5682H278.46V23.5682ZM278.46 15.4545V13.4545H276.46V15.4545H278.46ZM316.688 15.4545H318.688V13.4545H316.688V15.4545ZM316.688 23.5682V25.5682H318.688V23.5682H316.688ZM302.438 23.5682V21.5682H300.438V23.5682H302.438ZM302.438 62V64H304.438V62H302.438ZM292.71 62H290.71V64H292.71V62ZM292.71 23.5682H294.71V21.5682H292.71V23.5682ZM278.46 23.5682H280.46V15.4545H278.46H276.46V23.5682H278.46ZM278.46 15.4545V17.4545H316.688V15.4545V13.4545H278.46V15.4545ZM316.688 15.4545H314.688V23.5682H316.688H318.688V15.4545H316.688ZM316.688 23.5682V21.5682H302.438V23.5682V25.5682H316.688V23.5682ZM302.438 23.5682H300.438V62H302.438H304.438V23.5682H302.438ZM302.438 62V60H292.71V62V64H302.438V62ZM292.71 62H294.71V23.5682H292.71H290.71V62H292.71ZM292.71 23.5682V21.5682H278.46V23.5682V25.5682H292.71V23.5682Z" fill="black" mask="url(#path-1-outside-1_131_66)"/>
<path d="M97.84 85.76H105.24V87.9H97.84V85.76ZM100.02 90.02H103.52V91.98H100.02V90.02ZM105.82 98.46H108.8V100.08H105.82V98.46ZM112.06 98.46H115.12V100.08H112.06V98.46ZM100.02 94.1H103.52V96.06H100.02V94.1ZM98.76 86.9H100.72V99.46H98.76V86.9ZM102.28 86.88H104.28V103.8H102.28V86.88ZM110.88 94.9H112.82V103.8H110.88V94.9ZM105.18 95.5H106.92V100.8H105.18V95.5ZM113.98 95.5H115.78V100.78H113.98V95.5ZM97.5 98.96C98.2467 98.8533 99.1267 98.72 100.14 98.56C101.153 98.3867 102.187 98.2067 103.24 98.02L103.4 100.08C102.453 100.28 101.5 100.473 100.54 100.66C99.5933 100.847 98.7067 101.02 97.88 101.18L97.5 98.96ZM108 94.92H109.92V98.46C109.92 99.2067 109.847 99.92 109.7 100.6C109.553 101.28 109.247 101.893 108.78 102.44C108.327 103 107.627 103.48 106.68 103.88C106.613 103.733 106.513 103.56 106.38 103.36C106.247 103.16 106.1 102.96 105.94 102.76C105.793 102.573 105.653 102.427 105.52 102.32C106.253 102.013 106.793 101.66 107.14 101.26C107.487 100.847 107.713 100.4 107.82 99.92C107.94 99.44 108 98.9467 108 98.44V94.92ZM104.64 93C105.293 92.96 106.06 92.9067 106.94 92.84C107.82 92.7733 108.733 92.7067 109.68 92.64L109.7 94.18C108.847 94.2733 108.007 94.36 107.18 94.44C106.353 94.52 105.58 94.5933 104.86 94.66L104.64 93ZM104.9 88.94L105.88 87.56C106.333 87.92 106.793 88.3333 107.26 88.8C107.74 89.2667 108.093 89.6867 108.32 90.06L107.28 91.62C107.067 91.2333 106.727 90.7867 106.26 90.28C105.807 89.7733 105.353 89.3267 104.9 88.94ZM108.48 91.7L109.86 91.3C110.113 91.7667 110.327 92.28 110.5 92.84C110.673 93.3867 110.78 93.8533 110.82 94.24L109.34 94.72C109.313 94.32 109.22 93.84 109.06 93.28C108.9 92.72 108.707 92.1933 108.48 91.7ZM107.28 85.02L109.22 85.6C108.873 86.2267 108.507 86.8733 108.12 87.54C107.747 88.2067 107.407 88.7733 107.1 89.24L105.82 88.74C106.007 88.3933 106.193 88 106.38 87.56C106.567 87.12 106.74 86.68 106.9 86.24C107.06 85.7867 107.187 85.38 107.28 85.02ZM108.76 87.6L110.52 88.22C110.147 88.8333 109.74 89.4867 109.3 90.18C108.873 90.8733 108.44 91.54 108 92.18C107.573 92.8067 107.167 93.36 106.78 93.84L105.56 93.3C105.933 92.7933 106.32 92.2133 106.72 91.56C107.12 90.8933 107.5 90.2133 107.86 89.52C108.22 88.8133 108.52 88.1733 108.76 87.6ZM110.46 92.94C111.113 92.9 111.88 92.8467 112.76 92.78C113.64 92.7133 114.553 92.6467 115.5 92.58L115.52 94.1C114.68 94.1933 113.847 94.2867 113.02 94.38C112.207 94.46 111.447 94.54 110.74 94.62L110.46 92.94ZM110.28 88.9L111.22 87.46C111.7 87.8067 112.18 88.2133 112.66 88.68C113.153 89.1467 113.513 89.5733 113.74 89.96L112.74 91.58C112.527 91.18 112.18 90.7333 111.7 90.24C111.233 89.7333 110.76 89.2867 110.28 88.9ZM114.02 91.72L115.46 91.26C115.74 91.78 115.987 92.3467 116.2 92.96C116.413 93.5733 116.54 94.1 116.58 94.54L115.04 95.08C115 94.6267 114.887 94.0933 114.7 93.48C114.513 92.8533 114.287 92.2667 114.02 91.72ZM112.74 85.02L114.72 85.62C114.36 86.2467 113.987 86.9 113.6 87.58C113.213 88.2467 112.86 88.8067 112.54 89.26L111.2 88.74C111.387 88.3933 111.573 88.0067 111.76 87.58C111.96 87.14 112.14 86.7 112.3 86.26C112.473 85.8067 112.62 85.3933 112.74 85.02ZM114.26 87.54L116.1 88.2C115.727 88.8133 115.32 89.4667 114.88 90.16C114.453 90.84 114.027 91.5 113.6 92.14C113.173 92.78 112.76 93.3333 112.36 93.8L111.1 93.24C111.473 92.7333 111.853 92.1467 112.24 91.48C112.64 90.8133 113.013 90.1333 113.36 89.44C113.707 88.7467 114.007 88.1133 114.26 87.54ZM141.24 96.1H150.18V103.72H147.84V98.14H143.48V103.78H141.24V96.1ZM142.54 100.9H148.58V102.98H142.54V100.9ZM143.58 85L145.9 85.4C145.553 86.2133 145.133 87.02 144.64 87.82C144.16 88.62 143.6 89.3933 142.96 90.14C142.333 90.8867 141.607 91.5867 140.78 92.24C140.673 92.08 140.527 91.8933 140.34 91.68C140.153 91.4667 139.96 91.2733 139.76 91.1C139.56 90.9133 139.367 90.7667 139.18 90.66C139.927 90.1267 140.58 89.54 141.14 88.9C141.713 88.26 142.2 87.6067 142.6 86.94C143 86.2733 143.327 85.6267 143.58 85ZM143.84 86.78H148.84V88.84H142.82L143.84 86.78ZM148.2 86.78H148.66L149.06 86.7L150.52 87.52C149.933 89.0533 149.14 90.4267 148.14 91.64C147.153 92.8533 146.04 93.9 144.8 94.78C143.56 95.6467 142.267 96.34 140.92 96.86C140.827 96.6733 140.693 96.46 140.52 96.22C140.36 95.98 140.18 95.7467 139.98 95.52C139.793 95.28 139.62 95.0933 139.46 94.96C140.767 94.52 142 93.9333 143.16 93.2C144.333 92.4533 145.353 91.58 146.22 90.58C147.1 89.5667 147.76 88.44 148.2 87.2V86.78ZM143.56 88.64C144.107 89.48 144.807 90.2867 145.66 91.06C146.513 91.8333 147.46 92.5267 148.5 93.14C149.553 93.74 150.64 94.2267 151.76 94.6C151.587 94.7467 151.4 94.94 151.2 95.18C151 95.4067 150.813 95.64 150.64 95.88C150.48 96.12 150.34 96.3333 150.22 96.52C149.073 96.0667 147.96 95.4867 146.88 94.78C145.813 94.06 144.827 93.2533 143.92 92.36C143.027 91.4533 142.253 90.4867 141.6 89.46L143.56 88.64ZM135.6 85.02L137.68 85.8C137.413 86.3067 137.133 86.8333 136.84 87.38C136.547 87.9267 136.26 88.4467 135.98 88.94C135.7 89.4333 135.433 89.86 135.18 90.22L133.58 89.54C133.82 89.1267 134.067 88.66 134.32 88.14C134.573 87.62 134.813 87.0867 135.04 86.54C135.267 85.9933 135.453 85.4867 135.6 85.02ZM137.9 87.4L139.86 88.28C139.38 89.04 138.853 89.84 138.28 90.68C137.707 91.5067 137.133 92.3067 136.56 93.08C135.987 93.84 135.447 94.5067 134.94 95.08L133.54 94.3C133.913 93.8467 134.3 93.34 134.7 92.78C135.1 92.2067 135.493 91.6133 135.88 91C136.28 90.3733 136.653 89.7533 137 89.14C137.347 88.5133 137.647 87.9333 137.9 87.4ZM132.52 89.76L133.68 88.12C134.027 88.4267 134.38 88.7667 134.74 89.14C135.113 89.5 135.453 89.8667 135.76 90.24C136.08 90.6 136.32 90.9267 136.48 91.22L135.26 93.08C135.1 92.76 134.867 92.4067 134.56 92.02C134.267 91.6333 133.94 91.24 133.58 90.84C133.22 90.44 132.867 90.08 132.52 89.76ZM137.32 92.16L138.9 91.5C139.153 91.9533 139.4 92.44 139.64 92.96C139.88 93.4667 140.087 93.96 140.26 94.44C140.447 94.92 140.58 95.3533 140.66 95.74L138.96 96.5C138.893 96.1133 138.773 95.6733 138.6 95.18C138.44 94.6733 138.247 94.16 138.02 93.64C137.793 93.1067 137.56 92.6133 137.32 92.16ZM132.5 93.82C133.42 93.7933 134.52 93.7533 135.8 93.7C137.08 93.6467 138.38 93.5933 139.7 93.54L139.68 95.44C138.44 95.5333 137.207 95.62 135.98 95.7C134.767 95.78 133.673 95.8533 132.7 95.92L132.5 93.82ZM137.74 97.14L139.42 96.6C139.673 97.1733 139.913 97.8 140.14 98.48C140.38 99.1467 140.56 99.7333 140.68 100.24L138.9 100.88C138.807 100.373 138.647 99.7733 138.42 99.08C138.193 98.3733 137.967 97.7267 137.74 97.14ZM133.38 96.76L135.36 97.12C135.253 98.08 135.093 99.0267 134.88 99.96C134.667 100.893 134.42 101.68 134.14 102.32C134.007 102.227 133.827 102.12 133.6 102C133.373 101.893 133.14 101.787 132.9 101.68C132.673 101.573 132.473 101.493 132.3 101.44C132.593 100.84 132.827 100.127 133 99.3C133.173 98.46 133.3 97.6133 133.38 96.76ZM135.62 94.88H137.72V103.8H135.62V94.88ZM168.58 86.94L169.64 85.3C170.093 85.4067 170.58 85.5467 171.1 85.72C171.62 85.88 172.127 86.0533 172.62 86.24C173.127 86.4133 173.547 86.58 173.88 86.74L172.8 88.56C172.48 88.4 172.08 88.22 171.6 88.02C171.12 87.8067 170.613 87.6067 170.08 87.42C169.547 87.2333 169.047 87.0733 168.58 86.94ZM167.7 90.32C168.433 90.1867 169.313 90 170.34 89.76C171.38 89.52 172.427 89.28 173.48 89.04L173.7 90.92C172.833 91.2 171.953 91.4667 171.06 91.72C170.18 91.96 169.36 92.1867 168.6 92.4L167.7 90.32ZM176.56 86.34H184.24V88.04H175.22L176.56 86.34ZM183.68 86.34H184.02L184.38 86.26L185.96 86.68C185.707 87.2133 185.407 87.76 185.06 88.32C184.727 88.88 184.4 89.3467 184.08 89.72L182.2 89.14C182.467 88.82 182.74 88.4267 183.02 87.96C183.3 87.48 183.52 87.0333 183.68 86.62V86.34ZM178.62 87.06H180.76C180.667 87.7667 180.507 88.4133 180.28 89C180.053 89.5733 179.72 90.0867 179.28 90.54C178.853 90.98 178.273 91.3667 177.54 91.7C176.82 92.0333 175.893 92.3133 174.76 92.54C174.667 92.2867 174.513 91.9933 174.3 91.66C174.087 91.3133 173.88 91.04 173.68 90.84C174.64 90.68 175.427 90.4867 176.04 90.26C176.653 90.0333 177.127 89.7733 177.46 89.48C177.807 89.1733 178.067 88.82 178.24 88.42C178.413 88.02 178.54 87.5667 178.62 87.06ZM180.64 87.56C180.72 87.9333 180.853 88.2933 181.04 88.64C181.24 88.9867 181.54 89.3067 181.94 89.6C182.34 89.88 182.9 90.1333 183.62 90.36C184.34 90.5733 185.267 90.7467 186.4 90.88C186.173 91.12 185.947 91.4333 185.72 91.82C185.493 92.2067 185.32 92.5533 185.2 92.86C183.96 92.66 182.94 92.38 182.14 92.02C181.353 91.66 180.733 91.2533 180.28 90.8C179.84 90.3467 179.5 89.86 179.26 89.34C179.033 88.8067 178.853 88.28 178.72 87.76L180.64 87.56ZM176.5 85L178.62 85.36C178.233 86.1467 177.78 86.9067 177.26 87.64C176.74 88.36 176.1 89.0267 175.34 89.64C175.127 89.4267 174.84 89.2133 174.48 89C174.133 88.7867 173.813 88.62 173.52 88.5C174.253 87.9933 174.867 87.4333 175.36 86.82C175.853 86.1933 176.233 85.5867 176.5 85ZM172.74 95.9V96.74H181.44V95.9H172.74ZM172.74 98.1V98.98H181.44V98.1H172.74ZM172.74 93.68V94.54H181.44V93.68H172.74ZM170.42 92.26H183.86V100.4H170.42V92.26ZM178.12 101.46L180.12 100.32C180.84 100.573 181.567 100.847 182.3 101.14C183.047 101.42 183.753 101.707 184.42 102C185.1 102.28 185.673 102.533 186.14 102.76L183.34 103.84C182.967 103.627 182.5 103.38 181.94 103.1C181.38 102.82 180.773 102.533 180.12 102.24C179.48 101.96 178.813 101.7 178.12 101.46ZM173.7 100.24L175.88 101.24C175.347 101.587 174.72 101.927 174 102.26C173.28 102.593 172.54 102.893 171.78 103.16C171.02 103.44 170.3 103.673 169.62 103.86C169.473 103.7 169.293 103.507 169.08 103.28C168.88 103.067 168.667 102.847 168.44 102.62C168.213 102.407 168.013 102.233 167.84 102.1C168.547 101.967 169.26 101.807 169.98 101.62C170.713 101.433 171.4 101.22 172.04 100.98C172.693 100.74 173.247 100.493 173.7 100.24ZM210.42 85.8H218.18V88.08H210.42V85.8ZM210.18 92.52H216.54V94.76H210.18V92.52ZM212.38 87.32H214.66V92.38C214.66 93.3267 214.62 94.3 214.54 95.3C214.46 96.3 214.293 97.3 214.04 98.3C213.8 99.3 213.433 100.267 212.94 101.2C212.447 102.12 211.793 102.987 210.98 103.8C210.86 103.627 210.693 103.427 210.48 103.2C210.267 102.987 210.047 102.78 209.82 102.58C209.607 102.38 209.407 102.22 209.22 102.1C209.927 101.393 210.493 100.64 210.92 99.84C211.347 99.04 211.66 98.22 211.86 97.38C212.073 96.5267 212.213 95.68 212.28 94.84C212.347 93.9867 212.38 93.1533 212.38 92.34V87.32ZM216.92 85.8H219.38C219.353 86.9333 219.333 88.0933 219.32 89.28C219.307 90.4667 219.3 91.6267 219.3 92.76C219.313 93.88 219.34 94.94 219.38 95.94C219.42 96.9267 219.473 97.8067 219.54 98.58C219.62 99.34 219.713 99.9533 219.82 100.42C219.927 100.873 220.06 101.12 220.22 101.16C220.273 101.173 220.32 101.047 220.36 100.78C220.4 100.513 220.433 100.167 220.46 99.74C220.5 99.3133 220.527 98.8733 220.54 98.42C220.66 98.62 220.8 98.8533 220.96 99.12C221.12 99.3867 221.28 99.6333 221.44 99.86C221.6 100.087 221.74 100.26 221.86 100.38C221.753 101.42 221.567 102.207 221.3 102.74C221.047 103.273 220.74 103.6 220.38 103.72C220.02 103.84 219.62 103.807 219.18 103.62C218.7 103.447 218.313 102.987 218.02 102.24C217.727 101.507 217.507 100.567 217.36 99.42C217.213 98.26 217.107 96.9533 217.04 95.5C216.987 94.0333 216.953 92.4733 216.94 90.82C216.927 89.1667 216.92 87.4933 216.92 85.8ZM203.54 91.14H209.58V92.96H203.54V91.14ZM203.62 85.64H209.54V87.44H203.62V85.64ZM203.54 93.88H209.58V95.68H203.54V93.88ZM202.6 88.32H210.24V90.22H202.6V88.32ZM204.58 96.64H209.62V102.74H204.58V100.84H207.56V98.54H204.58V96.64ZM203.5 96.64H205.52V103.52H203.5V96.64Z" fill="black"/>
</svg>
