<svg width="269" height="108" viewBox="0 0 269 108" fill="none" xmlns="http://www.w3.org/2000/svg">
<mask id="path-1-outside-1_644_2067" maskUnits="userSpaceOnUse" x="2.76831" y="12.9004" width="265" height="53" fill="black">
<rect fill="white" x="2.76831" y="12.9004" width="265" height="53"/>
<path d="M5.03252 62.9004V16.3549H23.3962C26.9113 16.3549 29.9113 16.9837 32.3962 18.2413C34.8962 19.4837 36.7977 21.2489 38.1007 23.5368C39.4189 25.8095 40.078 28.4837 40.078 31.5595C40.078 34.6504 39.4113 37.3095 38.078 39.5368C36.7446 41.7489 34.8128 43.4458 32.2825 44.6277C29.7674 45.8095 26.7219 46.4004 23.1462 46.4004H10.8507V38.4913H21.5552C23.434 38.4913 24.9946 38.2337 26.2371 37.7186C27.4795 37.2034 28.4037 36.4307 29.0098 35.4004C29.631 34.3701 29.9416 33.0898 29.9416 31.5595C29.9416 30.014 29.631 28.711 29.0098 27.6504C28.4037 26.5898 27.4719 25.7868 26.2143 25.2413C24.9719 24.6807 23.4037 24.4004 21.5098 24.4004H14.8734V62.9004H5.03252ZM30.1689 41.7186L41.7371 62.9004H30.8734L19.5552 41.7186H30.1689ZM47.0325 62.9004V16.3549H78.3962V24.4686H56.8734V35.5595H76.7825V43.6731H56.8734V54.7868H78.4871V62.9004H47.0325ZM111.47 29.7413C111.288 27.908 110.508 26.4837 109.129 25.4686C107.75 24.4534 105.879 23.9458 103.515 23.9458C101.909 23.9458 100.553 24.1731 99.4473 24.6277C98.3412 25.0671 97.4927 25.6807 96.9018 26.4686C96.3261 27.2565 96.0382 28.1504 96.0382 29.1504C96.0079 29.9837 96.1821 30.711 96.5609 31.3322C96.9549 31.9534 97.4927 32.4913 98.1746 32.9458C98.8564 33.3852 99.6443 33.7716 100.538 34.1049C101.432 34.4231 102.387 34.6958 103.402 34.9231L107.584 35.9231C109.614 36.3777 111.478 36.9837 113.175 37.7413C114.872 38.4989 116.341 39.4307 117.584 40.5368C118.826 41.6428 119.788 42.9458 120.47 44.4458C121.167 45.9458 121.523 47.6655 121.538 49.6049C121.523 52.4534 120.796 54.9231 119.356 57.014C117.932 59.0898 115.872 60.7034 113.175 61.8549C110.493 62.9913 107.258 63.5595 103.47 63.5595C99.7124 63.5595 96.4397 62.9837 93.6518 61.8322C90.8791 60.6807 88.7124 58.9761 87.1518 56.7186C85.6064 54.4458 84.7958 51.6352 84.72 48.2868H94.2427C94.3488 49.8474 94.7958 51.1504 95.5837 52.1958C96.3867 53.2261 97.4549 54.0065 98.7882 54.5368C100.137 55.0519 101.659 55.3095 103.356 55.3095C105.023 55.3095 106.47 55.0671 107.697 54.5822C108.94 54.0974 109.902 53.4231 110.584 52.5595C111.265 51.6958 111.606 50.7034 111.606 49.5822C111.606 48.5368 111.296 47.658 110.675 46.9458C110.069 46.2337 109.175 45.6277 107.993 45.1277C106.826 44.6277 105.394 44.1731 103.697 43.764L98.6291 42.4913C94.7049 41.5368 91.6064 40.0443 89.3337 38.014C87.0609 35.9837 85.9321 33.2489 85.9473 29.8095C85.9321 26.9913 86.6821 24.5292 88.1973 22.4231C89.7276 20.3171 91.8261 18.6731 94.4927 17.4913C97.1594 16.3095 100.19 15.7186 103.584 15.7186C107.038 15.7186 110.053 16.3095 112.629 17.4913C115.22 18.6731 117.235 20.3171 118.675 22.4231C120.114 24.5292 120.856 26.9686 120.902 29.7413H111.47ZM156.908 16.3549H166.748V46.5822C166.748 49.9761 165.938 52.9458 164.317 55.4913C162.711 58.0368 160.461 60.0216 157.567 61.4458C154.673 62.8549 151.301 63.5595 147.453 63.5595C143.589 63.5595 140.211 62.8549 137.317 61.4458C134.423 60.0216 132.173 58.0368 130.567 55.4913C128.961 52.9458 128.158 49.9761 128.158 46.5822V16.3549H137.998V45.7413C137.998 47.514 138.385 49.0898 139.158 50.4686C139.945 51.8474 141.051 52.9307 142.476 53.7186C143.9 54.5065 145.559 54.9004 147.453 54.9004C149.362 54.9004 151.021 54.5065 152.43 53.7186C153.854 52.9307 154.953 51.8474 155.726 50.4686C156.514 49.0898 156.908 47.514 156.908 45.7413V16.3549ZM174.845 16.3549H186.981L199.8 47.6277H200.345L213.163 16.3549H225.3V62.9004H215.754V32.6049H215.368L203.322 62.6731H196.822L184.777 32.4913H184.39V62.9004H174.845V16.3549ZM233.408 62.9004V16.3549H264.771V24.4686H243.248V35.5595H263.158V43.6731H243.248V54.7868H264.862V62.9004H233.408Z"/>
</mask>
<path d="M5.03252 62.9004H3.03252V64.9004H5.03252V62.9004ZM5.03252 16.3549V14.3549H3.03252V16.3549H5.03252ZM32.3962 18.2413L31.493 20.0258L31.4995 20.0291L31.5061 20.0323L32.3962 18.2413ZM38.1007 23.5368L36.3628 24.5266L36.3667 24.5334L36.3706 24.5402L38.1007 23.5368ZM38.078 39.5368L39.7909 40.5692L39.794 40.564L38.078 39.5368ZM32.2825 44.6277L31.4361 42.8156L31.432 42.8175L32.2825 44.6277ZM10.8507 46.4004H8.8507V48.4004H10.8507V46.4004ZM10.8507 38.4913V36.4913H8.8507V38.4913H10.8507ZM26.2371 37.7186L27.0031 39.5661L27.0031 39.5661L26.2371 37.7186ZM29.0098 35.4004L27.297 34.3677L27.2914 34.377L27.2859 34.3864L29.0098 35.4004ZM29.0098 27.6504L27.2733 28.6427L27.2786 28.652L27.284 28.6612L29.0098 27.6504ZM26.2143 25.2413L25.3918 27.0643L25.4051 27.0703L25.4185 27.0761L26.2143 25.2413ZM14.8734 24.4004V22.4004H12.8734V24.4004H14.8734ZM14.8734 62.9004V64.9004H16.8734V62.9004H14.8734ZM30.1689 41.7186L31.9242 40.7599L31.3554 39.7186H30.1689V41.7186ZM41.7371 62.9004V64.9004H45.1082L43.4923 61.9418L41.7371 62.9004ZM30.8734 62.9004L29.1095 63.8429L29.6745 64.9004H30.8734V62.9004ZM19.5552 41.7186V39.7186H16.219L17.7913 42.6611L19.5552 41.7186ZM5.03252 62.9004H7.03252V16.3549H5.03252H3.03252V62.9004H5.03252ZM5.03252 16.3549V18.3549H23.3962V16.3549V14.3549H5.03252V16.3549ZM23.3962 16.3549V18.3549C26.6777 18.3549 29.3519 18.9421 31.493 20.0258L32.3962 18.2413L33.2993 16.4568C30.4707 15.0253 27.1449 14.3549 23.3962 14.3549V16.3549ZM32.3962 18.2413L31.5061 20.0323C33.6727 21.1091 35.2686 22.6054 36.3628 24.5266L38.1007 23.5368L39.8386 22.547C38.3267 19.8924 36.1196 17.8584 33.2862 16.4503L32.3962 18.2413ZM38.1007 23.5368L36.3706 24.5402C37.4839 26.4595 38.078 28.7754 38.078 31.5595H40.078H42.078C42.078 28.192 41.3539 25.1594 39.8308 22.5333L38.1007 23.5368ZM40.078 31.5595H38.078C38.078 34.358 37.4768 36.6473 36.362 38.5095L38.078 39.5368L39.794 40.564C41.3459 37.9717 42.078 34.9427 42.078 31.5595H40.078ZM38.078 39.5368L36.3651 38.5043C35.2535 40.3484 33.6372 41.7875 31.4362 42.8156L32.2825 44.6277L33.1289 46.4398C35.9884 45.1042 38.2357 43.1493 39.7909 40.5692L38.078 39.5368ZM32.2825 44.6277L31.432 42.8175C29.2478 43.8438 26.5091 44.4004 23.1462 44.4004V46.4004V48.4004C26.9347 48.4004 30.2869 47.7751 33.1331 46.4378L32.2825 44.6277ZM23.1462 46.4004V44.4004H10.8507V46.4004V48.4004H23.1462V46.4004ZM10.8507 46.4004H12.8507V38.4913H10.8507H8.8507V46.4004H10.8507ZM10.8507 38.4913V40.4913H21.5552V38.4913V36.4913H10.8507V38.4913ZM21.5552 38.4913V40.4913C23.5999 40.4913 25.4419 40.2134 27.0031 39.5661L26.2371 37.7186L25.471 35.8711C24.5474 36.2541 23.2681 36.4913 21.5552 36.4913V38.4913ZM26.2371 37.7186L27.0031 39.5661C28.5941 38.9064 29.88 37.8656 30.7337 36.4144L29.0098 35.4004L27.2859 34.3864C26.9274 34.9958 26.3648 35.5005 25.471 35.8711L26.2371 37.7186ZM29.0098 35.4004L30.7225 36.4331C31.5764 35.0169 31.9416 33.3561 31.9416 31.5595H29.9416H27.9416C27.9416 32.8235 27.6856 33.7232 27.297 34.3677L29.0098 35.4004ZM29.9416 31.5595H31.9416C31.9416 29.749 31.5771 28.0763 30.7356 26.6396L29.0098 27.6504L27.284 28.6612C27.6849 29.3457 27.9416 30.2791 27.9416 31.5595H29.9416ZM29.0098 27.6504L30.7463 26.6581C29.9 25.1771 28.6133 24.1018 27.0102 23.4065L26.2143 25.2413L25.4185 27.0761C26.3306 27.4717 26.9075 28.0025 27.2733 28.6427L29.0098 27.6504ZM26.2143 25.2413L27.0369 23.4183C25.4559 22.7049 23.584 22.4004 21.5098 22.4004V24.4004V26.4004C23.2235 26.4004 24.4879 26.6565 25.3918 27.0643L26.2143 25.2413ZM21.5098 24.4004V22.4004H14.8734V24.4004V26.4004H21.5098V24.4004ZM14.8734 24.4004H12.8734V62.9004H14.8734H16.8734V24.4004H14.8734ZM14.8734 62.9004V60.9004H5.03252V62.9004V64.9004H14.8734V62.9004ZM30.1689 41.7186L28.4136 42.6772L39.9818 63.859L41.7371 62.9004L43.4923 61.9418L31.9242 40.7599L30.1689 41.7186ZM41.7371 62.9004V60.9004H30.8734V62.9004V64.9004H41.7371V62.9004ZM30.8734 62.9004L32.6374 61.9578L21.3192 40.776L19.5552 41.7186L17.7913 42.6611L29.1095 63.8429L30.8734 62.9004ZM19.5552 41.7186V43.7186H30.1689V41.7186V39.7186H19.5552V41.7186ZM47.0325 62.9004H45.0325V64.9004H47.0325V62.9004ZM47.0325 16.3549V14.3549H45.0325V16.3549H47.0325ZM78.3962 16.3549H80.3962V14.3549H78.3962V16.3549ZM78.3962 24.4686V26.4686H80.3962V24.4686H78.3962ZM56.8734 24.4686V22.4686H54.8734V24.4686H56.8734ZM56.8734 35.5595H54.8734V37.5595H56.8734V35.5595ZM76.7825 35.5595H78.7825V33.5595H76.7825V35.5595ZM76.7825 43.6731V45.6731H78.7825V43.6731H76.7825ZM56.8734 43.6731V41.6731H54.8734V43.6731H56.8734ZM56.8734 54.7868H54.8734V56.7868H56.8734V54.7868ZM78.4871 54.7868H80.4871V52.7868H78.4871V54.7868ZM78.4871 62.9004V64.9004H80.4871V62.9004H78.4871ZM47.0325 62.9004H49.0325V16.3549H47.0325H45.0325V62.9004H47.0325ZM47.0325 16.3549V18.3549H78.3962V16.3549V14.3549H47.0325V16.3549ZM78.3962 16.3549H76.3962V24.4686H78.3962H80.3962V16.3549H78.3962ZM78.3962 24.4686V22.4686H56.8734V24.4686V26.4686H78.3962V24.4686ZM56.8734 24.4686H54.8734V35.5595H56.8734H58.8734V24.4686H56.8734ZM56.8734 35.5595V37.5595H76.7825V35.5595V33.5595H56.8734V35.5595ZM76.7825 35.5595H74.7825V43.6731H76.7825H78.7825V35.5595H76.7825ZM76.7825 43.6731V41.6731H56.8734V43.6731V45.6731H76.7825V43.6731ZM56.8734 43.6731H54.8734V54.7868H56.8734H58.8734V43.6731H56.8734ZM56.8734 54.7868V56.7868H78.4871V54.7868V52.7868H56.8734V54.7868ZM78.4871 54.7868H76.4871V62.9004H78.4871H80.4871V54.7868H78.4871ZM78.4871 62.9004V60.9004H47.0325V62.9004V64.9004H78.4871V62.9004ZM111.47 29.7413L109.48 29.9387L109.659 31.7413H111.47V29.7413ZM99.4473 24.6277L100.186 26.4864L100.197 26.482L100.208 26.4775L99.4473 24.6277ZM96.9018 26.4686L95.3018 25.2686L95.2944 25.2785L95.2871 25.2885L96.9018 26.4686ZM96.0382 29.1504L98.0369 29.2231L98.0382 29.1867V29.1504H96.0382ZM96.5609 31.3322L94.8533 32.3734L94.8625 32.3884L94.8719 32.4033L96.5609 31.3322ZM98.1746 32.9458L97.0652 34.6099L97.0781 34.6186L97.0912 34.627L98.1746 32.9458ZM100.538 34.1049L99.8394 35.9789L99.8535 35.9841L99.8675 35.9891L100.538 34.1049ZM103.402 34.9231L103.867 32.978L103.853 32.9746L103.839 32.9714L103.402 34.9231ZM107.584 35.9231L107.119 37.8683L107.133 37.8716L107.147 37.8748L107.584 35.9231ZM113.175 37.7413L112.359 39.5676L112.359 39.5676L113.175 37.7413ZM117.584 40.5368L118.914 39.0429L118.914 39.0429L117.584 40.5368ZM120.47 44.4458L118.649 45.2735L118.653 45.281L118.656 45.2886L120.47 44.4458ZM121.538 49.6049L123.538 49.6156L123.538 49.6024L123.538 49.5893L121.538 49.6049ZM119.356 57.014L117.709 55.88L117.707 55.8825L119.356 57.014ZM113.175 61.8549L113.955 63.6964L113.96 63.6943L113.175 61.8549ZM93.6518 61.8322L92.8848 63.6793L92.8883 63.6807L93.6518 61.8322ZM87.1518 56.7186L85.498 57.8432L85.5023 57.8495L85.5067 57.8558L87.1518 56.7186ZM84.72 48.2868V46.2868H82.6743L82.7205 48.332L84.72 48.2868ZM94.2427 48.2868L96.2381 48.1511L96.1114 46.2868H94.2427V48.2868ZM95.5837 52.1958L93.9864 53.3995L93.9962 53.4125L94.0062 53.4253L95.5837 52.1958ZM98.7882 54.5368L98.0491 56.3952L98.0617 56.4002L98.0745 56.4051L98.7882 54.5368ZM107.697 54.5822L106.97 52.719L106.962 52.7221L107.697 54.5822ZM110.584 52.5595L112.153 53.7988L112.153 53.7988L110.584 52.5595ZM110.675 46.9458L109.151 48.2421L109.159 48.2514L109.167 48.2606L110.675 46.9458ZM107.993 45.1277L107.205 46.966L107.213 46.9696L107.993 45.1277ZM103.697 43.764L103.21 45.7038L103.219 45.7061L103.229 45.7083L103.697 43.764ZM98.6291 42.4913L99.1162 40.5515L99.109 40.5497L99.1018 40.548L98.6291 42.4913ZM89.3337 38.014L88.0012 39.5055L88.0012 39.5055L89.3337 38.014ZM85.9473 29.8095L87.9473 29.8183L87.9473 29.8085L87.9473 29.7987L85.9473 29.8095ZM88.1973 22.4231L86.5793 21.2475L86.5738 21.2551L88.1973 22.4231ZM112.629 17.4913L111.795 19.3091L111.799 19.3109L112.629 17.4913ZM118.675 22.4231L117.023 23.5516L117.023 23.5516L118.675 22.4231ZM120.902 29.7413V31.7413H122.935L122.902 29.7085L120.902 29.7413ZM111.47 29.7413L113.46 29.5439C113.227 27.195 112.187 25.2367 110.315 23.858L109.129 25.4686L107.943 27.0791C108.828 27.7307 109.349 28.6209 109.48 29.9387L111.47 29.7413ZM109.129 25.4686L110.315 23.858C108.483 22.5096 106.147 21.9458 103.515 21.9458V23.9458V25.9458C105.611 25.9458 107.017 26.3972 107.943 27.0791L109.129 25.4686ZM103.515 23.9458V21.9458C101.733 21.9458 100.102 22.1964 98.6871 22.7778L99.4473 24.6277L100.208 26.4775C101.005 26.1498 102.086 25.9458 103.515 25.9458V23.9458ZM99.4473 24.6277L98.7089 22.769C97.3321 23.3159 96.1559 24.1298 95.3018 25.2686L96.9018 26.4686L98.5018 27.6686C98.8296 27.2316 99.3503 26.8182 100.186 26.4864L99.4473 24.6277ZM96.9018 26.4686L95.2871 25.2885C94.4544 26.4279 94.0382 27.7374 94.0382 29.1504H96.0382H98.0382C98.0382 28.5634 98.1977 28.085 98.5166 27.6486L96.9018 26.4686ZM96.0382 29.1504L94.0395 29.0777C93.9971 30.244 94.2418 31.3705 94.8533 32.3734L96.5609 31.3322L98.2685 30.291C98.1225 30.0515 98.0187 29.7235 98.0369 29.2231L96.0382 29.1504ZM96.5609 31.3322L94.8719 32.4033C95.4317 33.2861 96.1774 34.0181 97.0652 34.6099L98.1746 32.9458L99.284 31.2817C98.808 30.9645 98.478 30.6207 98.2499 30.2611L96.5609 31.3322ZM98.1746 32.9458L97.0912 34.627C97.9128 35.1565 98.8336 35.6038 99.8394 35.9789L100.538 34.1049L101.237 32.231C100.455 31.9394 99.7999 31.614 99.258 31.2647L98.1746 32.9458ZM100.538 34.1049L99.8675 35.9891C100.845 36.337 101.878 36.6315 102.965 36.8748L103.402 34.9231L103.839 32.9714C102.895 32.7602 102.019 32.5092 101.209 32.2207L100.538 34.1049ZM103.402 34.9231L102.937 36.8683L107.119 37.8683L107.584 35.9231L108.049 33.978L103.867 32.978L103.402 34.9231ZM107.584 35.9231L107.147 37.8748C109.062 38.3036 110.797 38.8703 112.359 39.5676L113.175 37.7413L113.99 35.915C112.158 35.0972 110.166 34.4517 108.021 33.9714L107.584 35.9231ZM113.175 37.7413L112.359 39.5676C113.89 40.2511 115.182 41.0761 116.254 42.0306L117.584 40.5368L118.914 39.0429C117.501 37.7853 115.853 36.7466 113.99 35.915L113.175 37.7413ZM117.584 40.5368L116.254 42.0306C117.29 42.953 118.084 44.0298 118.649 45.2735L120.47 44.4458L122.291 43.6182C121.492 41.8619 120.362 40.3326 118.914 39.0429L117.584 40.5368ZM120.47 44.4458L118.656 45.2886C119.214 46.4884 119.525 47.9181 119.538 49.6206L121.538 49.6049L123.538 49.5893C123.521 47.4129 123.12 45.4033 122.284 43.6031L120.47 44.4458ZM121.538 49.6049L119.538 49.5943C119.525 52.0923 118.894 54.1592 117.709 55.88L119.356 57.014L121.004 58.1481C122.698 55.687 123.521 52.8145 123.538 49.6156L121.538 49.6049ZM119.356 57.014L117.707 55.8825C116.531 57.5963 114.796 58.9881 112.389 60.0156L113.175 61.8549L113.96 63.6943C116.947 62.4187 119.333 60.5833 121.006 58.1456L119.356 57.014ZM113.175 61.8549L112.394 60.0134C110.021 61.0189 107.067 61.5595 103.47 61.5595V63.5595V65.5595C107.449 65.5595 110.964 64.9637 113.955 63.6964L113.175 61.8549ZM103.47 63.5595V61.5595C99.9122 61.5595 96.9095 61.0139 94.4154 59.9837L93.6518 61.8322L92.8883 63.6807C95.9699 64.9536 99.5127 65.5595 103.47 65.5595V63.5595ZM93.6518 61.8322L94.4189 59.9852C91.9663 58.9666 90.1188 57.4934 88.797 55.5813L87.1518 56.7186L85.5067 57.8558C87.3061 60.4589 89.7919 62.3948 92.8848 63.6793L93.6518 61.8322ZM87.1518 56.7186L88.8057 55.594C87.5204 53.7038 86.7885 51.2893 86.7195 48.2415L84.72 48.2868L82.7205 48.332C82.8031 51.9812 83.6924 55.1879 85.498 57.8432L87.1518 56.7186ZM84.72 48.2868V50.2868H94.2427V48.2868V46.2868H84.72V48.2868ZM94.2427 48.2868L92.2473 48.4224C92.3745 50.2936 92.9228 51.9882 93.9864 53.3995L95.5837 52.1958L97.1809 50.9921C96.6687 50.3126 96.3231 49.4011 96.2381 48.1511L94.2427 48.2868ZM95.5837 52.1958L94.0062 53.4253C95.0489 54.7632 96.4188 55.7468 98.0491 56.3952L98.7882 54.5368L99.5273 52.6783C98.4909 52.2661 97.7244 51.6891 97.1611 50.9664L95.5837 52.1958ZM98.7882 54.5368L98.0745 56.4051C99.687 57.0211 101.457 57.3095 103.356 57.3095V55.3095V53.3095C101.861 53.3095 100.586 53.0827 99.5019 52.6684L98.7882 54.5368ZM103.356 55.3095V57.3095C105.211 57.3095 106.918 57.0404 108.432 56.4423L107.697 54.5822L106.962 52.7221C106.022 53.0937 104.835 53.3095 103.356 53.3095V55.3095ZM107.697 54.5822L108.424 56.4454C109.928 55.8586 111.209 54.9953 112.153 53.7988L110.584 52.5595L109.014 51.3202C108.595 51.8509 107.951 52.3361 106.97 52.7191L107.697 54.5822ZM110.584 52.5595L112.153 53.7988C113.12 52.575 113.606 51.1439 113.606 49.5822H111.606H109.606C109.606 50.263 109.411 50.8167 109.014 51.3202L110.584 52.5595ZM111.606 49.5822H113.606C113.606 48.1086 113.155 46.7471 112.182 45.6311L110.675 46.9458L109.167 48.2606C109.436 48.5689 109.606 48.9649 109.606 49.5822H111.606ZM110.675 46.9458L112.198 45.6496C111.329 44.6286 110.14 43.8644 108.772 43.2857L107.993 45.1277L107.213 46.9696C108.209 47.3909 108.808 47.8388 109.151 48.2421L110.675 46.9458ZM107.993 45.1277L108.781 43.2894C107.481 42.7322 105.935 42.2461 104.166 41.8197L103.697 43.764L103.229 45.7083C104.854 46.1001 106.172 46.5231 107.205 46.966L107.993 45.1277ZM103.697 43.764L104.184 41.8243L99.1162 40.5515L98.6291 42.4913L98.142 44.4311L103.21 45.7038L103.697 43.764ZM98.6291 42.4913L99.1018 40.548C95.3969 39.6468 92.627 38.2743 90.6661 36.5225L89.3337 38.014L88.0012 39.5055C90.5858 41.8144 94.0128 43.4267 98.1564 44.4346L98.6291 42.4913ZM89.3337 38.014L90.6661 36.5225C88.8779 34.9251 87.9343 32.767 87.9473 29.8183L85.9473 29.8095L83.9473 29.8007C83.93 33.7308 85.244 37.0424 88.0012 39.5055L89.3337 38.014ZM85.9473 29.8095L87.9473 29.7987C87.9342 27.3649 88.5742 25.324 89.8208 23.5911L88.1973 22.4231L86.5738 21.2551C84.7901 23.7344 83.9301 26.6177 83.9473 29.8202L85.9473 29.8095ZM88.1973 22.4231L89.8153 23.5988C91.1145 21.8108 92.9188 20.3765 95.3031 19.3198L94.4927 17.4913L93.6824 15.6628C90.7334 16.9698 88.3407 18.8233 86.5793 21.2475L88.1973 22.4231ZM94.4927 17.4913L95.3031 19.3198C97.6762 18.2681 100.424 17.7186 103.584 17.7186V15.7186V13.7186C99.9558 13.7186 96.6426 14.3509 93.6824 15.6628L94.4927 17.4913ZM103.584 15.7186V17.7186C106.812 17.7186 109.532 18.2707 111.795 19.3091L112.629 17.4913L113.463 15.6735C110.575 14.3483 107.264 13.7186 103.584 13.7186V15.7186ZM112.629 17.4913L111.799 19.3109C114.098 20.3596 115.813 21.7805 117.023 23.5516L118.675 22.4231L120.326 21.2946C118.657 18.8536 116.342 16.9867 113.459 15.6717L112.629 17.4913ZM118.675 22.4231L117.023 23.5516C118.223 25.3063 118.862 27.3573 118.902 29.7741L120.902 29.7413L122.902 29.7085C122.85 26.5799 122.005 23.7521 120.326 21.2946L118.675 22.4231ZM120.902 29.7413V27.7413H111.47V29.7413V31.7413H120.902V29.7413ZM156.908 16.3549V14.3549H154.908V16.3549H156.908ZM166.748 16.3549H168.748V14.3549H166.748V16.3549ZM164.317 55.4913L162.63 54.4169L162.625 54.4241L164.317 55.4913ZM157.567 61.4458L158.442 63.244L158.45 63.2403L157.567 61.4458ZM137.317 61.4458L136.433 63.2403L136.441 63.244L137.317 61.4458ZM130.567 55.4913L128.875 56.5585L128.875 56.5585L130.567 55.4913ZM128.158 16.3549V14.3549H126.158V16.3549H128.158ZM137.998 16.3549H139.998V14.3549H137.998V16.3549ZM139.158 50.4686L137.413 51.4464L137.417 51.4536L137.421 51.4608L139.158 50.4686ZM142.476 53.7186L141.508 55.4686L141.508 55.4686L142.476 53.7186ZM152.43 53.7186L151.462 51.9685L151.454 51.9729L152.43 53.7186ZM155.726 50.4686L153.989 49.4763L153.985 49.4835L153.981 49.4908L155.726 50.4686ZM156.908 16.3549V18.3549H166.748V16.3549V14.3549H156.908V16.3549ZM166.748 16.3549H164.748V46.5822H166.748H168.748V16.3549H166.748ZM166.748 46.5822H164.748C164.748 49.6444 164.022 52.2313 162.63 54.4169L164.317 55.4913L166.004 56.5657C167.854 53.6603 168.748 50.3079 168.748 46.5822H166.748ZM164.317 55.4913L162.625 54.4241C161.23 56.6346 159.271 58.3781 156.683 59.6514L157.567 61.4458L158.45 63.2403C161.65 61.6651 164.191 59.4389 166.008 56.5585L164.317 55.4913ZM157.567 61.4458L156.691 59.6477C154.118 60.9004 151.057 61.5595 147.453 61.5595V63.5595V65.5595C151.546 65.5595 155.227 64.8094 158.442 63.244L157.567 61.4458ZM147.453 63.5595V61.5595C143.833 61.5595 140.764 60.9 138.192 59.6477L137.317 61.4458L136.441 63.244C139.657 64.8099 143.346 65.5595 147.453 65.5595V63.5595ZM137.317 61.4458L138.2 59.6514C135.613 58.3781 133.653 56.6346 132.258 54.4241L130.567 55.4913L128.875 56.5585C130.693 59.4389 133.233 61.6651 136.433 63.2403L137.317 61.4458ZM130.567 55.4913L132.258 54.4241C130.878 52.2376 130.158 49.648 130.158 46.5822H128.158H126.158C126.158 50.3043 127.043 53.6541 128.875 56.5585L130.567 55.4913ZM128.158 46.5822H130.158V16.3549H128.158H126.158V46.5822H128.158ZM128.158 16.3549V18.3549H137.998V16.3549V14.3549H128.158V16.3549ZM137.998 16.3549H135.998V45.7413H137.998H139.998V16.3549H137.998ZM137.998 45.7413H135.998C135.998 47.814 136.453 49.7339 137.413 51.4464L139.158 50.4686L140.902 49.4908C140.316 48.4456 139.998 47.214 139.998 45.7413H137.998ZM139.158 50.4686L137.421 51.4608C138.395 53.1661 139.771 54.508 141.508 55.4686L142.476 53.7186L143.444 51.9685C142.332 51.3534 141.495 50.5286 140.894 49.4763L139.158 50.4686ZM142.476 53.7186L141.508 55.4686C143.273 56.4455 145.276 56.9004 147.453 56.9004V54.9004V52.9004C145.842 52.9004 144.526 52.5674 143.444 51.9685L142.476 53.7186ZM147.453 54.9004V56.9004C149.641 56.9004 151.649 56.447 153.406 55.4642L152.43 53.7186L151.454 51.9729C150.394 52.5659 149.083 52.9004 147.453 52.9004V54.9004ZM152.43 53.7186L153.398 55.4686C155.138 54.5063 156.51 53.1598 157.47 51.4464L155.726 50.4686L153.981 49.4908C153.396 50.5349 152.571 51.3551 151.462 51.9685L152.43 53.7186ZM155.726 50.4686L157.462 51.4608C158.442 49.7459 158.908 47.8207 158.908 45.7413H156.908H154.908C154.908 47.2073 154.585 48.4337 153.989 49.4763L155.726 50.4686ZM156.908 45.7413H158.908V16.3549H156.908H154.908V45.7413H156.908ZM174.845 16.3549V14.3549H172.845V16.3549H174.845ZM186.981 16.3549L188.832 15.5964L188.323 14.3549H186.981V16.3549ZM199.8 47.6277L197.949 48.3862L198.458 49.6277H199.8V47.6277ZM200.345 47.6277V49.6277H201.687L202.196 48.3862L200.345 47.6277ZM213.163 16.3549V14.3549H211.821L211.313 15.5964L213.163 16.3549ZM225.3 16.3549H227.3V14.3549H225.3V16.3549ZM225.3 62.9004V64.9004H227.3V62.9004H225.3ZM215.754 62.9004H213.754V64.9004H215.754V62.9004ZM215.754 32.6049H217.754V30.6049H215.754V32.6049ZM215.368 32.6049V30.6049H214.014L213.511 31.8612L215.368 32.6049ZM203.322 62.6731V64.6731H204.676L205.179 63.4169L203.322 62.6731ZM196.822 62.6731L194.965 63.4145L195.467 64.6731H196.822V62.6731ZM184.777 32.4913L186.634 31.75L186.132 30.4913H184.777V32.4913ZM184.39 32.4913V30.4913H182.39V32.4913H184.39ZM184.39 62.9004V64.9004H186.39V62.9004H184.39ZM174.845 62.9004H172.845V64.9004H174.845V62.9004ZM174.845 16.3549V18.3549H186.981V16.3549V14.3549H174.845V16.3549ZM186.981 16.3549L185.131 17.1135L197.949 48.3862L199.8 47.6277L201.65 46.8691L188.832 15.5964L186.981 16.3549ZM199.8 47.6277V49.6277H200.345V47.6277V45.6277H199.8V47.6277ZM200.345 47.6277L202.196 48.3862L215.014 17.1135L213.163 16.3549L211.313 15.5964L198.494 46.8691L200.345 47.6277ZM213.163 16.3549V18.3549H225.3V16.3549V14.3549H213.163V16.3549ZM225.3 16.3549H223.3V62.9004H225.3H227.3V16.3549H225.3ZM225.3 62.9004V60.9004H215.754V62.9004V64.9004H225.3V62.9004ZM215.754 62.9004H217.754V32.6049H215.754H213.754V62.9004H215.754ZM215.754 32.6049V30.6049H215.368V32.6049V34.6049H215.754V32.6049ZM215.368 32.6049L213.511 31.8612L201.466 61.9294L203.322 62.6731L205.179 63.4169L217.224 33.3487L215.368 32.6049ZM203.322 62.6731V60.6731H196.822V62.6731V64.6731H203.322V62.6731ZM196.822 62.6731L198.68 61.9318L186.634 31.75L184.777 32.4913L182.919 33.2326L194.965 63.4145L196.822 62.6731ZM184.777 32.4913V30.4913H184.39V32.4913V34.4913H184.777V32.4913ZM184.39 32.4913H182.39V62.9004H184.39H186.39V32.4913H184.39ZM184.39 62.9004V60.9004H174.845V62.9004V64.9004H184.39V62.9004ZM174.845 62.9004H176.845V16.3549H174.845H172.845V62.9004H174.845ZM233.408 62.9004H231.408V64.9004H233.408V62.9004ZM233.408 16.3549V14.3549H231.408V16.3549H233.408ZM264.771 16.3549H266.771V14.3549H264.771V16.3549ZM264.771 24.4686V26.4686H266.771V24.4686H264.771ZM243.248 24.4686V22.4686H241.248V24.4686H243.248ZM243.248 35.5595H241.248V37.5595H243.248V35.5595ZM263.158 35.5595H265.158V33.5595H263.158V35.5595ZM263.158 43.6731V45.6731H265.158V43.6731H263.158ZM243.248 43.6731V41.6731H241.248V43.6731H243.248ZM243.248 54.7868H241.248V56.7868H243.248V54.7868ZM264.862 54.7868H266.862V52.7868H264.862V54.7868ZM264.862 62.9004V64.9004H266.862V62.9004H264.862ZM233.408 62.9004H235.408V16.3549H233.408H231.408V62.9004H233.408ZM233.408 16.3549V18.3549H264.771V16.3549V14.3549H233.408V16.3549ZM264.771 16.3549H262.771V24.4686H264.771H266.771V16.3549H264.771ZM264.771 24.4686V22.4686H243.248V24.4686V26.4686H264.771V24.4686ZM243.248 24.4686H241.248V35.5595H243.248H245.248V24.4686H243.248ZM243.248 35.5595V37.5595H263.158V35.5595V33.5595H243.248V35.5595ZM263.158 35.5595H261.158V43.6731H263.158H265.158V35.5595H263.158ZM263.158 43.6731V41.6731H243.248V43.6731V45.6731H263.158V43.6731ZM243.248 43.6731H241.248V54.7868H243.248H245.248V43.6731H243.248ZM243.248 54.7868V56.7868H264.862V54.7868V52.7868H243.248V54.7868ZM264.862 54.7868H262.862V62.9004H264.862H266.862V54.7868H264.862ZM264.862 62.9004V60.9004H233.408V62.9004V64.9004H264.862V62.9004Z" fill="white" mask="url(#path-1-outside-1_644_2067)"/>
<path d="M79.5483 86.9404H91.5683V104.5H89.2883V89.0204H81.7483V104.68H79.5483V86.9404ZM82.2683 91.4604H88.8483V93.2004H82.2683V91.4604ZM80.6883 101.42H90.3883V103.5H80.6883V101.42ZM84.5483 89.4204H86.4083V95.8604H84.5483V89.4204ZM84.5083 96.6004V98.7004H86.5283V96.6004H84.5083ZM82.7683 94.9404H88.3483V100.34H82.7683V94.9404ZM77.0883 85.9604L79.2683 86.6404C78.895 87.7871 78.435 88.9471 77.8883 90.1204C77.355 91.2804 76.7683 92.3804 76.1283 93.4204C75.4883 94.4471 74.815 95.3604 74.1083 96.1604C74.055 95.9604 73.9616 95.6937 73.8283 95.3604C73.695 95.0271 73.5483 94.6937 73.3883 94.3604C73.2283 94.0271 73.0883 93.7537 72.9683 93.5404C73.5283 92.9271 74.0616 92.2137 74.5683 91.4004C75.0883 90.5871 75.5616 89.7204 75.9883 88.8004C76.415 87.8671 76.7816 86.9204 77.0883 85.9604ZM75.4483 91.4604L77.7083 89.2004L77.7283 89.2204V104.72H75.4483V91.4604ZM116.088 86.3804H118.848C118.822 86.9404 118.775 87.6604 118.708 88.5404C118.642 89.4204 118.515 90.4004 118.328 91.4804C118.155 92.5471 117.888 93.6671 117.528 94.8404C117.168 96.0137 116.675 97.1871 116.048 98.3604C115.435 99.5204 114.648 100.634 113.688 101.7C112.742 102.754 111.588 103.694 110.228 104.52C110.015 104.214 109.722 103.887 109.348 103.54C108.988 103.194 108.608 102.88 108.208 102.6C109.542 101.854 110.662 101 111.568 100.04C112.475 99.0804 113.215 98.0737 113.788 97.0204C114.362 95.9537 114.802 94.8871 115.108 93.8204C115.415 92.7404 115.635 91.7204 115.768 90.7604C115.902 89.8004 115.982 88.9404 116.008 88.1804C116.035 87.4204 116.062 86.8204 116.088 86.3804ZM118.748 86.9204C118.762 87.1737 118.788 87.5737 118.828 88.1204C118.868 88.6671 118.948 89.3204 119.068 90.0804C119.188 90.8404 119.368 91.6671 119.608 92.5604C119.862 93.4404 120.195 94.3471 120.608 95.2804C121.022 96.2137 121.535 97.1271 122.148 98.0204C122.762 98.9137 123.502 99.7404 124.368 100.5C125.248 101.26 126.275 101.92 127.448 102.48C127.062 102.76 126.702 103.087 126.368 103.46C126.048 103.834 125.788 104.187 125.588 104.52C124.362 103.907 123.288 103.18 122.368 102.34C121.462 101.487 120.682 100.567 120.028 99.5804C119.388 98.5804 118.855 97.5671 118.428 96.5404C118.002 95.5137 117.655 94.5071 117.388 93.5204C117.135 92.5204 116.942 91.5937 116.808 90.7404C116.675 89.8871 116.582 89.1471 116.528 88.5204C116.488 87.8937 116.455 87.4404 116.428 87.1604L118.748 86.9204ZM144.768 91.1404H146.928V104.68H144.768V91.1404ZM148.968 97.3004H151.128V103.62H148.968V97.3004ZM149.928 97.3004H156.568V102.94H149.928V101.6H154.448V98.6204H149.928V97.3004ZM145.928 91.1404H152.268V96.5404H145.928V95.1604H150.108V92.5204H145.928V91.1404ZM145.948 93.1804H150.708V94.4804H145.948V93.1804ZM149.948 99.4604H155.428V100.76H149.948V99.4604ZM154.748 93.1804H159.648V94.4804H154.748V93.1804ZM159.388 91.1404V92.5204H155.588V95.1604H159.388V96.5404H153.428V91.1404H159.388ZM158.848 91.1404H161.088V102.28C161.088 102.827 161.015 103.26 160.868 103.58C160.735 103.9 160.495 104.14 160.148 104.3C159.775 104.487 159.322 104.6 158.788 104.64C158.268 104.68 157.628 104.694 156.868 104.68C156.842 104.374 156.762 104.014 156.628 103.6C156.495 103.2 156.355 102.86 156.208 102.58C156.662 102.607 157.108 102.62 157.548 102.62C158.002 102.62 158.302 102.62 158.448 102.62C158.715 102.62 158.848 102.5 158.848 102.26V91.1404ZM146.168 87.3204H152.488V89.1404H146.168V87.3204ZM154.228 87.3204H161.908V89.1404H154.228V87.3204ZM146.268 85.7404L148.488 86.3604C148.102 87.2404 147.608 88.1004 147.008 88.9404C146.422 89.7804 145.835 90.4871 145.248 91.0604C145.102 90.9271 144.908 90.7804 144.668 90.6204C144.428 90.4604 144.188 90.3004 143.948 90.1404C143.708 89.9804 143.488 89.8537 143.288 89.7604C143.915 89.2671 144.488 88.6671 145.008 87.9604C145.542 87.2404 145.962 86.5004 146.268 85.7404ZM154.428 85.7404L156.708 86.3004C156.335 87.1937 155.855 88.0471 155.268 88.8604C154.682 89.6604 154.088 90.3271 153.488 90.8604C153.328 90.7404 153.115 90.6137 152.848 90.4804C152.595 90.3337 152.335 90.1937 152.068 90.0604C151.802 89.9137 151.568 89.8004 151.368 89.7204C152.022 89.2537 152.615 88.6671 153.148 87.9604C153.695 87.2404 154.122 86.5004 154.428 85.7404ZM146.928 88.8404L148.908 88.3004C149.135 88.6204 149.362 88.9804 149.588 89.3804C149.815 89.7804 149.988 90.1337 150.108 90.4404L148.008 91.0204C147.915 90.7271 147.768 90.3737 147.568 89.9604C147.368 89.5471 147.155 89.1737 146.928 88.8404ZM155.868 88.8204L157.908 88.2804C158.188 88.6004 158.475 88.9671 158.768 89.3804C159.062 89.7804 159.282 90.1404 159.428 90.4604L157.288 91.0404C157.168 90.7471 156.975 90.3937 156.708 89.9804C156.442 89.5537 156.162 89.1671 155.868 88.8204ZM187.688 88.3204C187.182 89.1604 186.515 90.0137 185.688 90.8804C184.862 91.7471 183.935 92.5737 182.908 93.3604C181.895 94.1337 180.828 94.8137 179.708 95.4004C179.615 95.2004 179.482 94.9804 179.308 94.7404C179.135 94.5004 178.955 94.2604 178.768 94.0204C178.582 93.7804 178.402 93.5804 178.228 93.4204C179.415 92.8471 180.528 92.1404 181.568 91.3004C182.622 90.4604 183.555 89.5671 184.368 88.6204C185.182 87.6604 185.822 86.7404 186.288 85.8604H188.868C189.388 86.7004 189.968 87.4937 190.608 88.2404C191.262 88.9871 191.948 89.6737 192.668 90.3004C193.402 90.9137 194.168 91.4604 194.968 91.9404C195.768 92.4204 196.575 92.8204 197.388 93.1404C197.082 93.4471 196.795 93.8004 196.528 94.2004C196.262 94.5871 196.022 94.9671 195.808 95.3404C194.742 94.7937 193.688 94.1404 192.648 93.3804C191.608 92.6204 190.655 91.8071 189.788 90.9404C188.935 90.0604 188.235 89.1871 187.688 88.3204ZM189.908 93.2404H192.408V104.68H189.908V93.2404ZM183.008 93.3404H185.488V95.8204C185.488 96.5271 185.442 97.2737 185.348 98.0604C185.268 98.8337 185.082 99.6137 184.788 100.4C184.508 101.187 184.075 101.947 183.488 102.68C182.915 103.414 182.135 104.087 181.148 104.7C181.002 104.527 180.808 104.327 180.568 104.1C180.342 103.887 180.102 103.674 179.848 103.46C179.595 103.26 179.362 103.1 179.148 102.98C180.015 102.46 180.708 101.9 181.228 101.3C181.748 100.7 182.135 100.087 182.388 99.4604C182.642 98.8204 182.808 98.1871 182.888 97.5604C182.968 96.9337 183.008 96.3337 183.008 95.7604V93.3404Z" fill="white"/>
</svg>
