<svg width="28" height="28" viewBox="0 0 28 28" fill="none" xmlns="http://www.w3.org/2000/svg">
<g clip-path="url(#clip0_157_426)">
<path d="M13.8854 26.7708C21.0018 26.7708 26.7708 21.0018 26.7708 13.8854C26.7708 6.76899 21.0018 1 13.8854 1C6.76899 1 1 6.76899 1 13.8854C1 21.0018 6.76899 26.7708 13.8854 26.7708Z" stroke="white" stroke-width="2"/>
<path d="M14.9476 12.1778C16.0245 11.3635 17.208 11.2512 18.4307 11.4815C19.8161 11.7398 20.5676 12.6663 20.8144 14.0028C20.9322 14.6318 20.9771 15.2832 20.9883 15.9234C21.0107 17.4732 20.9939 19.0231 20.9939 20.573C20.9939 20.9493 20.949 20.9998 20.5789 20.9998C19.7488 20.9998 18.9187 20.9998 18.0886 20.9998C17.7576 20.9998 17.7016 20.938 17.7016 20.6067C17.6959 19.0288 17.7016 17.4508 17.6903 15.8728C17.6903 15.5696 17.6455 15.2607 17.5725 14.9631C17.4772 14.5812 17.2248 14.3398 16.8266 14.2555C15.7553 14.0365 15.1047 14.5925 15.071 15.7998C15.043 16.7208 15.0598 17.6473 15.0598 18.5739C15.0598 19.2646 15.0542 19.9553 15.0598 20.646C15.0598 20.8931 14.9645 21.0054 14.7121 21.0054C13.8539 20.9998 12.9958 21.0054 12.1376 21.0054C11.8291 21.0054 11.7618 20.938 11.7618 20.6236C11.7618 19.4275 11.7618 18.2313 11.7618 17.0408C11.7618 15.3337 11.7618 13.6266 11.7618 11.9139C11.7618 11.5601 11.8123 11.5095 12.1657 11.5095C12.9397 11.5095 13.7137 11.5095 14.4877 11.5095C14.9196 11.5095 14.9364 11.532 14.942 11.9756C14.9476 12.0206 14.9476 12.0767 14.9476 12.1778Z" fill="white"/>
<path d="M7.21874 16.2322C7.21874 14.7834 7.21874 13.3402 7.21874 11.8914C7.21874 11.5432 7.25801 11.4983 7.60014 11.4983C8.44146 11.4983 9.27717 11.4983 10.1185 11.4983C10.4606 11.4983 10.4999 11.5432 10.4999 11.9195C10.4999 14.3622 10.4999 16.8106 10.4999 19.2534C10.4999 19.7082 10.4943 20.1687 10.4999 20.6235C10.5055 20.8819 10.4101 20.9998 10.1409 20.9942C9.28278 20.9829 8.42463 20.9886 7.56649 20.9942C7.29727 20.9942 7.21313 20.8762 7.21313 20.6179C7.22435 19.1579 7.21874 17.6979 7.21874 16.2322Z" fill="white"/>
<path d="M8.86773 10.7344C7.82449 10.7344 7.00561 9.92011 7 8.88123C7 7.84797 7.82449 7.00564 8.8509 7.00003C9.8717 6.99441 10.713 7.83113 10.7242 8.86439C10.7298 9.89765 9.90535 10.7287 8.86773 10.7344Z" fill="white"/>
</g>
<defs>
<clipPath id="clip0_157_426">
<rect width="28" height="27.7708" fill="white"/>
</clipPath>
</defs>
</svg>
