<svg width="81" height="97" viewBox="0 0 81 97" fill="none" xmlns="http://www.w3.org/2000/svg">
<path d="M48.769 96.226L1.55735 77.4871C0.457718 77.0529 -0.0814034 75.8019 0.355028 74.6971L28.8044 2.32939C29.2365 1.22457 30.4816 0.682911 31.5813 1.1214L78.7929 19.856C79.8925 20.2902 80.4317 21.5412 79.9952 22.646L51.5416 95.0137C51.1094 96.1185 49.8643 96.6602 48.769 96.226Z" fill="url(#paint0_linear_22_643)"/>
<path d="M28.5303 82.8951C31.0635 82.8951 33.1171 80.8318 33.1171 78.2866C33.1171 75.7415 31.0635 73.6782 28.5303 73.6782C25.9971 73.6782 23.9435 75.7415 23.9435 78.2866C23.9435 80.8318 25.9971 82.8951 28.5303 82.8951Z" fill="#EFEC64" stroke="black" stroke-width="1.57262" stroke-miterlimit="10"/>
<path d="M47.7933 76.4684L15.707 63.735C15.0481 63.4728 14.7229 62.7248 14.9839 62.0628L34.2596 13.0295C34.5206 12.3675 35.2651 12.0408 35.924 12.303L68.0103 25.0363C68.6692 25.2986 68.9944 26.0466 68.7334 26.7086L49.4577 75.7419C49.1967 76.4082 48.4522 76.7306 47.7933 76.4684Z" fill="white" stroke="black" stroke-width="1.57262" stroke-miterlimit="10"/>
<mask id="mask0_22_643" style="mask-type:luminance" maskUnits="userSpaceOnUse" x="14" y="12" width="55" height="65">
<path d="M47.7933 76.4684L15.707 63.735C15.0481 63.4728 14.7229 62.7248 14.9839 62.0628L34.2596 13.0295C34.5206 12.3675 35.2651 12.0408 35.924 12.303L68.0103 25.0363C68.6692 25.2986 68.9944 26.0466 68.7334 26.7086L49.4577 75.7419C49.1967 76.4082 48.4522 76.7306 47.7933 76.4684Z" fill="white"/>
</mask>
<g mask="url(#mask0_22_643)">
<path d="M69.6022 31.9747C69.6022 31.9747 53.8051 31.1106 45.453 34.1027C37.1052 37.0947 22.0782 36.5358 22.0782 36.5358L18.4028 45.886C18.4028 45.886 39.9163 43.6161 46.7152 40.0051C53.5141 36.394 66.2306 40.5424 66.2306 40.5424L69.6022 31.9747Z" fill="#86DBEB"/>
</g>
<mask id="mask1_22_643" style="mask-type:luminance" maskUnits="userSpaceOnUse" x="14" y="12" width="55" height="65">
<path d="M47.7933 76.4684L15.707 63.735C15.0481 63.4728 14.7229 62.7248 14.9839 62.0628L34.2596 13.0295C34.5206 12.3675 35.2651 12.0408 35.924 12.303L68.0103 25.0363C68.6692 25.2986 68.9944 26.0466 68.7334 26.7086L49.4577 75.7419C49.1967 76.4082 48.4522 76.7306 47.7933 76.4684Z" fill="white"/>
</mask>
<g mask="url(#mask1_22_643)">
<path d="M67.7237 44.7423C67.7237 44.7423 51.9266 43.8782 43.5745 46.8702C35.2267 49.8623 20.1998 49.3034 20.1998 49.3034L16.5243 58.6535C16.5243 58.6535 38.0378 56.3837 44.8367 52.7726C51.6357 49.1616 64.3521 53.31 64.3521 53.31L67.7237 44.7423Z" fill="#86DBEB"/>
</g>
<path d="M47.7933 76.4684L15.707 63.735C15.0481 63.4728 14.7229 62.7248 14.9839 62.0628L34.2596 13.0295C34.5206 12.3675 35.2651 12.0408 35.924 12.303L68.0103 25.0363C68.6692 25.2986 68.9944 26.0466 68.7334 26.7086L49.4577 75.7419C49.1967 76.4082 48.4522 76.7306 47.7933 76.4684Z" stroke="black" stroke-width="1.57262" stroke-miterlimit="10"/>
<defs>
<linearGradient id="paint0_linear_22_643" x1="14.58" y1="38.5177" x2="65.8361" y2="58.6695" gradientUnits="userSpaceOnUse">
<stop stop-color="#FBB2AD"/>
<stop offset="1" stop-color="white"/>
</linearGradient>
</defs>
</svg>
