<svg width="762" height="687" viewBox="0 0 762 687" fill="none" xmlns="http://www.w3.org/2000/svg">
<path d="M273 163.747C302.835 115.145 378.932 45.068 454 158.248L273 163.747Z" fill="white" stroke="black" stroke-width="3" stroke-linecap="round"/>
<path d="M2.21706 648.801C9.17094 503.683 20.9579 252.288 23.2312 184.177C23.5355 175.062 31.8894 166.592 41.0063 166.352L733.606 148.089C741.749 147.874 748.514 154.321 748.692 162.464L759.793 670.331C759.977 678.743 753.077 685.593 744.667 685.349L16.4771 664.18C8.25178 663.941 1.8232 657.02 2.21706 648.801Z" fill="white" stroke="black" stroke-width="3.0038"/>
<path d="M671.131 545.248C679.216 545.248 716.846 545.248 734.651 545.248" stroke="black" stroke-width="3" stroke-linecap="round"/>
<path d="M671.131 584.229C679.216 584.229 716.846 584.229 734.651 584.229" stroke="black" stroke-width="3" stroke-linecap="round"/>
<path d="M671.131 621.76C679.216 621.76 716.846 621.76 734.651 621.76" stroke="black" stroke-width="3" stroke-linecap="round"/>
<circle cx="693.109" cy="467.984" r="38.9777" fill="#86DBEB"/>
<circle cx="693.109" cy="453.55" r="37.503" stroke="black" stroke-width="2.94947"/>
<path d="M702.73 442.433L680.972 453.312V454.975L700.305 466.062L704.393 460.449L689.703 452.619L704.601 445.551L702.73 442.433Z" fill="black"/>
<circle cx="693.109" cy="323.986" r="38.9777" fill="#EFEC64"/>
<circle cx="693.109" cy="309.55" r="37.503" stroke="black" stroke-width="2.94947"/>
<path d="M683.488 298.433L705.246 309.312V310.975L685.913 322.062L681.825 316.449L696.515 308.619L681.617 301.551L683.488 298.433Z" fill="black"/>
<path d="M290.5 39.248L330.5 106.248" stroke="black" stroke-width="3" stroke-linecap="round"/>
<path d="M457.5 39.248L415.5 114.248" stroke="black" stroke-width="3" stroke-linecap="round"/>
<circle cx="277.231" cy="23.1741" r="21.5979" fill="#86DBEB" stroke="black" stroke-width="3"/>
<circle cx="472.12" cy="23.1741" r="21.5979" fill="#EFEC64" stroke="black" stroke-width="3"/>
</svg>
